<?xml version="1.0" encoding="utf-8" ?>
<svg baseProfile="full" height="100%" preserveAspectRatio="xMinYMin meet" version="1.1" viewBox="0, 0, 150.0, 150.0" width="100%" xmlns="http://www.w3.org/2000/svg" xmlns:ev="http://www.w3.org/2001/xml-events" xmlns:xlink="http://www.w3.org/1999/xlink"><defs /><polygon points="56.0,49.0 62.46715672757901,51.678784026555626 67.41690419588484,56.628531494861456 70.09568822244047,63.095688222440465 70.09568822244047,70.09568822244046 67.41690419588484,76.56284495001947 62.46715672757901,81.5125924183253 56.0,84.19137644488093 49.0,84.19137644488093 42.53284327242099,81.5125924183253 37.58309580411516,76.56284495001947 34.904311777559535,70.09568822244046 34.904311777559535,63.09568822244046 37.58309580411517,56.62853149486145 42.532843272421,51.67878402655562 49.00000000000001,48.99999999999999" stroke="black" style="fill-opacity:0;" /><polygon points="55.46715672757901,51.678784026555626 60.41690419588484,56.628531494861456 63.09568822244047,63.095688222440465 63.09568822244047,70.09568822244046 60.41690419588485,76.56284495001947 55.46715672757902,81.5125924183253 49.00000000000001,84.19137644488093 42.00000000000001,84.19137644488093 35.532843272421,81.5125924183253 30.583095804115164,76.56284495001947 27.90431177755954,70.09568822244046 27.90431177755954,63.09568822244046 30.583095804115167,56.62853149486145 35.532843272421,51.67878402655562 42.00000000000001,48.99999999999999 49.00000000000001,48.99999999999999" stroke="black" style="fill-opacity:0;" /><polygon points="53.94974746830583,53.94974746830583 56.62853149486146,60.41690419588484 56.62853149486146,67.41690419588484 53.94974746830584,73.88406092346385 49.00000000000001,78.83380839176968 42.532843272421,81.51259241832531 35.532843272421,81.51259241832531 29.065686544841988,78.83380839176968 24.115939076536154,73.88406092346385 21.43715504998053,67.41690419588484 21.43715504998053,60.41690419588484 24.115939076536158,53.94974746830583 29.065686544841988,49.0 35.532843272421,46.321215973444374 42.532843272421,46.321215973444374 49.00000000000001,49.00000000000001" stroke="black" style="fill-opacity:0;" /><polygon points="51.67878402655563,55.46715672757901 51.67878402655563,62.46715672757901 49.00000000000001,68.93431345515802 44.05025253169418,73.88406092346385 37.58309580411517,76.56284495001948 30.583095804115167,76.56284495001948 24.115939076536158,73.88406092346385 19.166191608230324,68.93431345515802 16.4874075816747,62.46715672757901 16.4874075816747,55.46715672757901 19.166191608230328,49.0 24.115939076536158,44.05025253169417 30.583095804115167,41.371468505138544 37.58309580411517,41.371468505138544 44.05025253169418,44.05025253169418 49.000000000000014,49.00000000000001" stroke="black" style="fill-opacity:0;" /><polygon points="49.0,56.0 46.321215973444374,62.46715672757901 41.371468505138544,67.41690419588484 34.904311777559535,70.09568822244047 27.904311777559535,70.09568822244047 21.437155049980525,67.41690419588484 16.48740758167469,62.46715672757901 13.808623555119066,56.0 13.808623555119064,49.0 16.487407581674695,42.53284327242099 21.437155049980525,37.58309580411516 27.904311777559535,34.904311777559535 34.904311777559535,34.904311777559535 41.371468505138544,37.58309580411517 46.32121597344438,42.532843272421 49.00000000000001,49.00000000000001" stroke="black" style="fill-opacity:0;" /><polygon points="46.321215973444374,55.46715672757901 41.371468505138544,60.41690419588484 34.904311777559535,63.09568822244047 27.904311777559535,63.09568822244047 21.437155049980525,60.41690419588485 16.48740758167469,55.46715672757902 13.808623555119066,49.00000000000001 13.808623555119064,42.00000000000001 16.487407581674695,35.532843272421005 21.437155049980525,30.58309580411517 27.904311777559535,27.904311777559546 34.904311777559535,27.904311777559546 41.371468505138544,30.583095804115175 46.32121597344438,35.532843272421005 49.00000000000001,42.000000000000014 49.00000000000001,49.000000000000014" stroke="black" style="fill-opacity:0;" /><polygon points="44.05025253169417,53.94974746830583 37.58309580411516,56.62853149486146 30.58309580411516,56.62853149486146 24.11593907653615,53.94974746830584 19.166191608230317,49.00000000000001 16.48740758167469,42.532843272421 16.48740758167469,35.532843272421 19.16619160823032,29.06568654484199 24.11593907653615,24.115939076536158 30.58309580411516,21.437155049980532 37.58309580411516,21.437155049980532 44.05025253169417,24.11593907653616 49.0,29.065686544841995 51.678784026555626,35.532843272421005 51.678784026555626,42.532843272421005 49.0,49.000000000000014" stroke="black" style="fill-opacity:0;" /><polygon points="42.53284327242099,51.67878402655563 35.53284327242099,51.67878402655563 29.06568654484198,49.00000000000001 24.115939076536147,44.05025253169418 21.43715504998052,37.58309580411517 21.43715504998052,30.583095804115167 24.11593907653615,24.11593907653616 29.06568654484198,19.166191608230328 35.53284327242099,16.487407581674702 42.53284327242099,16.487407581674702 49.0,19.16619160823033 53.94974746830583,24.115939076536165 56.628531494861456,30.583095804115175 56.628531494861456,37.583095804115175 53.94974746830583,44.050252531694184 48.99999999999999,49.000000000000014" stroke="black" style="fill-opacity:0;" /><polygon points="42.0,49.0 35.53284327242099,46.321215973444374 30.583095804115157,41.371468505138544 27.90431177755953,34.904311777559535 27.90431177755953,27.904311777559535 30.58309580411516,21.43715504998053 35.53284327242099,16.487407581674695 42.0,13.808623555119068 49.0,13.808623555119066 55.46715672757901,16.487407581674695 60.41690419588484,21.437155049980525 63.095688222440465,27.904311777559535 63.095688222440465,34.904311777559535 60.41690419588484,41.371468505138544 55.467156727579,46.321215973444374 49.0,49.00000000000001" stroke="black" style="fill-opacity:0;" /><polygon points="42.53284327242099,46.321215973444374 37.58309580411516,41.371468505138544 34.904311777559535,34.904311777559535 34.904311777559535,27.904311777559535 37.58309580411517,21.43715504998053 42.532843272421,16.487407581674695 49.00000000000001,13.808623555119068 56.00000000000001,13.808623555119066 62.46715672757902,16.487407581674695 67.41690419588485,21.437155049980525 70.09568822244049,27.904311777559535 70.09568822244049,34.904311777559535 67.41690419588485,41.371468505138544 62.46715672757902,46.321215973444374 56.000000000000014,49.00000000000001 49.000000000000014,49.00000000000001" stroke="black" style="fill-opacity:0;" /><polygon points="44.05025253169417,44.05025253169417 41.371468505138544,37.58309580411516 41.371468505138544,30.58309580411516 44.05025253169418,24.115939076536154 49.00000000000001,19.16619160823032 55.46715672757902,16.487407581674695 62.46715672757902,16.487407581674695 68.93431345515802,19.166191608230324 73.88406092346385,24.115939076536158 76.56284495001948,30.583095804115167 76.56284495001948,37.58309580411517 73.88406092346385,44.05025253169418 68.93431345515802,49.00000000000001 62.46715672757902,51.67878402655564 55.46715672757902,51.67878402655564 49.00000000000001,49.000000000000014" stroke="black" style="fill-opacity:0;" /><polygon points="46.321215973444374,42.53284327242099 46.321215973444374,35.53284327242099 49.00000000000001,29.065686544841984 53.94974746830584,24.11593907653615 60.41690419588485,21.437155049980525 67.41690419588485,21.437155049980525 73.88406092346386,24.115939076536154 78.8338083917697,29.065686544841988 81.51259241832533,35.532843272421 81.51259241832533,42.532843272421 78.8338083917697,49.00000000000001 73.88406092346386,53.94974746830584 67.41690419588485,56.62853149486147 60.416904195884854,56.62853149486147 53.949747468305844,53.949747468305844 49.000000000000014,49.00000000000001" stroke="black" style="fill-opacity:0;" /><polygon points="49.0,42.0 51.67878402655563,35.53284327242099 56.62853149486146,30.583095804115157 63.09568822244047,27.90431177755953 70.09568822244047,27.90431177755953 76.56284495001948,30.58309580411516 81.51259241832531,35.53284327242099 84.19137644488094,42.0 84.19137644488094,49.0 81.51259241832531,55.46715672757901 76.56284495001948,60.41690419588484 70.09568822244047,63.09568822244047 63.09568822244047,63.09568822244047 56.62853149486146,60.41690419588484 51.67878402655563,55.467156727579 49.0,49.0" stroke="black" style="fill-opacity:0;" /><polygon points="51.67878402655563,42.53284327242099 56.62853149486146,37.58309580411516 63.09568822244047,34.904311777559535 70.09568822244047,34.904311777559535 76.56284495001948,37.58309580411517 81.51259241832531,42.532843272421 84.19137644488094,49.00000000000001 84.19137644488094,56.00000000000001 81.51259241832531,62.46715672757902 76.56284495001948,67.41690419588485 70.09568822244047,70.09568822244049 63.09568822244047,70.09568822244049 56.62853149486146,67.41690419588485 51.67878402655563,62.46715672757902 49.0,56.000000000000014 49.0,49.000000000000014" stroke="black" style="fill-opacity:0;" /><polygon points="53.94974746830583,44.05025253169417 60.41690419588484,41.371468505138544 67.41690419588484,41.371468505138544 73.88406092346385,44.05025253169418 78.83380839176968,49.00000000000001 81.51259241832531,55.46715672757902 81.51259241832531,62.46715672757902 78.83380839176968,68.93431345515802 73.88406092346385,73.88406092346385 67.41690419588484,76.56284495001948 60.41690419588484,76.56284495001948 53.94974746830583,73.88406092346385 49.0,68.93431345515802 46.32121597344437,62.46715672757902 46.32121597344437,55.46715672757902 48.99999999999999,49.00000000000001" stroke="black" style="fill-opacity:0;" /><polygon points="55.46715672757901,46.321215973444374 62.46715672757901,46.321215973444374 68.93431345515802,49.00000000000001 73.88406092346385,53.94974746830584 76.56284495001948,60.41690419588485 76.56284495001948,67.41690419588485 73.88406092346385,73.88406092346386 68.93431345515802,78.8338083917697 62.46715672757902,81.51259241832533 55.46715672757902,81.51259241832533 49.00000000000001,78.8338083917697 44.05025253169418,73.88406092346386 41.371468505138544,67.41690419588485 41.371468505138544,60.416904195884854 44.05025253169417,53.949747468305844 49.00000000000001,49.000000000000014" stroke="black" style="fill-opacity:0;" /></svg>