<?xml version="1.0" encoding="utf-8" ?>
<svg baseProfile="full" height="100%" preserveAspectRatio="xMinYMin meet" version="1.1" viewBox="0, 0, 150.0, 150.0" width="100%" xmlns="http://www.w3.org/2000/svg" xmlns:ev="http://www.w3.org/2001/xml-events" xmlns:xlink="http://www.w3.org/1999/xlink"><defs /><polygon points="97.00797962569857,72.60799295737246 88.40449250736832,68.46477192794708 86.27960666829478,59.15503878113499 92.23340448507224,51.68921246043325 101.78255476632486,51.68921246043325 107.73635258310233,59.15503878113499 105.6114667440288,68.46477192794708" stroke="black" style="fill-opacity:0;" /><polygon points="74.48375792813809,75.16864437646066 72.35887208906455,65.85891122964857 78.31266990584201,58.393084908946825 87.86182018709464,58.393084908946825 93.8156180038721,65.85891122964857 91.69073216479858,75.16864437646066 83.08724504646834,79.31186540588605" stroke="black" style="fill-opacity:0;" /><polygon points="58.438137509834334,59.155038781134984 64.3919353266118,51.68921246043324 73.94108560786442,51.68921246043324 79.89488342464189,59.155038781134984 77.76999758556836,68.46477192794708 69.16651046723813,72.60799295737247 60.56302334890788,68.46477192794708" stroke="black" style="fill-opacity:0;" /><polygon points="60.953797816777495,36.62574780269974 70.50294809803012,36.62574780269974 76.45674591480758,44.091574123401486 74.33186007573406,53.401307270213586 65.7283729574038,57.54452829963895 57.12488583907356,53.401307270213564 55.00000000000002,44.09157412340147" stroke="black" style="fill-opacity:0;" /><polygon points="80.13639532772099,24.54578706170076 86.09019314449846,32.0116133824025 83.96530730542493,41.3213465292146 75.36182018709468,45.46456755863996 66.75833306876444,41.32134652921458 64.6334472296909,32.01161338240249 70.58724504646838,24.54578706170075" stroke="black" style="fill-opacity:0;" /><polygon points="101.54104286324583,32.01161338240249 99.4161570241723,41.32134652921459 90.81266990584207,45.46456755863998 82.20918278751184,41.321346529214594 80.0842969484383,32.0116133824025 86.03809476521576,24.545787061700754 95.58724504646838,24.54578706170075" stroke="black" style="fill-opacity:0;" /><polygon points="109.04960425386318,53.401307270213586 100.44611713553293,57.54452829963895 91.8426300172027,53.401307270213564 89.71774417812915,44.09157412340147 95.67154199490663,36.625747802699735 105.22069227615926,36.62574780269973 111.17449009293674,44.09157412340147" stroke="black" style="fill-opacity:0;" /><polygon points="68.92073457923023,99.54184218100625 66.79584874015669,90.23210903419415 72.74964655693415,82.7662827134924 82.29879683818677,82.7662827134924 88.25259465496424,90.23210903419414 86.12770881589071,99.54184218100623 77.52422169756048,103.68506321043162" stroke="black" style="fill-opacity:0;" /><polygon points="52.87511416092647,83.52823658568057 58.82891197770394,76.06241026497882 68.37806225895656,76.06241026497882 74.33186007573403,83.52823658568056 72.2069742366605,92.83796973249265 63.603487118330264,96.98119076191804 55.00000000000002,92.83796973249267" stroke="black" style="fill-opacity:0;" /><polygon points="55.39077446786958,60.99894560724534 64.93992474912221,60.99894560724534 70.8937225658997,68.46477192794708 68.76883672682617,77.77450507475918 60.16534960849593,81.91772610418457 51.56186249016568,77.7745050747592 49.43697665109214,68.46477192794711" stroke="black" style="fill-opacity:0;" /><polygon points="74.57337197881307,48.91898486624633 80.52716979559054,56.38481118694808 78.40228395651701,65.69454433376018 69.79879683818677,69.83776536318557 61.19530971985653,65.69454433376018 59.07042388078299,56.384811186948085 65.02422169756045,48.91898486624633" stroke="black" style="fill-opacity:0;" /><polygon points="95.97801951433792,56.38481118694807 93.85313367526439,65.69454433376016 85.24964655693415,69.83776536318555 76.64615943860392,65.69454433376018 74.52127359953037,56.384811186948085 80.47507141630784,48.91898486624633 90.02422169756046,48.918984866246326" stroke="black" style="fill-opacity:0;" /><polygon points="103.48658090495526,77.77450507475916 94.88309378662501,81.91772610418452 86.27960666829478,77.77450507475913 84.15472082922123,68.46477192794704 90.10851864599871,60.998945607245304 99.65766892725134,60.9989456072453 105.6114667440288,68.46477192794704" stroke="black" style="fill-opacity:0;" /><polygon points="91.44495627679069,96.98119076191803 82.84146915846046,92.83796973249264 80.71658331938691,83.52823658568055 86.6703811361644,76.06241026497881 96.21953141741702,76.06241026497881 102.17332923419448,83.52823658568055 100.04844339512096,92.83796973249264" stroke="black" style="fill-opacity:0;" /><polygon points="30.35089246336599,94.37533006361953 36.30469028014346,86.90950374291778 45.85384056139609,86.90950374291778 51.807638378173564,94.37533006361951 49.68275253910003,103.68506321043161 41.07926542076979,107.828284239857 32.475778302439544,103.68506321043162" stroke="black" style="fill-opacity:0;" /><polygon points="32.866552770309106,71.84603908518429 42.415703051561735,71.84603908518429 48.369500868339216,79.31186540588602 46.24461502926568,88.62159855269812 37.64112791093544,92.76481958212351 29.03764079260519,88.62159855269815 26.912754953531646,79.31186540588605" stroke="black" style="fill-opacity:0;" /><polygon points="52.0491502812526,59.76607834418529 58.002948098030075,67.23190466488703 55.87806225895654,76.54163781169912 47.2745751406263,80.68485884112451 38.671088022296054,76.54163781169913 36.54620218322251,67.23190466488704 42.49999999999998,59.76607834418529" stroke="black" style="fill-opacity:0;" /><polygon points="73.45379781677744,67.23190466488703 71.32891197770391,76.54163781169912 62.725424859373675,80.68485884112451 54.12193774104343,76.54163781169913 51.99705190196989,67.23190466488704 57.95084971874736,59.76607834418529 67.49999999999999,59.76607834418528" stroke="black" style="fill-opacity:0;" /><polygon points="80.96235920739478,88.62159855269812 72.35887208906453,92.76481958212348 63.75538497073429,88.62159855269809 61.63049913166075,79.311865405886 67.58429694843822,71.84603908518426 77.13344722969084,71.84603908518426 83.08724504646833,79.311865405886" stroke="black" style="fill-opacity:0;" /><polygon points="68.92073457923023,107.82828423985701 60.31724746089998,103.68506321043165 58.192361621826436,94.37533006361956 64.1461594386039,86.9095037429178 73.69530971985652,86.9095037429178 79.649107536634,94.37533006361954 77.52422169756048,103.68506321043164" stroke="black" style="fill-opacity:0;" /><polygon points="46.39651288166976,110.38893565894526 44.271627042596215,101.07920251213316 50.22542485937367,93.6133761914314 59.7745751406263,93.6133761914314 65.72837295740379,101.07920251213314 63.60348711833028,110.38893565894524 55.000000000000036,114.53215668837062" stroke="black" style="fill-opacity:0;" /><polygon points="10.342331072748678,60.99894560724534 19.891481354001307,60.99894560724534 25.84527917077878,68.46477192794708 23.720393331705246,77.77450507475918 15.116906213374994,81.91772610418454 6.513419095044753,77.77450507475916 4.388533255971213,68.46477192794707" stroke="black" style="fill-opacity:0;" /><polygon points="29.524928583692166,48.91898486624633 35.47872640046964,56.38481118694808 33.353840561396105,65.69454433376018 24.750353443065865,69.83776536318557 16.146866324735626,65.69454433376018 14.021980485662086,56.384811186948085 19.97577830243955,48.91898486624633" stroke="black" style="fill-opacity:0;" /><polygon points="50.92957611921701,56.38481118694807 48.804690280143475,65.69454433376016 40.20120316181324,69.83776536318555 31.597716043482997,65.69454433376018 29.472830204409455,56.384811186948085 35.42662802118692,48.91898486624633 44.97577830243955,48.918984866246326" stroke="black" style="fill-opacity:0;" /><polygon points="58.43813750983434,77.77450507475916 49.83465039150409,81.91772610418452 41.23116327317385,77.77450507475913 39.106277434100306,68.46477192794704 45.06007525087779,60.998945607245304 54.60922553213042,60.9989456072453 60.56302334890789,68.46477192794704" stroke="black" style="fill-opacity:0;" /><polygon points="46.39651288166977,96.98119076191803 37.79302576333953,92.83796973249264 35.66813992426599,83.52823658568055 41.62193774104347,76.06241026497881 51.1710880222961,76.06241026497881 57.12488583907357,83.52823658568055 55.000000000000036,92.83796973249264" stroke="black" style="fill-opacity:0;" /><polygon points="23.872291184109315,99.5418421810063 21.747405345035773,90.23210903419421 27.701203161813226,82.76628271349244 37.250353443065855,82.76628271349244 43.20415125984334,90.23210903419418 41.07926542076983,99.54184218100629 32.475778302439586,103.68506321043166" stroke="black" style="fill-opacity:0;" /><polygon points="7.826670765805577,83.52823658568057 13.780468582583058,76.06241026497884 23.329618863835684,76.06241026497884 29.283416680613144,83.52823658568059 27.158530841539612,92.83796973249268 18.55504372320936,96.98119076191804 9.951556604879109,92.83796973249268" stroke="black" style="fill-opacity:0;" /><polygon points="23.96190523478434,24.545787061700768 29.915703051561813,32.01161338240251 27.790817212488278,41.32134652921461 19.18733009415803,45.46456755863997 10.583842975827787,41.32134652921459 8.458957136754247,32.01161338240249 14.412754953531728,24.54578706170075" stroke="black" style="fill-opacity:0;" /><polygon points="45.366552770309184,32.011613382402494 43.24166693123565,41.321346529214594 34.638179812905406,45.464567558639985 26.034692694575163,41.3213465292146 23.90980685550162,32.0116133824025 29.863604672279088,24.545787061700754 39.41275495353172,24.54578706170075" stroke="black" style="fill-opacity:0;" /><polygon points="52.87511416092652,53.40130727021359 44.27162704259627,57.544528299638955 35.66813992426603,53.40130727021357 33.54325408519249,44.09157412340147 39.49705190196997,36.625747802699735 49.0462021832226,36.62574780269973 55.00000000000007,44.09157412340147" stroke="black" style="fill-opacity:0;" /><polygon points="40.83348953276195,72.60799295737245 32.23000241443171,68.46477192794706 30.105116575358167,59.15503878113496 36.05891439213565,51.689212460433225 45.60806467338828,51.68921246043322 51.56186249016575,59.15503878113496 49.436976651092216,68.46477192794706" stroke="black" style="fill-opacity:0;" /><polygon points="18.309267835201467,75.16864437646063 16.184381996127943,65.85891122964853 22.138179812905424,58.39308490894679 31.68733009415805,58.39308490894678 37.64112791093551,65.85891122964854 35.516242071861974,75.16864437646063 26.912754953531724,79.311865405886" stroke="black" style="fill-opacity:0;" /><polygon points="2.2636474168977223,59.15503878113493 8.217445233675203,51.68921246043319 17.76659551492783,51.68921246043318 23.72039333170529,59.155038781134934 21.595507492631757,68.46477192794703 12.992020374301505,72.60799295737239 4.3885332559712555,68.46477192794703" stroke="black" style="fill-opacity:0;" /><polygon points="4.7793077238408435,36.62574780269969 14.32845800509347,36.625747802699685 20.282255821870958,44.091574123401415 18.157369982797427,53.401307270213515 9.553882864467182,57.54452829963889 0.9503957461369321,53.40130727021352 -1.1744900929366113,44.09157412340143" stroke="black" style="fill-opacity:0;" /><polygon points="60.9537978167775,12.465826320701737 58.82891197770397,21.775559467513837 50.22542485937373,25.918780496939227 41.62193774104349,21.775559467513844 39.49705190196995,12.465826320701748 45.45084971874741,4.999999999999999 55.00000000000004,4.999999999999995" stroke="black" style="fill-opacity:0;" /><polygon points="68.46235920739484,33.85552020851283 59.85887208906459,37.99874123793819 51.25538497073435,33.85552020851281 49.130499131660805,24.54578706170071 55.084296948438286,17.079960740998974 64.63344722969092,17.07996074099897 70.58724504646838,24.545787061700715" stroke="black" style="fill-opacity:0;" /><polygon points="56.420734579230285,53.06220589567172 47.817247460900035,48.91898486624635 45.69236162182649,39.609251719434255 51.64615943860396,32.143425398732504 61.19530971985659,32.1434253987325 67.14910753663408,39.609251719434226 65.02422169756055,48.918984866246326" stroke="black" style="fill-opacity:0;" /><polygon points="33.896512881669814,55.62285731475996 31.771627042596272,46.31312416794786 37.725424859373724,38.847297847246104 47.274575140626354,38.8472978472461 53.22837295740384,46.31312416794783 51.10348711833033,55.622857314759926 42.500000000000085,59.7660783441853" stroke="black" style="fill-opacity:0;" /><polygon points="17.850892463366076,39.60925171943425 23.804690280143557,32.14342539873251 33.35384056139618,32.143425398732504 39.30763837817364,39.609251719434255 37.18275253910011,48.918984866246355 28.579265420769858,53.06220589567172 19.975778302439608,48.91898486624635" stroke="black" style="fill-opacity:0;" /><polygon points="20.366552770309198,17.079960740999013 29.915703051561827,17.07996074099901 35.869500868339316,24.545787061700743 33.74461502926578,33.85552020851284 25.141127910935538,37.99874123793822 16.537640792605288,33.85552020851285 14.412754953531744,24.545787061700754" stroke="black" style="fill-opacity:0;" /><polygon points="39.549150281252686,5.000000000000003 45.50294809803016,12.465826320701744 43.378062258956625,21.775559467513844 34.77457514062638,25.91878049693922 26.171088022296132,21.775559467513855 24.04620218322259,12.465826320701758 30.00000000000003,4.999999999999988" stroke="black" style="fill-opacity:0;" /><polygon points="93.46235920739484,33.85552020851283 84.85887208906459,37.99874123793819 76.25538497073435,33.85552020851281 74.13049913166081,24.54578706170071 80.0842969484383,17.079960740998974 89.63344722969092,17.07996074099897 95.58724504646838,24.545787061700715" stroke="black" style="fill-opacity:0;" /><polygon points="81.42073457923027,53.06220589567168 72.81724746090003,48.9189848662463 70.69236162182649,39.6092517194342 76.64615943860397,32.14342539873246 86.1953097198566,32.143425398732454 92.14910753663406,39.6092517194342 90.02422169756053,48.9189848662463" stroke="black" style="fill-opacity:0;" /><polygon points="58.89651288166981,55.62285731475995 56.771627042596265,46.31312416794785 62.72542485937372,38.84729784724609 72.27457514062634,38.84729784724608 78.22837295740382,46.31312416794781 76.1034871183303,55.62285731475991 67.50000000000006,59.76607834418529" stroke="black" style="fill-opacity:0;" /><polygon points="42.850892463366065,39.60925171943423 48.80469028014355,32.1434253987325 58.353840561396176,32.14342539873249 64.30763837817364,39.60925171943424 62.1827525391001,48.91898486624634 53.57926542076985,53.0622058956717 44.9757783024396,48.91898486624633" stroke="black" style="fill-opacity:0;" /><polygon points="45.36655277030919,17.079960740999 54.91570305156182,17.079960740998995 60.86950086833931,24.54578706170073 58.74461502926577,33.85552020851283 50.14112791093553,37.998741237938205 41.53764079260528,33.855520208512836 39.41275495353174,24.54578706170074" stroke="black" style="fill-opacity:0;" /><polygon points="64.54915028125268,4.9999999999999885 70.50294809803015,12.46582632070173 68.37806225895662,21.77555946751383 59.774575140626375,25.918780496939206 51.171088022296125,21.77555946751384 49.04620218322258,12.465826320701744 55.00000000000002,4.999999999999973" stroke="black" style="fill-opacity:0;" /><polygon points="85.95379781677752,12.465826320701723 83.828911977704,21.775559467513823 75.22542485937375,25.9187804969392 66.6219377410435,21.775559467513833 64.49705190196995,12.465826320701737 70.45084971874739,4.999999999999966 80.00000000000001,4.999999999999959" stroke="black" style="fill-opacity:0;" /></svg>