<?xml version="1.0" encoding="utf-8" ?>
<svg baseProfile="full" height="100%" preserveAspectRatio="xMinYMin meet" version="1.1" viewBox="0, 0, 150.0, 150.0" width="100%" xmlns="http://www.w3.org/2000/svg" xmlns:ev="http://www.w3.org/2001/xml-events" xmlns:xlink="http://www.w3.org/1999/xlink"><defs /><line stroke="black" x1="5" x2="105.0" y1="5" y2="5.0" /><line stroke="black" x1="105.0" x2="105.0" y1="5.0" y2="105.0" /><line stroke="black" x1="105.0" x2="5.0" y1="105.0" y2="105.00000000000001" /><line stroke="black" x1="5.0" x2="4.999999999999981" y1="105.00000000000001" y2="5.000000000000014" /><line stroke="black" x1="24.999999999999982" x2="104.99999999999999" y1="5.000000000000014" y2="25.000000000000014" /><line stroke="black" x1="104.99999999999999" x2="84.99999999999999" y1="25.000000000000014" y2="105.00000000000001" /><line stroke="black" x1="84.99999999999999" x2="4.999999999999986" y1="105.00000000000001" y2="85.00000000000001" /><line stroke="black" x1="4.999999999999986" x2="25.00000000000005" y1="85.00000000000001" y2="5.000000000000028" /><line stroke="black" x1="41.00000000000005" x2="101.00000000000003" y1="9.000000000000037" y2="41.00000000000007" /><line stroke="black" x1="101.00000000000003" x2="69.0" y1="41.00000000000007" y2="101.00000000000006" /><line stroke="black" x1="69.0" x2="9.000000000000014" y1="101.00000000000006" y2="69.00000000000003" /><line stroke="black" x1="9.000000000000014" x2="41.000000000000064" y1="69.00000000000003" y2="9.00000000000005" /><line stroke="black" x1="53.00000000000006" x2="94.60000000000001" y1="15.400000000000063" y2="53.000000000000114" /><line stroke="black" x1="94.60000000000001" x2="56.999999999999964" y1="53.000000000000114" y2="94.60000000000008" /><line stroke="black" x1="56.999999999999964" x2="15.399999999999999" y1="94.60000000000008" y2="57.000000000000036" /><line stroke="black" x1="15.399999999999999" x2="53.00000000000007" y1="57.000000000000036" y2="15.400000000000105" /><line stroke="black" x1="61.320000000000064" x2="87.08" y1="22.92000000000012" y2="61.320000000000164" /><line stroke="black" x1="87.08" x2="48.67999999999996" y1="61.320000000000164" y2="87.0800000000001" /><line stroke="black" x1="48.67999999999996" x2="22.92000000000003" y1="87.0800000000001" y2="48.68000000000005" /><line stroke="black" x1="22.92000000000003" x2="61.32000000000008" y1="48.68000000000005" y2="22.920000000000122" /><line stroke="black" x1="66.47200000000007" x2="79.39999999999998" y1="30.600000000000136" y2="66.47200000000018" /><line stroke="black" x1="79.39999999999998" x2="43.52799999999995" y1="66.47200000000018" y2="79.4000000000001" /><line stroke="black" x1="43.52799999999995" x2="30.600000000000023" y1="79.4000000000001" y2="43.52800000000008" /><line stroke="black" x1="30.600000000000023" x2="66.47200000000007" y1="43.52800000000008" y2="30.60000000000018" /><line stroke="black" x1="69.05760000000005" x2="72.22559999999996" y1="37.774400000000185" y2="69.05760000000019" /><line stroke="black" x1="72.22559999999996" x2="40.94239999999995" y1="69.05760000000019" y2="72.22560000000011" /><line stroke="black" x1="40.94239999999995" x2="37.77440000000004" y1="72.22560000000011" y2="40.942400000000106" /><line stroke="black" x1="37.77440000000004" x2="69.05760000000005" y1="40.942400000000106" y2="37.7744000000002" /><line stroke="black" x1="69.69120000000002" x2="65.96895999999994" y1="44.0310400000002" y2="69.6912000000002" /><line stroke="black" x1="65.96895999999994" x2="40.308799999999955" y1="69.6912000000002" y2="65.96896000000011" /><line stroke="black" x1="40.308799999999955" x2="44.031040000000054" y1="65.96896000000011" y2="40.308800000000126" /><line stroke="black" x1="44.031040000000054" x2="69.69120000000004" y1="40.308800000000126" y2="44.031040000000225" /><line stroke="black" x1="68.94675200000002" x2="60.83692799999994" y1="49.16307200000022" y2="68.94675200000019" /><line stroke="black" x1="60.83692799999994" x2="41.053247999999975" y1="68.94675200000019" y2="60.83692800000011" /><line stroke="black" x1="41.053247999999975" x2="49.16307200000006" y1="60.83692800000011" y2="41.05324800000014" /><line stroke="black" x1="49.16307200000006" x2="68.94675200000002" y1="41.05324800000014" y2="49.16307200000023" /><line stroke="black" x1="67.3247872" x2="56.88019199999994" y1="53.11980800000022" y2="67.32478720000017" /><line stroke="black" x1="56.88019199999994" x2="42.67521279999998" y1="67.32478720000017" y2="56.88019200000011" /><line stroke="black" x1="42.67521279999998" x2="53.11980800000005" y1="56.88019200000011" y2="42.67521280000016" /><line stroke="black" x1="53.11980800000005" x2="67.32478719999999" y1="42.67521280000016" y2="53.11980800000023" /><line stroke="black" x1="65.23586815999998" x2="54.03919615999993" y1="55.960803840000224" y2="65.23586816000017" /><line stroke="black" x1="54.03919615999993" x2="44.76413183999999" y1="65.23586816000017" y2="54.03919616000012" /><line stroke="black" x1="44.76413183999999" x2="55.96080384000005" y1="54.03919616000012" y2="44.76413184000018" /><line stroke="black" x1="55.96080384000005" x2="65.23586815999998" y1="44.76413184000018" y2="55.96080384000023" /><line stroke="black" x1="62.99653375999997" x2="52.184183295999944" y1="57.81581670400022" y2="62.996533760000155" /><line stroke="black" x1="52.184183295999944" x2="47.00346624" y1="62.996533760000155" y2="52.18418329600013" /><line stroke="black" x1="47.00346624" x2="57.81581670400003" y1="52.18418329600013" y2="47.00346624000019" /><line stroke="black" x1="57.81581670400003" x2="62.99653375999996" y1="47.00346624000019" y2="57.81581670400023" /><line stroke="black" x1="60.834063667199956" x2="51.14803988479994" y1="58.851960115200214" y2="60.834063667200155" /><line stroke="black" x1="51.14803988479994" x2="49.16593633280001" y1="60.834063667200155" y2="51.14803988480014" /><line stroke="black" x1="49.16593633280001" x2="58.85196011520002" y1="51.14803988480014" y2="49.16593633280021" /><line stroke="black" x1="58.85196011520002" x2="60.834063667199956" y1="49.16593633280021" y2="58.85196011520022" /><line stroke="black" x1="58.896858910719956" x2="50.75161917439996" y1="59.24838082560021" y2="58.896858910720155" /><line stroke="black" x1="50.75161917439996" x2="51.10314108928002" y1="58.896858910720155" y2="50.75161917440016" /><line stroke="black" x1="51.10314108928002" x2="59.24838082560002" y1="50.75161917440016" y2="51.10314108928022" /><line stroke="black" x1="59.24838082560002" x2="58.89685891071996" y1="51.10314108928022" y2="59.24838082560022" /><line stroke="black" x1="57.267810963455965" x2="50.82192355737598" y1="59.17807644262421" y2="57.267810963456164" /><line stroke="black" x1="50.82192355737598" x2="52.732189036544035" y1="57.267810963456164" y2="50.82192355737618" /><line stroke="black" x1="52.732189036544035" x2="59.17807644262402" y1="50.82192355737618" y2="52.732189036544234" /><line stroke="black" x1="59.17807644262402" x2="57.26781096345597" y1="52.732189036544234" y2="59.17807644262422" /><line stroke="black" x1="55.97863348223998" x2="51.2039766532096" y1="58.796023346790605" y2="55.97863348224017" /><line stroke="black" x1="51.2039766532096" x2="54.02136651776004" y1="55.97863348224017" y2="51.20397665320979" /><line stroke="black" x1="54.02136651776004" x2="58.79602334679042" y1="51.20397665320979" y2="54.021366517760235" /><line stroke="black" x1="58.79602334679042" x2="55.97863348223998" y1="54.021366517760235" y2="58.79602334679061" /><line stroke="black" x1="55.0237021164339" x2="51.76745462611969" y1="58.23254537388053" y2="55.0237021164341" /><line stroke="black" x1="51.76745462611969" x2="54.97629788356612" y1="55.0237021164341" y2="51.76745462611989" /><line stroke="black" x1="54.97629788356612" x2="58.23254537388033" y1="51.76745462611989" y2="54.976297883566325" /><line stroke="black" x1="58.23254537388033" x2="55.023702116433896" y1="54.976297883566325" y2="58.232545373880534" /><line stroke="black" x1="54.37245261837106" x2="52.40922327760897" y1="57.59077672239125" y2="54.37245261837126" /><line stroke="black" x1="52.40922327760897" x2="55.62754738162896" y1="54.37245261837126" y2="52.40922327760918" /><line stroke="black" x1="55.62754738162896" x2="57.59077672239104" y1="52.40922327760918" y2="55.627547381629164" /><line stroke="black" x1="57.59077672239104" x2="54.37245261837106" y1="55.627547381629164" y2="57.59077672239125" /><line stroke="black" x1="53.97980675021864" x2="53.05288809841297" y1="56.94711190158725" y2="53.97980675021884" /><line stroke="black" x1="53.05288809841297" x2="56.02019324978138" y1="53.97980675021884" y2="53.05288809841318" /><line stroke="black" x1="56.02019324978138" x2="56.94711190158704" y1="53.05288809841318" y2="56.020193249781585" /><line stroke="black" x1="56.94711190158704" x2="53.979806750218636" y1="56.020193249781585" y2="56.94711190158725" /><line stroke="black" x1="53.794423019857504" x2="53.64634912868665" y1="56.35365087131357" y2="53.79442301985771" /><line stroke="black" x1="53.64634912868665" x2="56.20557698014251" y1="53.79442301985771" y2="53.64634912868686" /><line stroke="black" x1="56.20557698014251" x2="56.35365087131336" y1="53.64634912868686" y2="56.205576980142716" /><line stroke="black" x1="56.35365087131336" x2="53.794423019857504" y1="56.205576980142716" y2="56.35365087131357" /><line stroke="black" x1="53.764808241623335" x2="54.15819469897782" y1="55.8418053010224" y2="53.76480824162354" /><line stroke="black" x1="54.15819469897782" x2="56.23519175837668" y1="53.76480824162354" y2="54.15819469897803" /><line stroke="black" x1="56.23519175837668" x2="55.84180530102219" y1="54.15819469897803" y2="56.235191758376885" /><line stroke="black" x1="55.84180530102219" x2="53.764808241623335" y1="56.235191758376885" y2="55.8418053010224" /><line stroke="black" x1="53.84348553309423" x2="54.57359411085759" y1="55.42640588914263" y2="53.843485533094444" /><line stroke="black" x1="54.57359411085759" x2="56.156514466905776" y1="53.843485533094444" y2="54.573594110857805" /><line stroke="black" x1="56.156514466905776" x2="55.426405889142416" y1="54.573594110857805" y2="56.15651446690599" /><line stroke="black" x1="55.426405889142416" x2="53.84348553309423" y1="56.15651446690599" y2="55.42640588914263" /><line stroke="black" x1="53.9895072486469" x2="54.89017818206723" y1="55.10982181793299" y2="53.98950724864711" /><line stroke="black" x1="54.89017818206723" x2="56.01049275135311" y1="53.98950724864711" y2="54.89017818206744" /><line stroke="black" x1="56.01049275135311" x2="55.10982181793278" y1="54.89017818206744" y2="56.01049275135332" /><line stroke="black" x1="55.10982181793278" x2="53.9895072486469" y1="56.01049275135332" y2="55.10982181793299" /><line stroke="black" x1="54.169641435330966" x2="55.1142410959244" y1="54.885758904075814" y2="54.16964143533118" /><line stroke="black" x1="55.1142410959244" x2="55.830358564669034" y1="54.16964143533118" y2="55.11424109592461" /><line stroke="black" x1="55.830358564669034" x2="54.8857589040756" y1="55.11424109592461" y2="55.83035856466925" /><line stroke="black" x1="54.8857589040756" x2="54.169641435330966" y1="55.83035856466925" y2="54.885758904075814" /><line stroke="black" x1="54.35856136744965" x2="55.257464589673326" y1="54.74253541032689" y2="54.358561367449866" /><line stroke="black" x1="55.257464589673326" x2="55.64143863255035" y1="54.358561367449866" y2="55.25746458967354" /><line stroke="black" x1="55.64143863255035" x2="54.742535410326674" y1="55.25746458967354" y2="55.64143863255056" /><line stroke="black" x1="54.742535410326674" x2="54.35856136744965" y1="55.64143863255056" y2="54.74253541032689" /><line stroke="black" x1="54.538342011894386" x2="55.33425939824873" y1="54.66574060175148" y2="54.5383420118946" /><line stroke="black" x1="55.33425939824873" x2="55.461657988105614" y1="54.5383420118946" y2="55.334259398248946" /><line stroke="black" x1="55.461657988105614" x2="54.66574060175127" y1="55.334259398248946" y2="55.46165798810583" /><line stroke="black" x1="54.66574060175127" x2="54.538342011894386" y1="55.46165798810583" y2="54.66574060175148" /><line stroke="black" x1="54.69752548916526" x2="55.35973911622011" y1="54.6402608837801" y2="54.697525489165464" /><line stroke="black" x1="55.35973911622011" x2="55.30247451083475" y1="54.697525489165464" y2="55.35973911622032" /><line stroke="black" x1="55.30247451083475" x2="54.640260883779895" y1="55.35973911622032" y2="55.302474510834955" /><line stroke="black" x1="54.640260883779895" x2="54.69752548916526" y1="55.302474510834955" y2="54.6402608837801" /><line stroke="black" x1="54.829968214576226" x2="55.34828619514304" y1="54.651713804857174" y2="54.82996821457643" /><line stroke="black" x1="55.34828619514304" x2="55.17003178542378" y1="54.82996821457643" y2="55.348286195143245" /><line stroke="black" x1="55.17003178542378" x2="54.65171380485697" y1="55.348286195143245" y2="55.17003178542399" /><line stroke="black" x1="54.65171380485697" x2="54.829968214576226" y1="55.17003178542399" y2="54.651713804857174" /><line stroke="black" x1="54.93363181068959" x2="55.31263531319919" y1="54.687364686801025" y2="54.933631810689796" /><line stroke="black" x1="55.31263531319919" x2="55.06636818931042" y1="54.933631810689796" y2="55.312635313199394" /><line stroke="black" x1="55.06636818931042" x2="54.68736468680082" y1="55.312635313199394" y2="55.06636818931062" /><line stroke="black" x1="54.68736468680082" x2="54.93363181068959" y1="55.06636818931062" y2="54.687364686801025" /><line stroke="black" x1="55.00943251119151" x2="55.263381888421435" y1="54.73661811157878" y2="55.00943251119171" /><line stroke="black" x1="55.263381888421435" x2="54.9905674888085" y1="55.00943251119171" y2="55.263381888421634" /><line stroke="black" x1="54.9905674888085" x2="54.73661811157858" y1="55.263381888421634" y2="54.9905674888087" /><line stroke="black" x1="54.73661811157858" x2="55.00943251119151" y1="54.9905674888087" y2="54.73661811157878" /><line stroke="black" x1="55.0602223866375" x2="55.20881900849885" y1="54.79118099150136" y2="55.0602223866377" /><line stroke="black" x1="55.20881900849885" x2="54.939777613362516" y1="55.0602223866377" y2="55.20881900849905" /><line stroke="black" x1="54.939777613362516" x2="54.791180991501164" y1="55.20881900849905" y2="54.939777613362715" /><line stroke="black" x1="54.791180991501164" x2="55.0602223866375" y1="54.939777613362715" y2="54.79118099150136" /><line stroke="black" x1="55.08994171100977" x2="55.155010729471584" y1="54.84498927052863" y2="55.08994171100996" /><line stroke="black" x1="55.155010729471584" x2="54.91005828899025" y1="55.08994171100996" y2="55.155010729471776" /><line stroke="black" x1="54.91005828899025" x2="54.84498927052844" y1="55.155010729471776" y2="54.91005828899044" /><line stroke="black" x1="54.84498927052844" x2="55.08994171100977" y1="54.91005828899044" y2="54.84498927052863" /><line stroke="black" x1="55.10295551470213" x2="55.10602024137531" y1="54.893979758624894" y2="55.10295551470232" /><line stroke="black" x1="55.10602024137531" x2="54.89704448529788" y1="55.10295551470232" y2="55.106020241375504" /><line stroke="black" x1="54.89704448529788" x2="54.8939797586247" y1="55.106020241375504" y2="54.897044485298075" /><line stroke="black" x1="54.8939797586247" x2="55.10295551470213" y1="54.897044485298075" y2="54.893979758624894" /><line stroke="black" x1="55.10356846003677" x2="55.06422509015983" y1="54.93577490984038" y2="55.10356846003697" /><line stroke="black" x1="55.06422509015983" x2="54.896431539963245" y1="55.10356846003697" y2="55.06422509016003" /><line stroke="black" x1="54.896431539963245" x2="54.935774909840184" y1="55.06422509016003" y2="54.896431539963444" /><line stroke="black" x1="54.935774909840184" x2="55.10356846003677" y1="54.896431539963444" y2="54.93577490984038" /><line stroke="black" x1="55.09569978606138" x2="55.030666380120515" y1="54.9693336198797" y2="55.09569978606157" /><line stroke="black" x1="55.030666380120515" x2="54.90430021393864" y1="55.09569978606157" y2="55.03066638012071" /><line stroke="black" x1="54.90430021393864" x2="54.96933361987951" y1="55.03066638012071" y2="54.904300213938825" /><line stroke="black" x1="54.96933361987951" x2="55.09569978606138" y1="54.904300213938825" y2="54.96933361987969" /><line stroke="black" x1="55.08269310487321" x2="55.00539314688414" y1="54.99460685311607" y2="55.0826931048734" /><line stroke="black" x1="55.00539314688414" x2="54.917306895126806" y1="55.0826931048734" y2="55.00539314688433" /><line stroke="black" x1="54.917306895126806" x2="54.994606853115876" y1="55.00539314688433" y2="54.917306895127" /><line stroke="black" x1="54.994606853115876" x2="55.08269310487321" y1="54.917306895127" y2="54.99460685311607" /><line stroke="black" x1="55.06723311327539" x2="54.98777589653267" y1="55.01222410346753" y2="55.06723311327558" /><line stroke="black" x1="54.98777589653267" x2="54.93276688672462" y1="55.06723311327558" y2="54.98777589653285" /><line stroke="black" x1="54.93276688672462" x2="55.01222410346735" y1="54.98777589653285" y2="54.93276688672481" /><line stroke="black" x1="55.01222410346735" x2="55.06723311327539" y1="54.93276688672481" y2="55.01222410346753" /><line stroke="black" x1="55.05134166992685" x2="54.97677409457106" y1="55.02322590542914" y2="55.05134166992704" /><line stroke="black" x1="54.97677409457106" x2="54.948658330073165" y1="55.05134166992704" y2="54.976774094571255" /><line stroke="black" x1="54.948658330073165" x2="55.02322590542895" y1="54.976774094571255" y2="54.94865833007336" /><line stroke="black" x1="55.02322590542895" x2="55.05134166992685" y1="54.94865833007336" y2="55.02322590542914" /><line stroke="black" x1="55.03642815485569" x2="54.97115094167148" y1="55.028849058328724" y2="55.036428154855884" /><line stroke="black" x1="54.97115094167148" x2="54.96357184514432" y1="55.036428154855884" y2="54.971150941671674" /><line stroke="black" x1="54.96357184514432" x2="55.02884905832853" y1="54.971150941671674" y2="54.963571845144514" /><line stroke="black" x1="55.02884905832853" x2="55.03642815485569" y1="54.963571845144514" y2="55.028849058328724" /><line stroke="black" x1="55.02337271221885" x2="54.96963512236605" y1="55.030364877634156" y2="55.02337271221904" /><line stroke="black" x1="54.96963512236605" x2="54.97662728778116" y1="55.02337271221904" y2="54.96963512236624" /><line stroke="black" x1="54.97662728778116" x2="55.030364877633964" y1="54.96963512236624" y2="54.976627287781355" /><line stroke="black" x1="55.030364877633964" x2="55.02337271221885" y1="54.976627287781355" y2="55.030364877634156" /><line stroke="black" x1="55.012625194248294" x2="54.971033555449075" y1="55.02896644455113" y2="55.01262519424848" /><line stroke="black" x1="54.971033555449075" x2="54.98737480575173" y1="55.01262519424848" y2="54.97103355544926" /><line stroke="black" x1="54.98737480575173" x2="55.028966444550946" y1="54.97103355544926" y2="54.98737480575191" /><line stroke="black" x1="55.028966444550946" x2="55.012625194248294" y1="54.98737480575191" y2="55.02896644455113" /><line stroke="black" x1="55.00430686648845" x2="54.974301805509604" y1="55.0256981944906" y2="55.00430686648863" /><line stroke="black" x1="54.974301805509604" x2="54.99569313351157" y1="55.00430686648863" y2="54.97430180550979" /><line stroke="black" x1="54.99569313351157" x2="55.02569819449042" y1="54.97430180550979" y2="54.99569313351176" /><line stroke="black" x1="55.02569819449042" x2="55.00430686648845" y1="54.99569313351176" y2="55.0256981944906" /><line stroke="black" x1="54.99830585429268" x2="54.97858007111" y1="55.02141992889021" y2="54.99830585429287" /><line stroke="black" x1="54.97858007111" x2="55.00169414570734" y1="54.99830585429287" y2="54.978580071110194" /><line stroke="black" x1="55.00169414570734" x2="55.02141992889002" y1="54.978580071110194" y2="55.00169414570753" /><line stroke="black" x1="55.02141992889002" x2="54.99830585429268" y1="55.00169414570753" y2="55.02141992889021" /><line stroke="black" x1="54.99436069765615" x2="54.983202886029474" y1="55.016797113970746" y2="54.99436069765634" /><line stroke="black" x1="54.983202886029474" x2="55.00563930234388" y1="54.99436069765634" y2="54.983202886029666" /><line stroke="black" x1="55.00563930234388" x2="55.016797113970554" y1="54.983202886029666" y2="55.00563930234407" /><line stroke="black" x1="55.016797113970554" x2="54.99436069765615" y1="55.00563930234407" y2="55.016797113970746" /><line stroke="black" x1="54.99212913533081" x2="54.98769016929236" y1="55.01230983070786" y2="54.992129135331" /><line stroke="black" x1="54.98769016929236" x2="55.00787086466922" y1="54.992129135331" y2="54.98769016929254" /><line stroke="black" x1="55.00787086466922" x2="55.01230983070768" y1="54.98769016929254" y2="55.00787086466941" /><line stroke="black" x1="55.01230983070768" x2="54.99212913533081" y1="55.00787086466941" y2="55.01230983070786" /><line stroke="black" x1="54.991241342123125" x2="54.99172630836773" y1="55.00827369163249" y2="54.99124134212331" /><line stroke="black" x1="54.99172630836773" x2="55.00875865787691" y1="54.99124134212331" y2="54.991726308367916" /><line stroke="black" x1="55.00875865787691" x2="55.008273691632304" y1="54.991726308367916" y2="55.008758657877095" /><line stroke="black" x1="55.008273691632304" x2="54.991241342123125" y1="55.008758657877095" y2="55.00827369163249" /><line stroke="black" x1="54.99133833537205" x2="54.99513277826957" y1="55.004867221730656" y2="54.991338335372234" /><line stroke="black" x1="54.99513277826957" x2="55.008661664627994" y1="54.991338335372234" y2="54.995132778269756" /><line stroke="black" x1="55.008661664627994" x2="55.00486722173047" y1="54.995132778269756" y2="55.00866166462818" /><line stroke="black" x1="55.00486722173047" x2="54.99133833537205" y1="55.00866166462818" y2="55.004867221730656" /><line stroke="black" x1="54.99209722395155" x2="54.99783855554126" y1="55.00216144445897" y2="54.99209722395173" /><line stroke="black" x1="54.99783855554126" x2="55.007902776048496" y1="54.99209722395173" y2="54.997838555541435" /><line stroke="black" x1="55.007902776048496" x2="55.00216144445879" y1="54.997838555541435" y2="55.007902776048674" /><line stroke="black" x1="55.00216144445879" x2="54.99209722395155" y1="55.007902776048674" y2="55.00216144445897" /><line stroke="black" x1="54.993245490269494" x2="54.9998513996427" y1="55.00014860035752" y2="54.99324549026967" /><line stroke="black" x1="54.9998513996427" x2="55.00675450973055" y1="54.99324549026967" y2="54.99985139964288" /><line stroke="black" x1="55.00675450973055" x2="55.00014860035734" y1="54.99985139964288" y2="55.006754509730726" /><line stroke="black" x1="55.00014860035734" x2="54.993245490269494" y1="55.006754509730726" y2="55.00014860035752" /><line stroke="black" x1="54.99456667214414" x2="55.00123202166027" y1="54.99876797833995" y2="54.99456667214431" /><line stroke="black" x1="55.00123202166027" x2="55.00543332785591" y1="54.99456667214431" y2="55.00123202166044" /><line stroke="black" x1="55.00543332785591" x2="54.99876797833978" y1="55.00123202166044" y2="55.00543332785608" /><line stroke="black" x1="54.99876797833978" x2="54.99456667214414" y1="55.00543332785608" y2="54.99876797833995" /><line stroke="black" x1="54.995899742047364" x2="55.0020722828994" y1="54.99792771710082" y2="54.99589974204754" /><line stroke="black" x1="55.0020722828994" x2="55.00410025795268" y1="54.99589974204754" y2="55.002072282899576" /><line stroke="black" x1="55.00410025795268" x2="54.997927717100644" y1="55.002072282899576" y2="55.00410025795286" /><line stroke="black" x1="54.997927717100644" x2="54.995899742047364" y1="55.00410025795286" y2="54.99792771710082" /><line stroke="black" x1="54.99713425021777" x2="55.00247787791005" y1="54.99752212209017" y2="54.99713425021795" /><line stroke="black" x1="55.00247787791005" x2="55.00286574978227" y1="54.99713425021795" y2="55.00247787791023" /><line stroke="black" x1="55.00286574978227" x2="54.99752212208999" y1="55.00247787791023" y2="55.00286574978245" /><line stroke="black" x1="54.99752212208999" x2="54.99713425021777" y1="55.00286574978245" y2="54.99752212209017" /><line stroke="black" x1="54.99820297575623" x2="55.002555452284504" y1="54.99744454771572" y2="54.998202975756406" /><line stroke="black" x1="55.002555452284504" x2="55.00179702424382" y1="54.998202975756406" y2="55.00255545228468" /><line stroke="black" x1="55.00179702424382" x2="54.997444547715546" y1="55.00255545228468" y2="55.001797024244" /><line stroke="black" x1="54.997444547715546" x2="54.99820297575623" y1="55.001797024244" y2="54.99744454771572" /><line stroke="black" x1="54.999073471061884" x2="55.002403766676366" y1="54.99759623332386" y2="54.99907347106206" /><line stroke="black" x1="55.002403766676366" x2="55.000926528938166" y1="54.99907347106206" y2="55.002403766676544" /><line stroke="black" x1="55.000926528938166" x2="54.997596233323684" y1="55.002403766676544" y2="55.00092652893834" /><line stroke="black" x1="54.997596233323684" x2="54.999073471061884" y1="55.00092652893834" y2="54.99759623332386" /><line stroke="black" x1="54.99973953018478" x2="55.00210831912873" y1="54.997891680871504" y2="54.99973953018496" /><line stroke="black" x1="55.00210831912873" x2="55.000260469815274" y1="54.99973953018496" y2="55.00210831912891" /><line stroke="black" x1="55.000260469815274" x2="54.99789168087133" y1="55.00210831912891" y2="55.00026046981545" /><line stroke="black" x1="54.99789168087133" x2="54.99973953018478" y1="55.00026046981545" y2="54.997891680871504" /><line stroke="black" x1="55.00021328797357" x2="55.00173874926604" y1="54.998261250734195" y2="55.00021328797375" /><line stroke="black" x1="55.00173874926604" x2="54.999786712026484" y1="55.00021328797375" y2="55.00173874926622" /><line stroke="black" x1="54.999786712026484" x2="54.99826125073402" y1="55.00173874926622" y2="54.99978671202666" /><line stroke="black" x1="54.99826125073402" x2="55.00021328797357" y1="54.99978671202666" y2="54.998261250734195" /><line stroke="black" x1="55.000518380232066" x2="55.00134834181813" y1="54.998651658182105" y2="55.00051838023224" /><line stroke="black" x1="55.00134834181813" x2="54.99948161976799" y1="55.00051838023224" y2="55.00134834181831" /><line stroke="black" x1="54.99948161976799" x2="54.99865165818193" y1="55.00134834181831" y2="54.99948161976817" /><line stroke="black" x1="54.99865165818193" x2="55.000518380232066" y1="54.99948161976817" y2="54.998651658182105" /><line stroke="black" x1="55.00068437254928" x2="55.0009749974081" y1="54.999025002592134" y2="55.00068437254946" /><line stroke="black" x1="55.0009749974081" x2="54.99931562745078" y1="55.00068437254946" y2="55.00097499740828" /><line stroke="black" x1="54.99931562745078" x2="54.99902500259196" y1="55.00097499740828" y2="54.999315627450954" /><line stroke="black" x1="54.99902500259196" x2="55.00068437254928" y1="54.999315627450954" y2="54.999025002592134" /><line stroke="black" x1="55.000742497521045" x2="55.00064312341664" y1="54.9993568765836" y2="55.000742497521216" /><line stroke="black" x1="55.00064312341664" x2="54.99925750247902" y1="55.000742497521216" y2="55.00064312341681" /><line stroke="black" x1="54.99925750247902" x2="54.99935687658343" y1="55.00064312341681" y2="54.99925750247919" /><line stroke="black" x1="54.99935687658343" x2="55.000742497521045" y1="54.99925750247919" y2="54.9993568765836" /><line stroke="black" x1="55.00072262270017" x2="55.00036599922912" y1="54.999634000771124" y2="55.00072262270034" /><line stroke="black" x1="55.00036599922912" x2="54.999277377299904" y1="55.00072262270034" y2="55.00036599922929" /><line stroke="black" x1="54.999277377299904" x2="54.99963400077095" y1="55.00036599922929" y2="54.999277377300075" /><line stroke="black" x1="54.99963400077095" x2="55.00072262270017" y1="54.999277377300075" y2="54.999634000771124" /><line stroke="black" x1="55.000651298005955" x2="55.00014827484327" y1="54.999851725156965" y2="55.000651298006126" /><line stroke="black" x1="55.00014827484327" x2="54.99934870199411" y1="55.000651298006126" y2="55.00014827484344" /><line stroke="black" x1="54.99934870199411" x2="54.999851725156795" y1="55.00014827484344" y2="54.99934870199428" /><line stroke="black" x1="54.999851725156795" x2="55.000651298005955" y1="54.99934870199428" y2="54.999851725156965" /><line stroke="black" x1="55.00055069337342" x2="54.99998836027344" y1="55.0000116397268" y2="55.00055069337359" /><line stroke="black" x1="54.99998836027344" x2="54.99944930662665" y1="55.00055069337359" y2="54.99998836027361" /><line stroke="black" x1="54.99944930662665" x2="55.00001163972663" y1="54.99998836027361" y2="54.99944930662682" /><line stroke="black" x1="55.00001163972663" x2="55.00055069337342" y1="54.99944930662682" y2="55.0000116397268" /><line stroke="black" x1="55.000438226753424" x2="54.99988054954408" y1="55.00011945045616" y2="55.0004382267536" /><line stroke="black" x1="54.99988054954408" x2="54.99956177324664" y1="55.0004382267536" y2="54.99988054954426" /><line stroke="black" x1="54.99956177324664" x2="55.00011945045598" y1="54.99988054954426" y2="54.99956177324682" /><line stroke="black" x1="55.00011945045598" x2="55.000438226753424" y1="54.99956177324682" y2="55.00011945045616" /><line stroke="black" x1="55.00032669131156" x2="54.9998167942846" y1="55.00018320571565" y2="55.000326691311734" /><line stroke="black" x1="54.9998167942846" x2="54.999673308688514" y1="55.000326691311734" y2="54.999816794284776" /><line stroke="black" x1="54.999673308688514" x2="55.00018320571547" y1="54.999816794284776" y2="54.99967330868869" /><line stroke="black" x1="55.00018320571547" x2="55.00032669131156" y1="54.99967330868869" y2="55.00018320571565" /><line stroke="black" x1="55.000224711906164" x2="54.99978809716538" y1="55.00021190283487" y2="55.00022471190634" /><line stroke="black" x1="54.99978809716538" x2="54.99977528809391" y1="55.00022471190634" y2="54.999788097165556" /><line stroke="black" x1="54.99977528809391" x2="55.00021190283469" y1="54.999788097165556" y2="54.999775288094085" /><line stroke="black" x1="55.00021190283469" x2="55.000224711906164" y1="54.999775288094085" y2="55.00021190283487" /><line stroke="black" x1="55.00013738895801" x2="54.99978553535109" y1="55.00021446464916" y2="55.00013738895819" /><line stroke="black" x1="54.99978553535109" x2="54.99986261104206" y1="55.00013738895819" y2="54.999785535351265" /><line stroke="black" x1="54.99986261104206" x2="55.000214464648984" y1="54.999785535351265" y2="54.99986261104224" /><line stroke="black" x1="55.000214464648984" x2="55.00013738895801" y1="54.99986261104224" y2="55.00021446464916" /><line stroke="black" x1="55.00006701823663" x2="54.99980095048929" y1="55.00019904951097" y2="55.0000670182368" /><line stroke="black" x1="54.99980095048929" x2="54.99993298176346" y1="55.0000670182368" y2="54.99980095048946" /><line stroke="black" x1="54.99993298176346" x2="55.0001990495108" y1="54.99980095048946" y2="54.99993298176363" /><line stroke="black" x1="55.0001990495108" x2="55.00006701823663" y1="54.99993298176363" y2="55.00019904951097" /><line stroke="black" x1="55.00001380468716" x2="54.99982735674411" y1="55.000172643256136" y2="55.000013804687335" /><line stroke="black" x1="54.99982735674411" x2="54.999986195312914" y1="55.000013804687335" y2="54.99982735674429" /><line stroke="black" x1="54.999986195312914" x2="55.00017264325596" y1="54.99982735674429" y2="54.99998619531309" /><line stroke="black" x1="55.00017264325596" x2="55.00001380468716" y1="54.99998619531309" y2="55.000172643256136" /><line stroke="black" x1="54.999976515098545" x2="54.99985912445787" y1="55.00014087554238" y2="54.99997651509873" /><line stroke="black" x1="54.99985912445787" x2="55.00002348490152" y1="54.99997651509873" y2="54.999859124458055" /><line stroke="black" x1="55.00002348490152" x2="55.00014087554219" y1="54.999859124458055" y2="55.0000234849017" /><line stroke="black" x1="55.00014087554219" x2="54.999976515098545" y1="55.0000234849017" y2="55.00014087554238" /><line stroke="black" x1="54.99995303697041" x2="54.9998919965466" y1="55.00010800345365" y2="54.999953036970595" /><line stroke="black" x1="54.9998919965466" x2="55.000046963029654" y1="54.999953036970595" y2="54.999891996546786" /><line stroke="black" x1="55.000046963029654" x2="55.00010800345346" y1="54.999891996546786" y2="55.00004696302984" /><line stroke="black" x1="55.00010800345346" x2="54.99995303697041" y1="55.00004696302984" y2="55.00010800345365" /><line stroke="black" x1="54.99994082888565" x2="54.99992298984321" y1="55.000077010157035" y2="54.99994082888583" /><line stroke="black" x1="54.99992298984321" x2="55.000059171114415" y1="54.99994082888583" y2="54.9999229898434" /><line stroke="black" x1="55.000059171114415" x2="55.00007701015685" y1="54.9999229898434" y2="55.0000591711146" /><line stroke="black" x1="55.00007701015685" x2="54.99994082888565" y1="55.0000591711146" y2="55.000077010157035" /><line stroke="black" x1="54.999937261077164" x2="54.999950226097454" y1="55.000049773902795" y2="54.99993726107734" /><line stroke="black" x1="54.999950226097454" x2="55.00006273892291" y1="54.99993726107734" y2="54.99995022609763" /><line stroke="black" x1="55.00006273892291" x2="55.00004977390262" y1="54.99995022609763" y2="55.000062738923084" /><line stroke="black" x1="55.00004977390262" x2="54.999937261077164" y1="55.000062738923084" y2="55.000049773902795" /><line stroke="black" x1="54.99993985408122" x2="54.99997272866254" y1="55.00002727133771" y2="54.999939854081404" /><line stroke="black" x1="54.99997272866254" x2="55.000060145918845" y1="54.999939854081404" y2="54.999972728662726" /><line stroke="black" x1="55.000060145918845" x2="55.00002727133752" y1="54.999972728662726" y2="55.00006014591903" /><line stroke="black" x1="55.00002727133752" x2="54.99993985408122" y1="55.00006014591903" y2="55.00002727133771" /><line stroke="black" x1="54.99994642899748" x2="54.9999902121138" y1="55.00000978788645" y2="54.999946428997674" /><line stroke="black" x1="54.9999902121138" x2="55.000053571002574" y1="54.999946428997674" y2="54.99999021211399" /><line stroke="black" x1="55.000053571002574" x2="55.000009787886256" y1="54.99999021211399" y2="55.000053571002766" /><line stroke="black" x1="55.000009787886256" x2="54.99994642899748" y1="55.000053571002766" y2="55.00000978788645" /><line stroke="black" x1="54.99995518562075" x2="55.00000288389156" y1="54.999997116108695" y2="54.999955185620934" /><line stroke="black" x1="55.00000288389156" x2="55.00004481437932" y1="54.999955185620934" y2="55.000002883891746" /><line stroke="black" x1="55.00004481437932" x2="54.99999711610851" y1="55.000002883891746" y2="55.00004481437951" /><line stroke="black" x1="54.99999711610851" x2="54.99995518562075" y1="55.00004481437951" y2="54.999997116108695" /><line stroke="black" x1="54.999964725274914" x2="55.000011269989116" y1="54.99998873001114" y2="54.9999647252751" /><line stroke="black" x1="55.000011269989116" x2="55.00003527472516" y1="54.9999647252751" y2="55.0000112699893" /><line stroke="black" x1="55.00003527472516" x2="54.999988730010955" y1="55.0000112699893" y2="55.00003527472534" /><line stroke="black" x1="54.999988730010955" x2="54.999964725274914" y1="55.00003527472534" y2="54.99998873001114" /><line stroke="black" x1="54.99997403421776" x2="55.000016070936326" y1="54.99998392906393" y2="54.999974034217935" /><line stroke="black" x1="55.000016070936326" x2="55.00002596578232" y1="54.999974034217935" y2="55.0000160709365" /><line stroke="black" x1="55.00002596578232" x2="54.99998392906375" y1="55.0000160709365" y2="55.0000259657825" /><line stroke="black" x1="54.99998392906375" x2="54.99997403421776" y1="55.0000259657825" y2="54.99998392906393" /><line stroke="black" x1="54.99998244156147" x2="55.00001804990553" y1="54.99998195009473" y2="54.99998244156165" /><line stroke="black" x1="55.00001804990553" x2="55.00001755843861" y1="54.99998244156165" y2="55.000018049905705" /><line stroke="black" x1="55.00001755843861" x2="54.99998195009455" y1="55.000018049905705" y2="55.000017558438785" /><line stroke="black" x1="54.99998195009455" x2="54.99998244156147" y1="55.000017558438785" y2="54.99998195009473" /><line stroke="black" x1="54.99998956323028" x2="55.000017951612136" y1="54.99998204838811" y2="54.99998956323046" /><line stroke="black" x1="55.000017951612136" x2="55.00001043676979" y1="54.99998956323046" y2="55.000017951612314" /><line stroke="black" x1="55.00001043676979" x2="54.999982048387935" y1="55.000017951612314" y2="55.00001043676997" /><line stroke="black" x1="54.999982048387935" x2="54.99998956323028" y1="55.00001043676997" y2="54.99998204838811" /><line stroke="black" x1="54.99999524090665" x2="55.00001644864367" y1="54.99998355135658" y2="54.99999524090683" /><line stroke="black" x1="55.00001644864367" x2="55.00000475909342" y1="54.99999524090683" y2="55.00001644864385" /><line stroke="black" x1="55.00000475909342" x2="54.9999835513564" y1="55.00001644864385" y2="55.0000047590936" /><line stroke="black" x1="54.9999835513564" x2="54.99999524090665" y1="55.0000047590936" y2="54.99998355135658" /><line stroke="black" x1="54.99999948245405" x2="55.000014110733616" y1="54.999985889266625" y2="54.99999948245423" /><line stroke="black" x1="55.000014110733616" x2="55.00000051754601" y1="54.99999948245423" y2="55.000014110733794" /><line stroke="black" x1="55.00000051754601" x2="54.99998588926645" y1="55.000014110733794" y2="55.00000051754619" /><line stroke="black" x1="54.99998588926645" x2="54.99999948245405" y1="55.00000051754619" y2="54.999985889266625" /><line stroke="black" x1="55.000002408109964" x2="55.0000113920961" y1="54.99998860790414" y2="55.00000240811014" /><line stroke="black" x1="55.0000113920961" x2="54.9999975918901" y1="55.00000240811014" y2="55.000011392096276" /><line stroke="black" x1="54.9999975918901" x2="54.999988607903965" y1="55.000011392096276" y2="54.99999759189028" /><line stroke="black" x1="54.999988607903965" x2="55.000002408109964" y1="54.99999759189028" y2="54.99998860790414" /><line stroke="black" x1="55.00000420490719" x2="55.0000086320549" y1="54.99999136794534" y2="55.00000420490736" /><line stroke="black" x1="55.0000086320549" x2="54.99999579509288" y1="55.00000420490736" y2="55.00000863205507" /><line stroke="black" x1="54.99999579509288" x2="54.99999136794517" y1="55.00000863205507" y2="54.99999579509305" /><line stroke="black" x1="54.99999136794517" x2="55.00000420490719" y1="54.99999579509305" y2="54.99999136794534" /><line stroke="black" x1="55.000005090336735" x2="55.00000606466249" y1="54.99999393533775" y2="55.000005090336906" /><line stroke="black" x1="55.00000606466249" x2="54.999994909663336" y1="55.000005090336906" y2="55.000006064662664" /><line stroke="black" x1="54.999994909663336" x2="54.99999393533758" y1="55.000006064662664" y2="54.999994909663506" /><line stroke="black" x1="54.99999393533758" x2="55.000005090336735" y1="54.999994909663506" y2="54.99999393533775" /><line stroke="black" x1="55.00000528520189" x2="55.00000383366266" y1="54.99999616633758" y2="55.00000528520206" /><line stroke="black" x1="55.00000383366266" x2="54.999994714798184" y1="55.00000528520206" y2="55.00000383366283" /><line stroke="black" x1="54.999994714798184" x2="54.99999616633741" y1="55.00000383366283" y2="54.999994714798355" /><line stroke="black" x1="54.99999616633741" x2="55.00000528520189" y1="54.999994714798355" y2="54.99999616633758" /><line stroke="black" x1="55.00000499489404" x2="55.00000200988977" y1="54.99999799011048" y2="55.00000499489422" /><line stroke="black" x1="55.00000200988977" x2="54.99999500510603" y1="55.00000499489422" y2="55.00000200988995" /><line stroke="black" x1="54.99999500510603" x2="54.9999979901103" y1="55.00000200988995" y2="54.99999500510621" /><line stroke="black" x1="54.9999979901103" x2="55.00000499489404" y1="54.99999500510621" y2="54.99999799011048" /><line stroke="black" x1="55.000004397893186" x2="55.00000060893302" y1="54.99999939106723" y2="55.00000439789336" /><line stroke="black" x1="55.00000060893302" x2="54.999995602106885" y1="55.00000439789336" y2="55.0000006089332" /><line stroke="black" x1="54.999995602106885" x2="54.99999939106705" y1="55.0000006089332" y2="54.99999560210706" /><line stroke="black" x1="54.99999939106705" x2="55.000004397893186" y1="54.99999560210706" y2="54.99999939106723" /><line stroke="black" x1="55.000003640101156" x2="54.999999607567794" y1="55.000000392432455" y2="55.00000364010133" /><line stroke="black" x1="54.999999607567794" x2="54.999996359898915" y1="55.00000364010133" y2="54.99999960756797" /><line stroke="black" x1="54.999996359898915" x2="55.00000039243228" y1="54.99999960756797" y2="54.99999635989909" /><line stroke="black" x1="55.00000039243228" x2="55.000003640101156" y1="54.99999635989909" y2="55.000000392432455" /><line stroke="black" x1="55.000002833594486" x2="54.99999895803402" y1="55.00000104196623" y2="55.00000283359466" /><line stroke="black" x1="54.99999895803402" x2="54.99999716640559" y1="55.00000283359466" y2="54.99999895803419" /><line stroke="black" x1="54.99999716640559" x2="55.00000104196606" y1="54.99999895803419" y2="54.99999716640576" /><line stroke="black" x1="55.00000104196606" x2="55.000002833594486" y1="54.99999716640576" y2="55.00000104196623" /><line stroke="black" x1="55.000002058482394" x2="54.999998599708334" y1="55.000001400291914" y2="55.000002058482565" /><line stroke="black" x1="54.999998599708334" x2="54.999997941517684" y1="55.000002058482565" y2="54.999998599708505" /><line stroke="black" x1="54.999997941517684" x2="55.000001400291744" y1="54.999998599708505" y2="54.999997941517854" /><line stroke="black" x1="55.000001400291744" x2="55.000002058482394" y1="54.999997941517854" y2="55.000001400291914" /><line stroke="black" x1="55.00000136672758" x2="54.9999984680702" y1="55.000001531930046" y2="55.00000136672775" /><line stroke="black" x1="54.9999984680702" x2="54.9999986332725" y1="55.00000136672775" y2="54.99999846807037" /><line stroke="black" x1="54.9999986332725" x2="55.000001531929875" y1="54.99999846807037" y2="54.99999863327267" /><line stroke="black" x1="55.000001531929875" x2="55.00000136672758" y1="54.99999863327267" y2="55.000001531930046" /><line stroke="black" x1="55.000000786996104" x2="54.99999850111066" y1="55.00000149888959" y2="55.00000078699628" /><line stroke="black" x1="54.99999850111066" x2="54.99999921300397" y1="55.00000078699628" y2="54.99999850111084" /><line stroke="black" x1="54.99999921300397" x2="55.00000149888941" y1="54.99999850111084" y2="54.999999213004145" /><line stroke="black" x1="55.00000149888941" x2="55.000000786996104" y1="54.999999213004145" y2="55.00000149888959" /><line stroke="black" x1="55.00000032981902" x2="54.99999864348933" y1="55.00000135651093" y2="55.000000329819194" /><line stroke="black" x1="54.99999864348933" x2="54.99999967018106" y1="55.000000329819194" y2="54.999998643489505" /><line stroke="black" x1="54.99999967018106" x2="55.00000135651075" y1="54.999998643489505" y2="54.99999967018124" /><line stroke="black" x1="55.00000135651075" x2="55.00000032981902" y1="54.99999967018124" y2="55.00000135651093" /><line stroke="black" x1="54.99999999255308" x2="54.99999884882767" y1="55.00000115117258" y2="54.999999992553256" /><line stroke="black" x1="54.99999884882767" x2="55.000000007447" y1="54.999999992553256" y2="54.99999884882785" /><line stroke="black" x1="55.000000007447" x2="55.000001151172405" y1="54.99999884882785" y2="55.00000000744718" /><line stroke="black" x1="55.000001151172405" x2="54.99999999255308" y1="55.00000000744718" y2="55.00000115117258" /><line stroke="black" x1="54.999999763808" x2="54.99999908055154" y1="55.000000919448716" y2="54.99999976380818" /><line stroke="black" x1="54.99999908055154" x2="55.00000023619208" y1="54.99999976380818" y2="54.99999908055172" /><line stroke="black" x1="55.00000023619208" x2="55.00000091944854" y1="54.99999908055172" y2="55.00000023619226" /><line stroke="black" x1="55.00000091944854" x2="54.999999763808" y1="55.00000023619226" y2="55.000000919448716" /><line stroke="black" x1="54.999999627156704" x2="54.999999311679645" y1="55.00000068832061" y2="54.99999962715688" /><line stroke="black" x1="54.999999311679645" x2="55.000000372843374" y1="54.99999962715688" y2="54.99999931167982" /><line stroke="black" x1="55.000000372843374" x2="55.00000068832043" y1="54.99999931167982" y2="55.00000037284355" /><line stroke="black" x1="55.00000068832043" x2="54.999999627156704" y1="55.00000037284355" y2="55.00000068832061" /><line stroke="black" x1="54.99999956406129" x2="54.999999523912386" y1="55.00000047608786" y2="54.99999956406147" /><line stroke="black" x1="54.999999523912386" x2="55.00000043593878" y1="54.99999956406147" y2="54.999999523912564" /><line stroke="black" x1="55.00000043593878" x2="55.000000476087685" y1="54.999999523912564" y2="55.00000043593896" /><line stroke="black" x1="55.000000476087685" x2="54.99999956406129" y1="55.00000043593896" y2="55.00000047608786" /><line stroke="black" x1="54.99999955603151" x2="54.999999706317666" y1="55.00000029368258" y2="54.99999955603169" /><line stroke="black" x1="54.999999706317666" x2="55.00000044396856" y1="54.99999955603169" y2="54.999999706317844" /><line stroke="black" x1="55.00000044396856" x2="55.000000293682405" y1="54.999999706317844" y2="55.00000044396874" /><line stroke="black" x1="55.000000293682405" x2="54.99999955603151" y1="55.00000044396874" y2="55.00000029368258" /><line stroke="black" x1="54.99999958608874" x2="54.99999985384785" y1="55.0000001461524" y2="54.99999958608892" /><line stroke="black" x1="54.99999985384785" x2="55.00000041391133" y1="54.99999958608892" y2="54.999999853848024" /><line stroke="black" x1="55.00000041391133" x2="55.000000146152225" y1="54.999999853848024" y2="55.00000041391151" /><line stroke="black" x1="55.000000146152225" x2="54.99999958608874" y1="55.00000041391151" y2="55.0000001461524" /><line stroke="black" x1="54.99999963964056" x2="54.999999965860546" y1="55.0000000341397" y2="54.999999639640734" /><line stroke="black" x1="54.999999965860546" x2="55.000000360359515" y1="54.999999639640734" y2="54.99999996586072" /><line stroke="black" x1="55.000000360359515" x2="55.00000003413953" y1="54.99999996586072" y2="55.000000360359685" /><line stroke="black" x1="55.00000003413953" x2="54.99999963964056" y1="55.000000360359685" y2="55.0000000341397" /><line stroke="black" x1="54.99999970488456" x2="55.000000044760334" y1="54.99999995523991" y2="54.99999970488473" /><line stroke="black" x1="55.000000044760334" x2="55.00000029511551" y1="54.99999970488473" y2="55.000000044760505" /><line stroke="black" x1="55.00000029511551" x2="54.99999995523974" y1="55.000000044760505" y2="55.00000029511568" /><line stroke="black" x1="54.99999995523974" x2="54.99999970488456" y1="55.00000029511568" y2="54.99999995523991" /><line stroke="black" x1="54.99999977285972" x2="55.00000009483137" y1="54.99999990516887" y2="54.99999977285989" /><line stroke="black" x1="55.00000009483137" x2="55.000000227140355" y1="54.99999977285989" y2="55.00000009483154" /><line stroke="black" x1="55.000000227140355" x2="54.9999999051687" y1="55.00000009483154" y2="55.000000227140525" /><line stroke="black" x1="54.9999999051687" x2="54.99999977285972" y1="55.000000227140525" y2="54.99999990516887" /><line stroke="black" x1="54.999999837254045" x2="55.00000012129317" y1="54.99999987870707" y2="54.999999837254215" /><line stroke="black" x1="55.00000012129317" x2="55.000000162746026" y1="54.999999837254215" y2="55.00000012129334" /><line stroke="black" x1="55.000000162746026" x2="54.9999998787069" y1="55.00000012129334" y2="55.0000001627462" /><line stroke="black" x1="54.9999998787069" x2="54.999999837254045" y1="55.0000001627462" y2="54.99999987870707" /><line stroke="black" x1="54.99999989406187" x2="55.00000012958374" y1="54.9999998704165" y2="54.99999989406204" /><line stroke="black" x1="55.00000012958374" x2="55.0000001059382" y1="54.99999989406204" y2="55.00000012958391" /><line stroke="black" x1="55.0000001059382" x2="54.99999987041633" y1="55.00000012958391" y2="55.00000010593837" /><line stroke="black" x1="54.99999987041633" x2="54.99999989406187" y1="55.00000010593837" y2="54.9999998704165" /><line stroke="black" x1="54.999999941166244" x2="55.00000012485463" y1="54.99999987514561" y2="54.999999941166415" /><line stroke="black" x1="55.00000012485463" x2="55.00000005883383" y1="54.999999941166415" y2="55.0000001248548" /><line stroke="black" x1="55.00000005883383" x2="54.99999987514544" y1="55.0000001248548" y2="55.000000058834" /><line stroke="black" x1="54.99999987514544" x2="54.999999941166244" y1="55.000000058834" y2="54.99999987514561" /><line stroke="black" x1="54.99999997790392" x2="55.000000111650465" y1="54.99999988834977" y2="54.99999997790409" /><line stroke="black" x1="55.000000111650465" x2="55.000000022096145" y1="54.99999997790409" y2="55.000000111650635" /><line stroke="black" x1="55.000000022096145" x2="54.9999998883496" y1="55.000000111650635" y2="55.000000022096316" /><line stroke="black" x1="54.9999998883496" x2="54.99999997790392" y1="55.000000022096316" y2="54.99999988834977" /><line stroke="black" x1="55.00000000465323" x2="55.00000009373961" y1="54.99999990626063" y2="55.0000000046534" /><line stroke="black" x1="55.00000009373961" x2="54.99999999534684" y1="55.0000000046534" y2="55.00000009373978" /><line stroke="black" x1="54.99999999534684" x2="54.99999990626046" y1="55.00000009373978" y2="54.99999999534701" /><line stroke="black" x1="54.99999990626046" x2="55.00000000465323" y1="54.99999999534701" y2="54.99999990626063" /><line stroke="black" x1="55.00000002247051" x2="55.000000074061056" y1="54.999999925939186" y2="55.00000002247067" /><line stroke="black" x1="55.000000074061056" x2="54.99999997752957" y1="55.00000002247067" y2="55.00000007406122" /><line stroke="black" x1="54.99999997752957" x2="54.99999992593902" y1="55.00000007406122" y2="54.99999997752973" /><line stroke="black" x1="54.99999992593902" x2="55.00000002247051" y1="54.99999997752973" y2="54.999999925939186" /><line stroke="black" x1="55.00000003278862" x2="55.00000005475476" y1="54.999999945245484" y2="55.00000003278878" /><line stroke="black" x1="55.00000005475476" x2="54.99999996721146" y1="55.00000003278878" y2="55.00000005475492" /><line stroke="black" x1="54.99999996721146" x2="54.99999994524532" y1="55.00000005475492" y2="54.99999996721162" /><line stroke="black" x1="54.99999994524532" x2="55.00000003278862" y1="54.99999996721162" y2="54.999999945245484" /><line stroke="black" x1="55.00000003718185" x2="55.0000000372461" y1="54.999999962754146" y2="55.00000003718201" /><line stroke="black" x1="55.0000000372461" x2="54.99999996281824" y1="55.00000003718201" y2="55.00000003724627" /><line stroke="black" x1="54.99999996281824" x2="54.99999996275398" y1="55.00000003724627" y2="54.9999999628184" /><line stroke="black" x1="54.99999996275398" x2="55.00000003718185" y1="54.9999999628184" y2="54.999999962754146" /><line stroke="black" x1="55.0000000371947" x2="55.00000002236053" y1="54.99999997763972" y2="55.000000037194866" /><line stroke="black" x1="55.00000002236053" x2="54.99999996280538" y1="55.000000037194866" y2="55.000000022360695" /><line stroke="black" x1="54.99999996280538" x2="54.999999977639554" y1="55.000000022360695" y2="54.999999962805546" /><line stroke="black" x1="54.999999977639554" x2="55.0000000371947" y1="54.999999962805546" y2="54.99999997763972" /><line stroke="black" x1="55.00000003422787" x2="55.0000000104495" y1="54.999999989550744" y2="55.00000003422802" /><line stroke="black" x1="55.0000000104495" x2="54.99999996577222" y1="55.00000003422802" y2="55.000000010449654" /><line stroke="black" x1="54.99999996577222" x2="54.99999998955059" y1="55.000000010449654" y2="54.999999965772375" /><line stroke="black" x1="54.99999998955059" x2="55.00000003422787" y1="54.999999965772375" y2="54.999999989550744" /><line stroke="black" x1="55.00000002947219" x2="55.00000000151404" y1="54.9999999984862" y2="55.00000002947235" /><line stroke="black" x1="55.00000000151404" x2="54.99999997052789" y1="55.00000002947235" y2="55.0000000015142" /><line stroke="black" x1="54.99999997052789" x2="54.99999999848604" y1="55.0000000015142" y2="54.99999997052805" /><line stroke="black" x1="54.99999999848604" x2="55.00000002947219" y1="54.99999997052805" y2="54.9999999984862" /><line stroke="black" x1="55.00000002388056" x2="54.99999999531681" y1="55.000000004683436" y2="55.00000002388073" /><line stroke="black" x1="54.99999999531681" x2="54.99999997611952" y1="55.00000002388073" y2="54.99999999531698" /><line stroke="black" x1="54.99999997611952" x2="55.000000004683265" y1="54.99999999531698" y2="54.99999997611969" /><line stroke="black" x1="55.000000004683265" x2="55.00000002388056" y1="54.99999997611969" y2="55.000000004683436" /><line stroke="black" x1="55.00000001816781" x2="54.99999999147735" y1="55.000000008522896" y2="55.00000001816798" /><line stroke="black" x1="54.99999999147735" x2="54.99999998183227" y1="55.00000001816798" y2="54.99999999147752" /><line stroke="black" x1="54.99999998183227" x2="55.000000008522726" y1="54.99999999147752" y2="54.99999998183244" /><line stroke="black" x1="55.000000008522726" x2="55.00000001816781" y1="54.99999998183244" y2="55.000000008522896" /><line stroke="black" x1="55.000000012829716" x2="54.999999989548336" y1="55.00000001045191" y2="55.00000001282989" /><line stroke="black" x1="54.999999989548336" x2="54.99999998717036" y1="55.00000001282989" y2="54.999999989548506" /><line stroke="black" x1="54.99999998717036" x2="55.00000001045174" y1="54.999999989548506" y2="54.99999998717053" /><line stroke="black" x1="55.00000001045174" x2="55.000000012829716" y1="54.99999998717053" y2="55.00000001045191" /><line stroke="black" x1="55.00000000817344" x2="54.999999989072734" y1="55.00000001092751" y2="55.00000000817361" /><line stroke="black" x1="54.999999989072734" x2="54.999999991826634" y1="55.00000000817361" y2="54.999999989072904" /><line stroke="black" x1="54.999999991826634" x2="55.00000001092734" y1="54.999999989072904" y2="54.999999991826805" /><line stroke="black" x1="55.00000001092734" x2="55.00000000817344" y1="54.999999991826805" y2="55.00000001092751" /><line stroke="black" x1="55.000000004353296" x2="54.99999998962351" y1="55.00000001037673" y2="55.000000004353474" /><line stroke="black" x1="54.99999998962351" x2="54.99999999564677" y1="55.000000004353474" y2="54.99999998962369" /><line stroke="black" x1="54.99999999564677" x2="55.00000001037655" y1="54.99999998962369" y2="54.999999995646945" /><line stroke="black" x1="55.00000001037655" x2="55.000000004353296" y1="54.999999995646945" y2="55.00000001037673" /><line stroke="black" x1="55.00000000140734" x2="54.999999990828165" y1="55.000000009172076" y2="55.000000001407514" /><line stroke="black" x1="54.999999990828165" x2="54.99999999859273" y1="55.000000001407514" y2="54.99999999082834" /><line stroke="black" x1="54.99999999859273" x2="55.0000000091719" y1="54.99999999082834" y2="54.999999998592905" /><line stroke="black" x1="55.0000000091719" x2="55.00000000140734" y1="54.999999998592905" y2="55.000000009172076" /><line stroke="black" x1="54.999999999291504" x2="54.99999999238108" y1="55.000000007619164" y2="54.99999999929168" /><line stroke="black" x1="54.99999999238108" x2="55.00000000070856" y1="54.99999999929168" y2="54.999999992381255" /><line stroke="black" x1="55.00000000070856" x2="55.000000007618986" y1="54.999999992381255" y2="55.00000000070874" /><line stroke="black" x1="55.000000007618986" x2="54.999999999291504" y1="55.00000000070874" y2="55.000000007619164" /><line stroke="black" x1="54.99999999790942" x2="54.999999994046576" y1="55.000000005953666" y2="54.99999999790959" /><line stroke="black" x1="54.999999994046576" x2="55.00000000209065" y1="54.99999999790959" y2="54.999999994046746" /><line stroke="black" x1="55.00000000209065" x2="55.000000005953495" y1="54.999999994046746" y2="55.00000000209082" /><line stroke="black" x1="55.000000005953495" x2="54.99999999790942" y1="55.00000000209082" y2="55.000000005953666" /><line stroke="black" x1="54.999999997136854" x2="54.99999999565539" y1="55.00000000434485" y2="54.99999999713702" /><line stroke="black" x1="54.99999999565539" x2="55.000000002863224" y1="54.99999999713702" y2="54.99999999565556" /><line stroke="black" x1="55.000000002863224" x2="55.000000004344685" y1="54.99999999565556" y2="55.00000000286339" /><line stroke="black" x1="55.000000004344685" x2="54.999999997136854" y1="55.00000000286339" y2="55.00000000434485" /><line stroke="black" x1="54.999999996840565" x2="54.999999997096964" y1="55.000000002903285" y2="54.99999999684073" /><line stroke="black" x1="54.999999997096964" x2="55.00000000315952" y1="54.99999999684073" y2="54.99999999709713" /><line stroke="black" x1="55.00000000315952" x2="55.00000000290312" y1="54.99999999709713" y2="55.000000003159684" /><line stroke="black" x1="55.00000000290312" x2="54.999999996840565" y1="55.000000003159684" y2="55.000000002903285" /><line stroke="black" x1="54.999999996891844" x2="54.99999999830947" y1="55.00000000169077" y2="54.99999999689201" /><line stroke="black" x1="54.99999999830947" x2="55.000000003108234" y1="54.99999999689201" y2="54.99999999830963" /><line stroke="black" x1="55.000000003108234" x2="55.00000000169061" y1="54.99999999830963" y2="55.0000000031084" /><line stroke="black" x1="55.00000000169061" x2="54.999999996891844" y1="55.0000000031084" y2="55.00000000169077" /><line stroke="black" x1="54.99999999717537" x2="54.99999999926923" y1="55.00000000073102" y2="54.999999997175536" /><line stroke="black" x1="54.99999999926923" x2="55.00000000282471" y1="54.999999997175536" y2="54.99999999926939" /><line stroke="black" x1="55.00000000282471" x2="55.00000000073086" y1="54.99999999926939" y2="55.000000002824876" /><line stroke="black" x1="55.00000000073086" x2="54.99999999717537" y1="55.000000002824876" y2="55.00000000073102" /><line stroke="black" x1="54.999999997594145" x2="54.999999999980325" y1="55.000000000019924" y2="54.99999999759431" /><line stroke="black" x1="54.999999999980325" x2="55.00000000240594" y1="54.99999999759431" y2="54.99999999998049" /><line stroke="black" x1="55.00000000240594" x2="55.00000000001976" y1="54.99999999998049" y2="55.000000002406104" /><line stroke="black" x1="55.00000000001976" x2="54.999999997594145" y1="55.000000002406104" y2="55.000000000019924" /><line stroke="black" x1="54.99999999807138" x2="55.00000000046545" y1="54.9999999995348" y2="54.999999998071544" /><line stroke="black" x1="55.00000000046545" x2="55.000000001928704" y1="54.999999998071544" y2="55.00000000046561" /><line stroke="black" x1="55.000000001928704" x2="54.99999999953464" y1="55.00000000046561" y2="55.00000000192887" /><line stroke="black" x1="54.99999999953464" x2="54.99999999807138" y1="55.00000000192887" y2="54.9999999995348" /><line stroke="black" x1="54.999999998550194" x2="55.0000000007581" y1="54.99999999924215" y2="54.99999999855036" /><line stroke="black" x1="55.0000000007581" x2="55.00000000144989" y1="54.99999999855036" y2="55.00000000075826" /><line stroke="black" x1="55.00000000144989" x2="54.999999999241986" y1="55.00000000075826" y2="55.000000001450054" /><line stroke="black" x1="54.999999999241986" x2="54.999999998550194" y1="55.000000001450054" y2="54.99999999924215" /><line stroke="black" x1="54.999999998991775" x2="55.000000000896456" y1="54.99999999910379" y2="54.99999999899194" /><line stroke="black" x1="55.000000000896456" x2="55.00000000100831" y1="54.99999999899194" y2="55.00000000089662" /><line stroke="black" x1="55.00000000100831" x2="54.99999999910363" y1="55.00000000089662" y2="55.00000000100847" /><line stroke="black" x1="54.99999999910363" x2="54.999999998991775" y1="55.00000000100847" y2="54.99999999910379" /><line stroke="black" x1="54.99999999937271" x2="55.00000000091883" y1="54.999999999081425" y2="54.99999999937288" /><line stroke="black" x1="55.00000000091883" x2="55.000000000627374" y1="54.99999999937288" y2="55.000000000919" /><line stroke="black" x1="55.000000000627374" x2="54.999999999081254" y1="55.000000000919" y2="55.000000000627544" /><line stroke="black" x1="54.999999999081254" x2="54.99999999937271" y1="55.000000000627544" y2="54.999999999081425" /><line stroke="black" x1="54.99999999968193" x2="55.00000000086054" y1="54.99999999913972" y2="54.9999999996821" /><line stroke="black" x1="55.00000000086054" x2="55.00000000031815" y1="54.9999999996821" y2="55.00000000086071" /><line stroke="black" x1="55.00000000031815" x2="54.99999999913955" y1="55.00000000086071" y2="55.00000000031832" /><line stroke="black" x1="54.99999999913955" x2="54.99999999968193" y1="55.00000000031832" y2="54.99999999913972" /><line stroke="black" x1="54.999999999917655" x2="55.00000000075206" y1="54.999999999248196" y2="54.999999999917826" /><line stroke="black" x1="55.00000000075206" x2="55.00000000008243" y1="54.999999999917826" y2="55.00000000075223" /><line stroke="black" x1="55.00000000008243" x2="54.999999999248026" y1="55.00000000075223" y2="55.0000000000826" /><line stroke="black" x1="54.999999999248026" x2="54.999999999917655" y1="55.0000000000826" y2="54.999999999248196" /><line stroke="black" x1="55.00000000008453" x2="55.00000000061813" y1="54.99999999938212" y2="55.000000000084704" /><line stroke="black" x1="55.00000000061813" x2="54.999999999915545" y1="55.000000000084704" y2="55.0000000006183" /><line stroke="black" x1="54.999999999915545" x2="54.99999999938195" y1="55.0000000006183" y2="54.999999999915715" /><line stroke="black" x1="54.99999999938195" x2="55.00000000008453" y1="54.999999999915715" y2="54.99999999938212" /><line stroke="black" x1="55.00000000019125" x2="55.00000000047761" y1="54.999999999522636" y2="55.00000000019143" /><line stroke="black" x1="55.00000000047761" x2="54.99999999980882" y1="55.00000000019143" y2="55.00000000047779" /><line stroke="black" x1="54.99999999980882" x2="54.99999999952246" y1="55.00000000047779" y2="54.999999999809" /><line stroke="black" x1="54.99999999952246" x2="55.00000000019125" y1="54.999999999809" y2="54.999999999522636" /><line stroke="black" x1="55.00000000024852" x2="55.00000000034385" y1="54.999999999656396" y2="55.0000000002487" /><line stroke="black" x1="55.00000000034385" x2="54.99999999975155" y1="55.0000000002487" y2="55.00000000034403" /><line stroke="black" x1="54.99999999975155" x2="54.99999999965622" y1="55.00000000034403" y2="54.99999999975173" /><line stroke="black" x1="54.99999999965622" x2="55.00000000024852" y1="54.99999999975173" y2="54.999999999656396" /><line stroke="black" x1="55.00000000026758" x2="55.00000000022539" y1="54.99999999977486" y2="55.00000000026777" /><line stroke="black" x1="55.00000000022539" x2="54.99999999973248" y1="55.00000000026777" y2="55.000000000225576" /><line stroke="black" x1="54.99999999973248" x2="54.99999999977467" y1="55.000000000225576" y2="54.999999999732665" /><line stroke="black" x1="54.99999999977467" x2="55.00000000026758" y1="54.999999999732665" y2="54.99999999977486" /><line stroke="black" x1="55.00000000025914" x2="55.0000000001268" y1="54.99999999987344" y2="55.00000000025933" /><line stroke="black" x1="55.0000000001268" x2="54.999999999740915" y1="55.00000000025933" y2="55.00000000012699" /><line stroke="black" x1="54.999999999740915" x2="54.99999999987325" y1="55.00000000012699" y2="54.9999999997411" /><line stroke="black" x1="54.99999999987325" x2="55.00000000025914" y1="54.9999999997411" y2="54.99999999987344" /><line stroke="black" x1="55.000000000232674" x2="55.000000000049624" y1="54.99999999995062" y2="55.00000000023286" /><line stroke="black" x1="55.000000000049624" x2="54.99999999976738" y1="55.00000000023286" y2="55.00000000004981" /><line stroke="black" x1="54.99999999976738" x2="54.99999999995043" y1="55.00000000004981" y2="54.99999999976757" /><line stroke="black" x1="54.99999999995043" x2="55.000000000232674" y1="54.99999999976757" y2="54.99999999995062" /><line stroke="black" x1="55.00000000019607" x2="54.99999999999318" y1="55.00000000000706" y2="55.000000000196245" /><line stroke="black" x1="54.99999999999318" x2="54.999999999804" y1="55.000000000196245" y2="54.999999999993356" /><line stroke="black" x1="54.999999999804" x2="55.000000000006885" y1="54.999999999993356" y2="54.999999999804174" /><line stroke="black" x1="55.000000000006885" x2="55.00000000019607" y1="54.999999999804174" y2="55.00000000000706" /><line stroke="black" x1="55.00000000015549" x2="54.99999999995534" y1="55.0000000000449" y2="55.00000000015567" /><line stroke="black" x1="54.99999999995534" x2="54.99999999984457" y1="55.00000000015567" y2="54.99999999995553" /><line stroke="black" x1="54.99999999984457" x2="55.000000000044714" y1="54.99999999995553" y2="54.99999999984475" /><line stroke="black" x1="55.000000000044714" x2="55.00000000015549" y1="54.99999999984475" y2="55.0000000000449" /><line stroke="black" x1="55.000000000115456" x2="54.99999999993319" y1="55.000000000067054" y2="55.00000000011564" /><line stroke="black" x1="54.99999999993319" x2="54.9999999998846" y1="55.00000000011564" y2="54.99999999993337" /><line stroke="black" x1="54.9999999998846" x2="55.00000000006687" y1="54.99999999993337" y2="54.999999999884785" /><line stroke="black" x1="55.00000000006687" x2="55.000000000115456" y1="54.999999999884785" y2="55.000000000067054" /><line stroke="black" x1="55.000000000079005" x2="54.999999999923475" y1="55.000000000076774" y2="55.00000000007919" /><line stroke="black" x1="54.999999999923475" x2="54.99999999992106" y1="55.00000000007919" y2="54.99999999992366" /><line stroke="black" x1="54.99999999992106" x2="55.00000000007659" y1="54.99999999992366" y2="54.99999999992124" /><line stroke="black" x1="55.00000000007659" x2="55.000000000079005" y1="54.99999999992124" y2="55.000000000076774" /><line stroke="black" x1="55.0000000000479" x2="54.999999999922984" y1="55.00000000007726" y2="55.00000000004808" /><line stroke="black" x1="54.999999999922984" x2="54.99999999995216" y1="55.00000000004808" y2="54.99999999992317" /><line stroke="black" x1="54.99999999995216" x2="55.00000000007707" y1="54.99999999992317" y2="54.999999999952344" /><line stroke="black" x1="55.00000000007707" x2="55.0000000000479" y1="54.999999999952344" y2="55.00000000007726" /><line stroke="black" x1="55.000000000022915" x2="54.999999999928825" y1="55.000000000071424" y2="55.0000000000231" /><line stroke="black" x1="54.999999999928825" x2="54.99999999997715" y1="55.0000000000231" y2="54.99999999992901" /><line stroke="black" x1="54.99999999997715" x2="55.00000000007124" y1="54.99999999992901" y2="54.999999999977334" /><line stroke="black" x1="55.00000000007124" x2="55.000000000022915" y1="54.999999999977334" y2="55.000000000071424" /><line stroke="black" x1="55.0000000000041" x2="54.99999999993849" y1="55.00000000006176" y2="55.000000000004285" /><line stroke="black" x1="54.99999999993849" x2="54.999999999995964" y1="55.000000000004285" y2="54.99999999993867" /><line stroke="black" x1="54.999999999995964" x2="55.000000000061576" y1="54.99999999993867" y2="54.99999999999615" /><line stroke="black" x1="55.000000000061576" x2="55.0000000000041" y1="54.99999999999615" y2="55.00000000006176" /><line stroke="black" x1="54.999999999990976" x2="54.999999999949985" y1="55.000000000050264" y2="54.99999999999116" /><line stroke="black" x1="54.999999999949985" x2="55.00000000000909" y1="54.99999999999116" y2="54.99999999995017" /><line stroke="black" x1="55.00000000000909" x2="55.00000000005008" y1="54.99999999995017" y2="55.00000000000927" /><line stroke="black" x1="55.00000000005008" x2="54.999999999990976" y1="55.00000000000927" y2="55.000000000050264" /><line stroke="black" x1="54.999999999982776" x2="54.9999999999618" y1="55.00000000003844" y2="54.99999999998296" /><line stroke="black" x1="54.9999999999618" x2="55.00000000001728" y1="54.99999999998296" y2="54.999999999961986" /><line stroke="black" x1="55.00000000001728" x2="55.000000000038256" y1="54.999999999961986" y2="55.000000000017465" /><line stroke="black" x1="55.000000000038256" x2="54.999999999982776" y1="55.000000000017465" y2="55.00000000003844" /><line stroke="black" x1="54.999999999978584" x2="54.9999999999729" y1="55.00000000002734" y2="54.99999999997876" /><line stroke="black" x1="54.9999999999729" x2="55.00000000002148" y1="54.99999999997876" y2="54.99999999997308" /><line stroke="black" x1="55.00000000002148" x2="55.000000000027164" y1="54.99999999997308" y2="55.00000000002166" /><line stroke="black" x1="55.000000000027164" x2="54.999999999978584" y1="55.00000000002166" y2="55.00000000002734" /><line stroke="black" x1="54.99999999997745" x2="54.99999999998262" y1="55.00000000001763" y2="54.999999999977625" /><line stroke="black" x1="54.99999999998262" x2="55.000000000022624" y1="54.999999999977625" y2="54.9999999999828" /><line stroke="black" x1="55.000000000022624" x2="55.00000000001745" y1="54.9999999999828" y2="55.0000000000228" /><line stroke="black" x1="55.00000000001745" x2="54.99999999997745" y1="55.0000000000228" y2="55.00000000001763" /><line stroke="black" x1="54.999999999978485" x2="54.99999999999062" y1="55.00000000000963" y2="54.99999999997866" /><line stroke="black" x1="54.99999999999062" x2="55.000000000021586" y1="54.99999999997866" y2="54.9999999999908" /><line stroke="black" x1="55.000000000021586" x2="55.00000000000945" y1="54.9999999999908" y2="55.000000000021764" /><line stroke="black" x1="55.00000000000945" x2="54.999999999978485" y1="55.000000000021764" y2="55.00000000000963" /><line stroke="black" x1="54.999999999980915" x2="54.99999999999682" y1="55.00000000000343" y2="54.999999999981085" /><line stroke="black" x1="54.99999999999682" x2="55.00000000001916" y1="54.999999999981085" y2="54.99999999999699" /><line stroke="black" x1="55.00000000001916" x2="55.00000000000326" y1="54.99999999999699" y2="55.000000000019334" /><line stroke="black" x1="55.00000000000326" x2="54.999999999980915" y1="55.000000000019334" y2="55.00000000000343" /><line stroke="black" x1="54.9999999999841" x2="55.000000000001286" y1="54.99999999999896" y2="54.99999999998427" /><line stroke="black" x1="55.000000000001286" x2="55.00000000001598" y1="54.99999999998427" y2="55.00000000000146" /><line stroke="black" x1="55.00000000001598" x2="54.99999999999879" y1="55.00000000000146" y2="55.00000000001615" /><line stroke="black" x1="54.99999999999879" x2="54.9999999999841" y1="55.00000000001615" y2="54.99999999999896" /><line stroke="black" x1="54.99999999998754" x2="55.00000000000423" y1="54.99999999999602" y2="54.9999999999877" /><line stroke="black" x1="55.00000000000423" x2="55.00000000001255" y1="54.9999999999877" y2="55.00000000000439" /><line stroke="black" x1="55.00000000001255" x2="54.99999999999586" y1="55.00000000000439" y2="55.00000000001271" /><line stroke="black" x1="54.99999999999586" x2="54.99999999998754" y1="55.00000000001271" y2="54.99999999999602" /><line stroke="black" x1="54.99999999999088" x2="55.00000000000589" y1="54.99999999999436" y2="54.99999999999104" /><line stroke="black" x1="55.00000000000589" x2="55.00000000000921" y1="54.99999999999104" y2="55.000000000006054" /><line stroke="black" x1="55.00000000000921" x2="54.999999999994195" y1="55.000000000006054" y2="55.00000000000937" /><line stroke="black" x1="54.999999999994195" x2="54.99999999999088" y1="55.00000000000937" y2="54.99999999999436" /><line stroke="black" x1="54.99999999999388" x2="55.00000000000656" y1="54.9999999999937" y2="54.999999999994046" /><line stroke="black" x1="55.00000000000656" x2="55.00000000000621" y1="54.999999999994046" y2="55.00000000000672" /><line stroke="black" x1="55.00000000000621" x2="54.999999999993534" y1="55.00000000000672" y2="55.000000000006374" /><line stroke="black" x1="54.999999999993534" x2="54.99999999999388" y1="55.000000000006374" y2="54.9999999999937" /><line stroke="black" x1="54.99999999999642" x2="55.00000000000649" y1="54.99999999999377" y2="54.99999999999658" /><line stroke="black" x1="55.00000000000649" x2="55.00000000000367" y1="54.99999999999658" y2="55.00000000000665" /><line stroke="black" x1="55.00000000000367" x2="54.999999999993605" y1="55.00000000000665" y2="55.00000000000384" /><line stroke="black" x1="54.999999999993605" x2="54.99999999999642" y1="55.00000000000384" y2="54.99999999999377" /><line stroke="black" x1="54.99999999999843" x2="55.000000000005926" y1="54.99999999999433" y2="54.99999999999859" /><line stroke="black" x1="55.000000000005926" x2="55.00000000000166" y1="54.99999999999859" y2="55.00000000000609" /><line stroke="black" x1="55.00000000000166" x2="54.999999999994166" y1="55.00000000000609" y2="55.000000000001826" /><line stroke="black" x1="54.999999999994166" x2="54.99999999999843" y1="55.000000000001826" y2="54.99999999999433" /><line stroke="black" x1="54.99999999999993" x2="55.00000000000507" y1="54.99999999999518" y2="55.00000000000009" /><line stroke="black" x1="55.00000000000507" x2="55.00000000000016" y1="55.00000000000009" y2="55.00000000000524" /><line stroke="black" x1="55.00000000000016" x2="54.99999999999502" y1="55.00000000000524" y2="55.00000000000033" /><line stroke="black" x1="54.99999999999502" x2="54.99999999999993" y1="55.00000000000033" y2="54.99999999999518" /><line stroke="black" x1="55.00000000000096" x2="55.00000000000409" y1="54.99999999999616" y2="55.00000000000112" /><line stroke="black" x1="55.00000000000409" x2="54.99999999999913" y1="55.00000000000112" y2="55.000000000004256" /><line stroke="black" x1="54.99999999999913" x2="54.999999999996" y1="55.000000000004256" y2="54.9999999999993" /><line stroke="black" x1="54.999999999996" x2="55.00000000000096" y1="54.9999999999993" y2="54.99999999999616" /><line stroke="black" x1="55.000000000001585" x2="55.0000000000031" y1="54.99999999999716" y2="55.00000000000175" /><line stroke="black" x1="55.0000000000031" x2="54.99999999999851" y1="55.00000000000175" y2="55.00000000000326" /><line stroke="black" x1="54.99999999999851" x2="54.999999999996994" y1="55.00000000000326" y2="54.99999999999867" /><line stroke="black" x1="54.999999999996994" x2="55.000000000001585" y1="54.99999999999867" y2="54.99999999999716" /><line stroke="black" x1="55.00000000000189" x2="55.00000000000218" y1="54.999999999998074" y2="55.00000000000205" /><line stroke="black" x1="55.00000000000218" x2="54.9999999999982" y1="55.00000000000205" y2="55.000000000002345" /><line stroke="black" x1="54.9999999999982" x2="54.99999999999791" y1="55.000000000002345" y2="54.999999999998366" /><line stroke="black" x1="54.99999999999791" x2="55.00000000000189" y1="54.999999999998366" y2="54.999999999998074" /><line stroke="black" x1="55.00000000000195" x2="55.000000000001386" y1="54.99999999999887" y2="55.00000000000211" /><line stroke="black" x1="55.000000000001386" x2="54.999999999998145" y1="55.00000000000211" y2="55.00000000000155" /><line stroke="black" x1="54.999999999998145" x2="54.99999999999871" y1="55.00000000000155" y2="54.99999999999831" /><line stroke="black" x1="54.99999999999871" x2="55.00000000000195" y1="54.99999999999831" y2="54.99999999999887" /><line stroke="black" x1="55.00000000000183" x2="55.00000000000074" y1="54.99999999999952" y2="55.000000000002" /><line stroke="black" x1="55.00000000000074" x2="54.99999999999826" y1="55.000000000002" y2="55.0000000000009" /><line stroke="black" x1="54.99999999999826" x2="54.99999999999935" y1="55.0000000000009" y2="54.99999999999842" /><line stroke="black" x1="54.99999999999935" x2="55.00000000000183" y1="54.99999999999842" y2="54.99999999999952" /><line stroke="black" x1="55.00000000000161" x2="55.00000000000024" y1="55.000000000000014" y2="55.000000000001776" /><line stroke="black" x1="55.00000000000024" x2="54.99999999999848" y1="55.000000000001776" y2="55.000000000000405" /><line stroke="black" x1="54.99999999999848" x2="54.99999999999985" y1="55.000000000000405" y2="54.99999999999864" /><line stroke="black" x1="54.99999999999985" x2="55.00000000000161" y1="54.99999999999864" y2="55.000000000000014" /><line stroke="black" x1="55.000000000001336" x2="54.999999999999886" y1="55.00000000000037" y2="55.000000000001506" /><line stroke="black" x1="54.999999999999886" x2="54.99999999999875" y1="55.000000000001506" y2="55.00000000000006" /><line stroke="black" x1="54.99999999999875" x2="55.0000000000002" y1="55.00000000000006" y2="54.99999999999892" /><line stroke="black" x1="55.0000000000002" x2="55.000000000001336" y1="54.99999999999892" y2="55.00000000000037" /><line stroke="black" x1="55.000000000001044" x2="54.99999999999966" y1="55.0000000000006" y2="55.000000000001215" /><line stroke="black" x1="54.99999999999966" x2="54.99999999999904" y1="55.000000000001215" y2="54.99999999999983" /><line stroke="black" x1="54.99999999999904" x2="55.000000000000426" y1="54.99999999999983" y2="54.99999999999921" /><line stroke="black" x1="55.000000000000426" x2="55.000000000001044" y1="54.99999999999921" y2="55.0000000000006" /><line stroke="black" x1="55.00000000000077" x2="54.99999999999953" y1="55.00000000000072" y2="55.00000000000094" /><line stroke="black" x1="54.99999999999953" x2="54.99999999999931" y1="55.00000000000094" y2="54.9999999999997" /><line stroke="black" x1="54.99999999999931" x2="55.00000000000055" y1="54.9999999999997" y2="54.99999999999948" /><line stroke="black" x1="55.00000000000055" x2="55.00000000000077" y1="54.99999999999948" y2="55.00000000000072" /><line stroke="black" x1="55.00000000000052" x2="54.99999999999949" y1="55.00000000000076" y2="55.00000000000069" /><line stroke="black" x1="54.99999999999949" x2="54.99999999999956" y1="55.00000000000069" y2="54.99999999999966" /><line stroke="black" x1="54.99999999999956" x2="55.00000000000059" y1="54.99999999999966" y2="54.99999999999973" /><line stroke="black" x1="55.00000000000059" x2="55.00000000000052" y1="54.99999999999973" y2="55.00000000000076" /><line stroke="black" x1="55.00000000000031" x2="54.9999999999995" y1="55.000000000000746" y2="55.00000000000048" /><line stroke="black" x1="54.9999999999995" x2="54.999999999999766" y1="55.00000000000048" y2="54.99999999999967" /><line stroke="black" x1="54.999999999999766" x2="55.000000000000576" y1="54.99999999999967" y2="54.999999999999936" /><line stroke="black" x1="55.000000000000576" x2="55.00000000000031" y1="54.999999999999936" y2="55.000000000000746" /><line stroke="black" x1="55.00000000000015" x2="54.99999999999955" y1="55.000000000000696" y2="55.00000000000032" /><line stroke="black" x1="54.99999999999955" x2="54.99999999999993" y1="55.00000000000032" y2="54.99999999999972" /><line stroke="black" x1="54.99999999999993" x2="55.000000000000526" y1="54.99999999999972" y2="55.0000000000001" /><line stroke="black" x1="55.000000000000526" x2="55.00000000000015" y1="55.0000000000001" y2="55.000000000000696" /><line stroke="black" x1="55.00000000000003" x2="54.99999999999962" y1="55.00000000000062" y2="55.0000000000002" /><line stroke="black" x1="54.99999999999962" x2="55.00000000000004" y1="55.0000000000002" y2="54.999999999999794" /><line stroke="black" x1="55.00000000000004" x2="55.00000000000045" y1="54.999999999999794" y2="55.00000000000021" /><line stroke="black" x1="55.00000000000045" x2="55.00000000000003" y1="55.00000000000021" y2="55.00000000000062" /><line stroke="black" x1="54.99999999999995" x2="54.999999999999716" y1="55.00000000000053" y2="55.00000000000012" /><line stroke="black" x1="54.999999999999716" x2="55.00000000000013" y1="55.00000000000012" y2="54.999999999999886" /><line stroke="black" x1="55.00000000000013" x2="55.00000000000036" y1="54.999999999999886" y2="55.0000000000003" /><line stroke="black" x1="55.00000000000036" x2="54.99999999999995" y1="55.0000000000003" y2="55.00000000000053" /><line stroke="black" x1="54.9999999999999" x2="54.999999999999794" y1="55.00000000000045" y2="55.00000000000007" /><line stroke="black" x1="54.999999999999794" x2="55.00000000000017" y1="55.00000000000007" y2="54.999999999999964" /><line stroke="black" x1="55.00000000000017" x2="55.00000000000028" y1="54.999999999999964" y2="55.00000000000034" /><line stroke="black" x1="55.00000000000028" x2="54.9999999999999" y1="55.00000000000034" y2="55.00000000000045" /><line stroke="black" x1="54.99999999999988" x2="54.99999999999987" y1="55.00000000000037" y2="55.00000000000004" /><line stroke="black" x1="54.99999999999987" x2="55.0000000000002" y1="55.00000000000004" y2="55.000000000000036" /><line stroke="black" x1="55.0000000000002" x2="55.000000000000206" y1="55.000000000000036" y2="55.00000000000036" /><line stroke="black" x1="55.000000000000206" x2="54.99999999999988" y1="55.00000000000036" y2="55.00000000000037" /><line stroke="black" x1="54.99999999999988" x2="54.999999999999936" y1="55.000000000000306" y2="55.00000000000004" /><line stroke="black" x1="54.999999999999936" x2="55.0000000000002" y1="55.00000000000004" y2="55.0000000000001" /><line stroke="black" x1="55.0000000000002" x2="55.00000000000014" y1="55.0000000000001" y2="55.00000000000036" /><line stroke="black" x1="55.00000000000014" x2="54.99999999999988" y1="55.00000000000036" y2="55.000000000000306" /><line stroke="black" x1="54.99999999999989" x2="54.99999999999999" y1="55.000000000000256" y2="55.00000000000006" /><line stroke="black" x1="54.99999999999999" x2="55.00000000000019" y1="55.00000000000006" y2="55.000000000000156" /><line stroke="black" x1="55.00000000000019" x2="55.00000000000009" y1="55.000000000000156" y2="55.000000000000355" /><line stroke="black" x1="55.00000000000009" x2="54.99999999999989" y1="55.000000000000355" y2="55.000000000000256" /><line stroke="black" x1="54.999999999999915" x2="55.000000000000036" y1="55.00000000000021" y2="55.00000000000007" /><line stroke="black" x1="55.000000000000036" x2="55.00000000000018" y1="55.00000000000007" y2="55.00000000000019" /><line stroke="black" x1="55.00000000000018" x2="55.00000000000006" y1="55.00000000000019" y2="55.000000000000334" /><line stroke="black" x1="55.00000000000006" x2="54.999999999999915" y1="55.000000000000334" y2="55.00000000000021" /><line stroke="black" x1="54.999999999999936" x2="55.00000000000006" y1="55.000000000000185" y2="55.0000000000001" /><line stroke="black" x1="55.00000000000006" x2="55.00000000000014" y1="55.0000000000001" y2="55.00000000000022" /><line stroke="black" x1="55.00000000000014" x2="55.00000000000002" y1="55.00000000000022" y2="55.000000000000306" /><line stroke="black" x1="55.00000000000002" x2="54.999999999999936" y1="55.000000000000306" y2="55.000000000000185" /><line stroke="black" x1="54.99999999999996" x2="55.00000000000007" y1="55.00000000000017" y2="55.00000000000013" /><line stroke="black" x1="55.00000000000007" x2="55.000000000000114" y1="55.00000000000013" y2="55.00000000000024" /><line stroke="black" x1="55.000000000000114" x2="55.0" y1="55.00000000000024" y2="55.000000000000284" /><line stroke="black" x1="55.0" x2="54.99999999999996" y1="55.000000000000284" y2="55.00000000000017" /><line stroke="black" x1="54.99999999999998" x2="55.00000000000008" y1="55.00000000000016" y2="55.00000000000015" /><line stroke="black" x1="55.00000000000008" x2="55.00000000000009" y1="55.00000000000015" y2="55.00000000000025" /><line stroke="black" x1="55.00000000000009" x2="54.99999999999999" y1="55.00000000000025" y2="55.00000000000026" /><line stroke="black" x1="54.99999999999999" x2="54.99999999999998" y1="55.00000000000026" y2="55.00000000000016" /><line stroke="black" x1="55.0" x2="55.000000000000085" y1="55.00000000000016" y2="55.00000000000017" /><line stroke="black" x1="55.000000000000085" x2="55.00000000000008" y1="55.00000000000017" y2="55.000000000000256" /><line stroke="black" x1="55.00000000000008" x2="54.99999999999999" y1="55.000000000000256" y2="55.00000000000025" /><line stroke="black" x1="54.99999999999999" x2="55.0" y1="55.00000000000025" y2="55.00000000000016" /><line stroke="black" x1="55.000000000000014" x2="55.00000000000008" y1="55.00000000000016" y2="55.000000000000185" /><line stroke="black" x1="55.00000000000008" x2="55.00000000000006" y1="55.000000000000185" y2="55.00000000000025" /><line stroke="black" x1="55.00000000000006" x2="54.99999999999999" y1="55.00000000000025" y2="55.00000000000023" /><line stroke="black" x1="54.99999999999999" x2="55.000000000000014" y1="55.00000000000023" y2="55.00000000000016" /><line stroke="black" x1="55.00000000000003" x2="55.00000000000008" y1="55.00000000000017" y2="55.000000000000206" /><line stroke="black" x1="55.00000000000008" x2="55.00000000000004" y1="55.000000000000206" y2="55.000000000000256" /><line stroke="black" x1="55.00000000000004" x2="54.99999999999999" y1="55.000000000000256" y2="55.00000000000022" /><line stroke="black" x1="54.99999999999999" x2="55.00000000000003" y1="55.00000000000022" y2="55.00000000000017" /><line stroke="black" x1="55.000000000000036" x2="55.000000000000064" y1="55.00000000000018" y2="55.00000000000021" /><line stroke="black" x1="55.000000000000064" x2="55.00000000000003" y1="55.00000000000021" y2="55.00000000000024" /><line stroke="black" x1="55.00000000000003" x2="55.0" y1="55.00000000000024" y2="55.000000000000206" /><line stroke="black" x1="55.0" x2="55.000000000000036" y1="55.000000000000206" y2="55.00000000000018" /><line stroke="black" x1="55.00000000000004" x2="55.000000000000064" y1="55.000000000000185" y2="55.00000000000022" /><line stroke="black" x1="55.000000000000064" x2="55.00000000000003" y1="55.00000000000022" y2="55.00000000000024" /><line stroke="black" x1="55.00000000000003" x2="55.00000000000001" y1="55.00000000000024" y2="55.000000000000206" /><line stroke="black" x1="55.00000000000001" x2="55.00000000000004" y1="55.000000000000206" y2="55.000000000000185" /><line stroke="black" x1="55.00000000000005" x2="55.00000000000006" y1="55.00000000000019" y2="55.00000000000022" /><line stroke="black" x1="55.00000000000006" x2="55.00000000000003" y1="55.00000000000022" y2="55.00000000000023" /><line stroke="black" x1="55.00000000000003" x2="55.00000000000002" y1="55.00000000000023" y2="55.0000000000002" /><line stroke="black" x1="55.00000000000002" x2="55.00000000000005" y1="55.0000000000002" y2="55.00000000000019" /><line stroke="black" x1="55.00000000000005" x2="55.00000000000005" y1="55.0000000000002" y2="55.00000000000023" /><line stroke="black" x1="55.00000000000005" x2="55.00000000000002" y1="55.00000000000023" y2="55.00000000000023" /><line stroke="black" x1="55.00000000000002" x2="55.00000000000002" y1="55.00000000000023" y2="55.0000000000002" /><line stroke="black" x1="55.00000000000002" x2="55.00000000000005" y1="55.0000000000002" y2="55.0000000000002" /><line stroke="black" x1="55.00000000000005" x2="55.00000000000004" y1="55.000000000000206" y2="55.00000000000023" /><line stroke="black" x1="55.00000000000004" x2="55.00000000000002" y1="55.00000000000023" y2="55.00000000000022" /><line stroke="black" x1="55.00000000000002" x2="55.00000000000003" y1="55.00000000000022" y2="55.0000000000002" /><line stroke="black" x1="55.00000000000003" x2="55.00000000000005" y1="55.0000000000002" y2="55.000000000000206" /><line stroke="black" x1="55.00000000000005" x2="55.00000000000004" y1="55.00000000000021" y2="55.00000000000023" /><line stroke="black" x1="55.00000000000004" x2="55.00000000000003" y1="55.00000000000023" y2="55.00000000000022" /><line stroke="black" x1="55.00000000000003" x2="55.000000000000036" y1="55.00000000000022" y2="55.000000000000206" /><line stroke="black" x1="55.000000000000036" x2="55.00000000000005" y1="55.000000000000206" y2="55.00000000000021" /><line stroke="black" x1="55.00000000000005" x2="55.00000000000004" y1="55.00000000000021" y2="55.00000000000023" /><line stroke="black" x1="55.00000000000004" x2="55.00000000000003" y1="55.00000000000023" y2="55.00000000000022" /><line stroke="black" x1="55.00000000000003" x2="55.000000000000036" y1="55.00000000000022" y2="55.000000000000206" /><line stroke="black" x1="55.000000000000036" x2="55.00000000000005" y1="55.000000000000206" y2="55.00000000000021" /><line stroke="black" x1="55.00000000000005" x2="55.00000000000004" y1="55.00000000000021" y2="55.00000000000022" /><line stroke="black" x1="55.00000000000004" x2="55.000000000000036" y1="55.00000000000022" y2="55.00000000000021" /><line stroke="black" x1="55.000000000000036" x2="55.00000000000004" y1="55.00000000000021" y2="55.000000000000206" /><line stroke="black" x1="55.00000000000004" x2="55.00000000000005" y1="55.000000000000206" y2="55.00000000000021" /><line stroke="black" x1="55.00000000000005" x2="55.00000000000004" y1="55.00000000000021" y2="55.00000000000021" /><line stroke="black" x1="55.00000000000004" x2="55.00000000000004" y1="55.00000000000021" y2="55.000000000000206" /><line stroke="black" x1="55.00000000000004" x2="55.00000000000005" y1="55.000000000000206" y2="55.000000000000206" /><line stroke="black" x1="55.00000000000005" x2="55.00000000000005" y1="55.000000000000206" y2="55.00000000000021" /><line stroke="black" x1="55.00000000000005" x2="55.00000000000004" y1="55.00000000000021" y2="55.00000000000021" /><line stroke="black" x1="55.00000000000004" x2="55.00000000000004" y1="55.00000000000021" y2="55.000000000000206" /><line stroke="black" x1="55.00000000000004" x2="55.00000000000005" y1="55.000000000000206" y2="55.000000000000206" /><line stroke="black" x1="55.00000000000005" x2="55.00000000000005" y1="55.000000000000206" y2="55.00000000000021" /><line stroke="black" x1="55.00000000000005" x2="55.00000000000004" y1="55.00000000000021" y2="55.00000000000021" /><line stroke="black" x1="55.00000000000004" x2="55.00000000000004" y1="55.00000000000021" y2="55.000000000000206" /><line stroke="black" x1="55.00000000000004" x2="55.00000000000005" y1="55.000000000000206" y2="55.000000000000206" /><line stroke="black" x1="55.00000000000005" x2="55.00000000000005" y1="55.000000000000206" y2="55.00000000000021" /><line stroke="black" x1="55.00000000000005" x2="55.00000000000004" y1="55.00000000000021" y2="55.00000000000021" /><line stroke="black" x1="55.00000000000004" x2="55.00000000000004" y1="55.00000000000021" y2="55.000000000000206" /><line stroke="black" x1="55.00000000000004" x2="55.00000000000005" y1="55.000000000000206" y2="55.000000000000206" /><line stroke="black" x1="55.00000000000005" x2="55.00000000000005" y1="55.000000000000206" y2="55.00000000000021" /><line stroke="black" x1="55.00000000000005" x2="55.00000000000004" y1="55.00000000000021" y2="55.00000000000021" /><line stroke="black" x1="55.00000000000004" x2="55.00000000000004" y1="55.00000000000021" y2="55.000000000000206" /><line stroke="black" x1="55.00000000000004" x2="55.00000000000005" y1="55.000000000000206" y2="55.000000000000206" /><line stroke="black" x1="55.00000000000005" x2="55.00000000000005" y1="55.000000000000206" y2="55.00000000000021" /><line stroke="black" x1="55.00000000000005" x2="55.00000000000005" y1="55.00000000000021" y2="55.00000000000021" /><line stroke="black" x1="55.00000000000005" x2="55.00000000000005" y1="55.00000000000021" y2="55.00000000000021" /><line stroke="black" x1="55.00000000000005" x2="55.00000000000005" y1="55.00000000000021" y2="55.00000000000021" /><line stroke="black" x1="55.00000000000005" x2="55.00000000000005" y1="55.00000000000021" y2="55.00000000000021" /><line stroke="black" x1="55.00000000000005" x2="55.00000000000005" y1="55.00000000000021" y2="55.00000000000021" /><line stroke="black" x1="55.00000000000005" x2="55.00000000000005" y1="55.00000000000021" y2="55.00000000000021" /><line stroke="black" x1="55.00000000000005" x2="55.00000000000005" y1="55.00000000000021" y2="55.00000000000021" /><line stroke="black" x1="55.00000000000005" x2="55.00000000000005" y1="55.00000000000021" y2="55.00000000000021" /><line stroke="black" x1="55.00000000000005" x2="55.00000000000005" y1="55.00000000000021" y2="55.00000000000021" /><line stroke="black" x1="55.00000000000005" x2="55.00000000000005" y1="55.00000000000021" y2="55.00000000000021" /><line stroke="black" x1="55.00000000000005" x2="55.00000000000005" y1="55.00000000000021" y2="55.00000000000021" /><line stroke="black" x1="55.00000000000005" x2="55.00000000000005" y1="55.00000000000021" y2="55.00000000000021" /><line stroke="black" x1="55.00000000000005" x2="55.00000000000005" y1="55.00000000000021" y2="55.00000000000021" /><line stroke="black" x1="55.00000000000005" x2="55.00000000000005" y1="55.00000000000021" y2="55.00000000000021" /><line stroke="black" x1="55.00000000000005" x2="55.00000000000005" y1="55.00000000000021" y2="55.00000000000021" /><line stroke="black" x1="55.00000000000005" x2="55.00000000000005" y1="55.00000000000021" y2="55.00000000000021" /></svg>