<?xml version="1.0" encoding="utf-8" ?>
<svg baseProfile="full" height="100%" preserveAspectRatio="xMinYMin meet" version="1.1" viewBox="0, 0, 150.0, 150.0" width="100%" xmlns="http://www.w3.org/2000/svg" xmlns:ev="http://www.w3.org/2001/xml-events" xmlns:xlink="http://www.w3.org/1999/xlink"><defs /><line stroke="black" x1="65" x2="115.0" y1="25" y2="25.0" /><line stroke="black" x1="115.0" x2="115.0" y1="25.0" y2="75.0" /><line stroke="black" x1="115.0" x2="65.0" y1="75.0" y2="75.0" /><line stroke="black" x1="65.0" x2="64.99999999999999" y1="75.0" y2="25.0" /><line stroke="black" x1="74.99999999999999" x2="123.50712500726658" y1="25.0" y2="37.12678125181665" /><line stroke="black" x1="123.50712500726658" x2="111.38034375544993" y1="37.12678125181665" y2="85.63390625908325" /><line stroke="black" x1="111.38034375544993" x2="62.873218748183334" y1="85.63390625908325" y2="73.50712500726661" /><line stroke="black" x1="62.873218748183334" x2="75.00000000000001" y1="73.50712500726661" y2="25.00000000000003" /><line stroke="black" x1="84.70142500145333" x2="128.81907206027685" y1="27.425356250363365" y2="50.95476801506927" /><line stroke="black" x1="128.81907206027685" x2="105.28966029557094" y1="50.95476801506927" y2="95.07241507389278" /><line stroke="black" x1="105.28966029557094" x2="61.172013236747425" y1="95.07241507389278" y2="71.54300330918687" /><line stroke="black" x1="61.172013236747425" x2="84.70142500145334" y1="71.54300330918687" y2="27.425356250363357" /><line stroke="black" x1="93.52495441321804" x2="130.6186382423042" y1="32.131238603304546" y2="65.65822206420944" /><line stroke="black" x1="130.6186382423042" x2="97.09165478139931" y1="65.65822206420944" y2="102.75190589329563" /><line stroke="black" x1="97.09165478139931" x2="59.997970952313125" y1="102.75190589329563" y2="69.22492243239074" /><line stroke="black" x1="59.997970952313125" x2="93.52495441321804" y1="69.22492243239074" y2="32.13123860330458" /><line stroke="black" x1="100.94369117903527" x2="128.79836245931202" y1="38.836635295485564" y2="80.35912664496658" /><line stroke="black" x1="128.79836245931202" x2="87.275871109831" y1="80.35912664496658" y2="108.21379792524333" /><line stroke="black" x1="87.275871109831" x2="59.42119982955427" y1="108.21379792524333" y2="66.6913065757623" /><line stroke="black" x1="59.42119982955427" x2="100.94369117903528" y1="66.6913065757623" y2="38.836635295485564" /><line stroke="black" x1="106.51462543509064" x2="123.46694247915255" y1="47.14113356538177" y2="94.17961724457373" /><line stroke="black" x1="123.46694247915255" x2="76.4284587999606" y1="94.17961724457373" y2="111.13193428863566" /><line stroke="black" x1="76.4284587999606" x2="59.47614175589867" y1="111.13193428863566" y2="64.09345060944372" /><line stroke="black" x1="59.47614175589867" x2="106.51462543509064" y1="64.09345060944372" y2="47.14113356538183" /><line stroke="black" x1="109.90508884390302" x2="114.94274404439138" y1="56.54883030122022" y2="106.29440327089253" /><line stroke="black" x1="114.94274404439138" x2="65.19717107471905" y1="106.29440327089253" y2="111.3320584713809" /><line stroke="black" x1="65.19717107471905" x2="60.1595158742307" y1="111.3320584713809" y2="61.58648550170859" /><line stroke="black" x1="60.1595158742307" x2="109.90508884390302" y1="61.58648550170859" y2="56.548830301220235" /><line stroke="black" x1="110.91261988400068" x2="103.73478966208258" y1="66.4979448951547" y2="115.98005027988262" /><line stroke="black" x1="103.73478966208258" x2="54.25268427735467" y1="115.98005027988262" y2="108.8022200579645" /><line stroke="black" x1="54.25268427735467" x2="61.430514499272796" y1="108.8022200579645" y2="59.320114673236596" /><line stroke="black" x1="61.430514499272796" x2="110.9126198840007" y1="59.320114673236596" y2="66.49794489515472" /><line stroke="black" x1="109.47705383961708" x2="90.51236232490803" y1="76.3943659721003" y2="122.65817986321744" /><line stroke="black" x1="90.51236232490803" x2="44.248548433790894" y1="122.65817986321744" y2="103.69348834850838" /><line stroke="black" x1="44.248548433790894" x2="63.21323994849996" y1="103.69348834850838" y2="57.42967445739125" /><line stroke="black" x1="63.21323994849996" x2="109.47705383961707" y1="57.42967445739125" y2="76.39436597210033" /><line stroke="black" x1="105.68411553667525" x2="76.06503927746374" y1="85.64712875032376" y2="125.93000751476924" /><line stroke="black" x1="76.06503927746374" x2="35.782160513018255" y1="125.93000751476924" y2="96.31093125555773" /><line stroke="black" x1="35.782160513018255" x2="65.40123677222978" y1="96.31093125555773" y2="56.02805249111226" /><line stroke="black" x1="65.40123677222978" x2="105.68411553667525" y1="56.02805249111226" y2="85.64712875032379" /><line stroke="black" x1="99.76030028483294" x2="61.25554241132861" y1="93.70370450321289" y2="125.60015604727664" /><line stroke="black" x1="61.25554241132861" x2="29.359090867264864" y1="125.60015604727664" y2="87.09539817377231" /><line stroke="black" x1="29.359090867264864" x2="67.86384874076921" y1="87.09539817377231" y2="55.198946629708594" /><line stroke="black" x1="67.86384874076921" x2="99.76030028483294" y1="55.198946629708594" y2="93.70370450321293" /><line stroke="black" x1="92.05934871013207" x2="46.96822082755931" y1="100.08299481202567" y2="121.68832254102504" /><line stroke="black" x1="46.96822082755931" x2="25.36289309855991" y1="121.68832254102504" y2="76.5971946584523" /><line stroke="black" x1="25.36289309855991" x2="70.45402098113269" y1="76.5971946584523" y2="54.99186692945294" /><line stroke="black" x1="70.45402098113269" x2="92.05934871013204" y1="54.99186692945294" y2="100.0829948120257" /><line stroke="black" x1="83.04112313361749" x2="34.05624193037778" y1="104.40406035782557" y2="114.42810213270326" /><line stroke="black" x1="34.05624193037778" x2="24.03220015550013" y1="114.42810213270326" y2="65.44322092946354" /><line stroke="black" x1="24.03220015550013" x2="73.01708135873984" y1="65.44322092946354" y2="55.41917915458588" /><line stroke="black" x1="73.01708135873984" x2="83.0411231336175" y1="55.41917915458588" y2="104.4040603578256" /><line stroke="black" x1="73.24414689296957" x2="23.290644535876254" y1="106.40886871280114" y2="104.25303888188394" /><line stroke="black" x1="23.290644535876254" x2="25.44647436679347" y1="104.25303888188394" y2="54.299536524790625" /><line stroke="black" x1="25.44647436679347" x2="75.39997672388678" y1="54.299536524790625" y2="56.45536635570785" /><line stroke="black" x1="75.39997672388678" x2="73.24414689296955" y1="56.45536635570785" y2="106.40886871280117" /><line stroke="black" x1="63.25344642155089" x2="15.314296289338131" y1="105.97770274661772" y2="91.77073668763224" /><line stroke="black" x1="15.314296289338131" x2="29.521262348323653" y1="91.77073668763224" y2="43.83158655541949" /><line stroke="black" x1="29.521262348323653" x2="77.4604124805364" y1="43.83158655541949" y2="58.038552614405006" /><line stroke="black" x1="77.4604124805364" x2="63.2534464215509" y1="58.038552614405006" y2="105.97770274661775" /><line stroke="black" x1="53.665616395108344" x2="10.603504823987066" y1="103.13630953482065" y2="77.72657622184977" /><line stroke="black" x1="10.603504823987066" x2="36.01323813695798" y1="77.72657622184977" y2="34.6644646507285" /><line stroke="black" x1="36.01323813695798" x2="79.07534970807924" y1="34.6644646507285" y2="60.074197963699426" /><line stroke="black" x1="79.07534970807924" x2="53.66561639510833" y1="60.074197963699426" y2="103.1363095348207" /><line stroke="black" x1="45.053194080884076" x2="9.4395750508072" y1="98.05436287222652" y2="62.959204522668585" /><line stroke="black" x1="9.4395750508072" x2="44.53473340036516" y1="62.959204522668585" y2="27.345585492591738" /><line stroke="black" x1="44.53473340036516" x2="80.14835243044202" y1="27.345585492591738" y2="62.44074384214969" /><line stroke="black" x1="80.14835243044202" x2="45.05319408088406" y1="62.44074384214969" y2="98.05436287222656" /><line stroke="black" x1="37.93047027486869" x2="11.892011035865693" y1="91.03533120231498" y2="48.35045518681296" /><line stroke="black" x1="11.892011035865693" x2="54.576887051367706" y1="48.35045518681296" y2="22.31199594780996" /><line stroke="black" x1="54.576887051367706" x2="80.6153462903707" y1="22.31199594780996" y2="64.99687196331199" /><line stroke="black" x1="80.6153462903707" x2="37.930470274868675" y1="64.99687196331199" y2="91.03533120231498" /><line stroke="black" x1="32.72277842706808" x2="17.81436556502756" y1="82.49835599921457" y2="34.77268967662725" /><line stroke="black" x1="17.81436556502756" x2="65.54003188761489" y1="34.77268967662725" y2="19.864276814586773" /><line stroke="black" x1="65.54003188761489" x2="80.44844474965537" y1="19.864276814586773" y2="67.58994313717409" /><line stroke="black" x1="80.44844474965537" x2="32.722778427068036" y1="67.58994313717409" y2="82.49835599921457" /><line stroke="black" x1="29.74109585465994" x2="26.852985239305312" y1="72.9532227346971" y2="23.036704255605677" /><line stroke="black" x1="26.852985239305312" x2="76.76950371839675" y1="23.036704255605677" y2="20.148593640251047" /><line stroke="black" x1="76.76950371839675" x2="79.65761433375135" y1="20.148593640251047" y2="70.06511211934247" /><line stroke="black" x1="79.65761433375135" x2="29.741095854659925" y1="70.06511211934247" y2="72.95322273469709" /><line stroke="black" x1="29.163473731589" x2="38.468128887476695" y1="62.96991903887881" y2="13.84331328975329" /><line stroke="black" x1="38.468128887476695" x2="87.59473463660223" y1="13.84331328975329" y2="23.147968445640977" /><line stroke="black" x1="87.59473463660223" x2="78.29007948071454" y1="23.147968445640977" y2="72.2745741947665" /><line stroke="black" x1="78.29007948071454" x2="29.163473731589015" y1="72.2745741947665" y2="62.96991903887882" /><line stroke="black" x1="31.024404762766554" x2="51.966198209967224" y1="53.14459788905371" y2="7.741500117923792" /><line stroke="black" x1="51.966198209967224" x2="97.36929598109714" y1="7.741500117923792" y2="28.683293565124472" /><line stroke="black" x1="97.36929598109714" x2="76.42750253389646" y1="28.683293565124472" y2="74.0863913362544" /><line stroke="black" x1="76.42750253389646" x2="31.024404762766537" y1="74.0863913362544" y2="53.14459788905372" /><line stroke="black" x1="35.21276345220667" x2="66.5411560011078" y1="44.06397833482774" y2="5.095634511899405" /><line stroke="black" x1="66.5411560011078" x2="105.50949982403614" y1="5.095634511899405" y2="36.42402706080051" /><line stroke="black" x1="105.50949982403614" x2="74.18110727513502" y1="36.42402706080051" y2="75.39237088372886" /><line stroke="black" x1="74.18110727513502" x2="35.21276345220668" y1="75.39237088372886" y2="44.06397833482775" /><line stroke="black" x1="41.4784419619869" x2="81.32265866063685" y1="36.270309570242084" y2="6.06371433557479" /><line stroke="black" x1="81.32265866063685" x2="111.52925389530414" y1="6.06371433557479" y2="45.90793103422473" /><line stroke="black" x1="111.52925389530414" x2="71.68503719665419" y1="45.90793103422473" y2="76.11452626889202" /><line stroke="black" x1="71.68503719665419" x2="41.4784419619869" y1="76.11452626889202" y2="36.27030957024208" /><line stroke="black" x1="49.44728530171689" x2="95.42802876153706" y1="30.228990523308617" y2="10.587930702560545" /><line stroke="black" x1="95.42802876153706" x2="115.06908858228512" y1="10.587930702560545" y2="56.56867416238073" /><line stroke="black" x1="115.06908858228512" x2="69.08834512246494" y1="56.56867416238073" y2="76.20973398312879" /><line stroke="black" x1="69.08834512246494" x2="49.447285301716875" y1="76.20973398312879" y2="30.22899052330861" /><line stroke="black" x1="58.64343399368091" x2="108.01496413233312" y1="26.300778559158996" y2="18.398120033817204" /><line stroke="black" x1="108.01496413233312" x2="115.91762265767491" y1="18.398120033817204" y2="67.76965017246941" /><line stroke="black" x1="115.91762265767491" x2="66.54609251902272" y1="67.76965017246941" y2="75.67230869781122" /><line stroke="black" x1="66.54609251902272" x2="58.64343399368093" y1="75.67230869781122" y2="26.300778559159014" /><line stroke="black" x1="68.51774002141137" x2="118.33183593101651" y1="24.720246854090654" y2="29.027896875698886" /><line stroke="black" x1="118.33183593101651" x2="114.02418590940829" y1="29.027896875698886" y2="78.84199278530403" /><line stroke="black" x1="114.02418590940829" x2="64.21008999980316" y1="78.84199278530403" y2="74.5343427636958" /><line stroke="black" x1="64.21008999980316" x2="68.51774002141138" y1="74.5343427636958" y2="24.720246854090668" /><line stroke="black" x1="78.4805592033324" x2="125.76257216112755" y1="25.581776858412315" y2="41.842504107182336" /><line stroke="black" x1="125.76257216112755" x2="109.50184491235754" y1="41.842504107182336" y2="89.12451706497748" /><line stroke="black" x1="109.50184491235754" x2="62.219831954562395" y1="89.12451706497748" y2="72.86378981620746" /><line stroke="black" x1="62.219831954562395" x2="78.48055920333245" y1="72.86378981620746" y2="25.581776858412326" /><line stroke="black" x1="87.93696179489147" x2="129.86344641084506" y1="28.833922308166336" y2="56.07671746116428" /><line stroke="black" x1="129.86344641084506" x2="102.62065125784713" y1="56.07671746116428" y2="98.00320207711786" /><line stroke="black" x1="102.62065125784713" x2="60.694166641893545" y1="98.00320207711786" y2="70.76040692411993" /><line stroke="black" x1="60.694166641893545" x2="87.93696179489149" y1="70.76040692411993" y2="28.833922308166358" /><line stroke="black" x1="96.3222587180822" x2="130.38957497553903" y1="34.28248133876595" y2="70.88054089134901" /><line stroke="black" x1="130.38957497553903" x2="93.79151542295597" y1="70.88054089134901" y2="104.94785714880587" /><line stroke="black" x1="93.79151542295597" x2="59.724199165499115" y1="104.94785714880587" y2="68.3497975962228" /><line stroke="black" x1="59.724199165499115" x2="96.3222587180822" y1="68.3497975962228" y2="34.28248133876598" /><line stroke="black" x1="103.13572196957357" x2="127.30954008812176" y1="41.6020932492826" y2="85.36996408590602" /><line stroke="black" x1="127.30954008812176" x2="83.54166925149835" y1="85.36996408590602" y2="109.54378220445423" /><line stroke="black" x1="83.54166925149835" x2="59.36785113295016" y1="109.54378220445423" y2="65.77591136783082" /><line stroke="black" x1="59.36785113295016" x2="103.13572196957358" y1="65.77591136783082" y2="41.60209324928262" /><line stroke="black" x1="107.97048559328321" x2="120.80726603100011" y1="50.355667416607304" y2="98.67975114298383" /><line stroke="black" x1="120.80726603100011" x2="72.48318230462358" y1="98.67975114298383" y2="111.51653158070071" /><line stroke="black" x1="72.48318230462358" x2="59.64640186690667" y1="111.51653158070071" y2="63.192447854324186" /><line stroke="black" x1="59.64640186690667" x2="107.9704855932832" y1="63.192447854324186" y2="50.35566741660732" /><line stroke="black" x1="110.53784168082657" x2="111.27103609760508" y1="60.02048416188263" y2="110.01510813233773" /><line stroke="black" x1="111.27103609760508" x2="61.27641212714997" y1="110.01510813233773" y2="110.74830254911623" /><line stroke="black" x1="61.27641212714997" x2="60.543217710371465" y1="110.74830254911623" y2="60.75367857866112" /><line stroke="black" x1="60.543217710371465" x2="110.53784168082657" y1="60.75367857866112" y2="60.020484161882614" /><line stroke="black" x1="110.68448056418227" x2="99.27030625563758" y1="70.01940895597363" y2="118.69914421464321" /><line stroke="black" x1="99.27030625563758" x2="50.590570996968005" y1="118.69914421464321" y2="107.28496990609851" /><line stroke="black" x1="50.590570996968005" x2="62.00474530551272" y1="107.28496990609851" y2="58.60523464742894" /><line stroke="black" x1="62.00474530551272" x2="110.6844805641823" y1="58.60523464742894" y2="70.01940895597366" /><line stroke="black" x1="108.40164570247335" x2="85.52170008412251" y1="79.75535600770758" y2="124.21329217776959" /><line stroke="black" x1="85.52170008412251" x2="41.063763914060495" y1="124.21329217776959" y2="101.33334655941876" /><line stroke="black" x1="41.063763914060495" x2="63.943709532411326" y1="101.33334655941876" y2="56.87541038935674" /><line stroke="black" x1="63.943709532411326" x2="108.40164570247333" y1="56.87541038935674" y2="79.75535600770759" /><line stroke="black" x1="103.82565657880316" x2="70.84621559659564" y1="88.64694324172" y2="126.2282746777015" /><line stroke="black" x1="70.84621559659564" x2="33.26488416061414" y1="126.2282746777015" y2="93.248833695494" /><line stroke="black" x1="33.26488416061414" x2="66.24432514282167" y1="93.248833695494" y2="55.66750225951251" /><line stroke="black" x1="66.24432514282167" x2="103.82565657880315" y1="55.66750225951251" y2="88.64694324172004" /><line stroke="black" x1="97.22976838236164" x2="56.12019934496404" y1="96.16320952891634" y2="124.62376703504121" /><line stroke="black" x1="56.12019934496404" x2="27.65964183883917" y1="124.62376703504121" y2="83.5141979976436" /><line stroke="black" x1="27.65964183883917" x2="68.7692108762368" y1="83.5141979976436" y2="55.05364049151876" /><line stroke="black" x1="68.7692108762368" x2="97.22976838236164" y1="55.05364049151876" y2="96.16320952891638" /><line stroke="black" x1="89.00785457488212" x2="42.22301538541358" y1="101.85532103014135" y2="119.4955824232038" /><line stroke="black" x1="42.22301538541358" x2="24.582753992351158" y1="119.4955824232038" y2="72.71074323373526" /><line stroke="black" x1="24.582753992351158" x2="71.3675931818197" y1="72.71074323373526" y2="55.07048184067283" /><line stroke="black" x1="71.3675931818197" x2="89.00785457488212" y1="55.07048184067283" y2="101.85532103014137" /><line stroke="black" x1="79.65088673698841" x2="29.984534054049412" y1="105.38337330875385" y2="111.14995038479452" /><line stroke="black" x1="29.984534054049412" x2="24.217956978008782" y1="111.14995038479452" y2="61.483597701855516" /><line stroke="black" x1="24.217956978008782" x2="73.88430966094779" y1="61.483597701855516" y2="55.71702062581488" /><line stroke="black" x1="73.88430966094779" x2="79.65088673698844" y1="55.71702062581488" y2="105.38337330875389" /><line stroke="black" x1="69.71761620040064" x2="20.135576260016677" y1="106.53668872396202" y2="100.08523033456129" /><line stroke="black" x1="20.135576260016677" x2="26.58703464941743" y1="100.08523033456129" y2="50.503190394177324" /><line stroke="black" x1="26.58703464941743" x2="76.1690745898014" y1="50.503190394177324" y2="56.954648783578094" /><line stroke="black" x1="76.1690745898014" x2="69.71761620040064" y1="56.954648783578094" y2="106.53668872396206" /><line stroke="black" x1="59.80120821232385" x2="13.26427251512326" y1="105.24639704608191" y2="86.96215202708763" /><line stroke="black" x1="13.26427251512326" x2="31.54851753411758" y1="86.96215202708763" y2="40.42521632988705" /><line stroke="black" x1="31.54851753411758" x2="78.08545323131816" y1="40.42521632988705" y2="58.70946134888136" /><line stroke="black" x1="78.08545323131816" x2="59.80120821232384" y1="58.70946134888136" y2="105.24639704608194" /><line stroke="black" x1="50.493821072883726" x2="9.780942720498246" y1="101.58954804228308" y2="72.56436007968993" /><line stroke="black" x1="9.780942720498246" x2="38.80613068309141" y1="72.56436007968993" y2="31.851481727304467" /><line stroke="black" x1="38.80613068309141" x2="79.51900903547687" y1="31.851481727304467" y2="60.87666968989764" /><line stroke="black" x1="79.51900903547687" x2="50.493821072883705" y1="60.87666968989764" y2="101.5895480422831" /><line stroke="black" x1="42.35124540240661" x2="9.893593913815202" y1="95.78451044976447" y2="57.75161863432214" /><line stroke="black" x1="9.893593913815202" x2="47.92648572925755" y1="57.75161863432214" y2="25.29396714573076" /><line stroke="black" x1="47.92648572925755" x2="80.38413721784893" y1="25.29396714573076" y2="63.32685896117311" /><line stroke="black" x1="80.38413721784893" x2="42.35124540240659" y1="63.32685896117311" y2="95.7845104497645" /><line stroke="black" x1="35.85971510468831" x2="13.595499129097966" y1="88.17793208667602" y2="43.40847054208887" /><line stroke="black" x1="13.595499129097966" x2="58.36496067368511" y1="43.40847054208887" y2="21.14425456649852" /><line stroke="black" x1="58.36496067368511" x2="80.62917664927544" y1="21.14425456649852" y2="65.91371611108568" /><line stroke="black" x1="80.62917664927544" x2="35.85971510468827" y1="65.91371611108568" y2="88.17793208667601" /><line stroke="black" x1="31.4068719095702" x2="20.665599097491864" y1="79.22403977775858" y2="30.391416887148793" /><line stroke="black" x1="20.665599097491864" x2="69.49822198810165" y1="30.391416887148793" y2="19.650144075070454" /><line stroke="black" x1="69.49822198810165" x2="80.23949480017998" y1="19.650144075070454" y2="68.48276696568024" /><line stroke="black" x1="80.23949480017998" x2="31.406871909570206" y1="68.48276696568024" y2="79.22403977775859" /><line stroke="black" x1="29.25861734715454" x2="30.68170280143933" y1="69.45751519963663" y2="19.477771024723097" /><line stroke="black" x1="30.68170280143933" x2="80.66144697635286" y1="19.477771024723097" y2="20.900856479007896" /><line stroke="black" x1="80.66144697635286" x2="79.23836152206808" y1="20.900856479007896" y2="70.88060065392143" /><line stroke="black" x1="79.23836152206808" x2="29.25861734715454" y1="70.88060065392143" y2="69.45751519963665" /><line stroke="black" x1="29.5432344380115" x2="43.04569861117048" y1="59.46156636465394" y2="11.319241314314318" /><line stroke="black" x1="43.04569861117048" x2="91.1880236615101" y1="11.319241314314318" y2="24.82170548747328" /><line stroke="black" x1="91.1880236615101" x2="77.68555948835115" y1="24.82170548747328" y2="72.9640305378129" /><line stroke="black" x1="77.68555948835115" x2="29.543234438011517" y1="72.9640305378129" y2="59.46156636465395" /><line stroke="black" x1="32.24372727264331" x2="57.019270520500925" y1="49.83310135458602" y2="6.403014355208079" /><line stroke="black" x1="57.019270520500925" x2="100.44935751987886" y1="6.403014355208079" y2="31.178557603065702" /><line stroke="black" x1="100.44935751987886" x2="75.67381427202123" y1="31.178557603065702" y2="74.60864460244363" /><line stroke="black" x1="75.67381427202123" x2="32.2437272726433" y1="74.60864460244363" y2="49.83310135458601" /><line stroke="black" x1="37.19883592221482" x2="71.76798668692662" y1="41.147083954710425" y2="5.022662638838447" /><line stroke="black" x1="71.76798668692662" x2="107.89240800279856" y1="5.022662638838447" y2="39.591813403550276" /><line stroke="black" x1="107.89240800279856" x2="73.32325723808674" y1="39.591813403550276" y2="75.71623471942223" /><line stroke="black" x1="73.32325723808674" x2="37.19883592221479" y1="75.71623471942223" y2="41.14708395471041" /><line stroke="black" x1="44.11266607515715" x2="86.41112752885641" y1="33.922199691536015" y2="7.260613867547267" /><line stroke="black" x1="86.41112752885641" x2="113.07271335284516" y1="7.260613867547267" y2="49.559075321246524" /><line stroke="black" x1="113.07271335284516" x2="70.7742518991459" y1="49.559075321246524" y2="76.22066114523527" /><line stroke="black" x1="70.7742518991459" x2="44.11266607515715" y1="76.22066114523527" y2="33.922199691536" /><line stroke="black" x1="52.572358365897" x2="100.0742778951707" y1="28.58988252673825" y2="12.98322878436262" /><line stroke="black" x1="100.0742778951707" x2="115.68093163754631" y1="12.98322878436262" y2="60.485148313636316" /><line stroke="black" x1="115.68093163754631" x2="68.17901210827262" y1="60.485148313636316" y2="76.09180205601194" /><line stroke="black" x1="68.17901210827262" x2="52.57235836589699" y1="76.09180205601194" y2="28.589882526738258" /><line stroke="black" x1="62.07274227175172" x2="111.94154276571635" y1="25.46855177826313" y2="21.848781441190322" /><line stroke="black" x1="111.94154276571635" x2="115.56131310278917" y1="21.848781441190322" y2="71.71758193515495" /><line stroke="black" x1="115.56131310278917" x2="65.69251260882453" y1="71.71758193515495" y2="75.33735227222778" /><line stroke="black" x1="65.69251260882453" x2="62.07274227175172" y1="75.33735227222778" y2="25.46855177826314" /><line stroke="black" x1="72.04650237054464" x2="121.30426842219819" y1="24.74459771084858" y2="33.32786536370473" /><line stroke="black" x1="121.30426842219819" x2="112.72100076934204" y1="33.32786536370473" y2="82.58563141535828" /><line stroke="black" x1="112.72100076934204" x2="63.463234717688486" y1="82.58563141535828" y2="74.00236376250213" /><line stroke="black" x1="63.463234717688486" x2="72.04650237054463" y1="74.00236376250213" y2="24.744597710848574" /><line stroke="black" x1="81.89805558087534" x2="127.60335970476076" y1="26.461251241419802" y2="46.73500705880949" /><line stroke="black" x1="127.60335970476076" x2="107.32960388737108" y1="46.73500705880949" y2="92.44031118269491" /><line stroke="black" x1="107.32960388737108" x2="61.62429976348565" y1="92.44031118269491" y2="72.16655536530524" /><line stroke="black" x1="61.62429976348565" x2="81.89805558087532" y1="72.16655536530524" y2="26.461251241419816" /><line stroke="black" x1="91.03911640565241" x2="130.46266637929676" y1="30.516002404897748" y2="61.26959906407836" /><line stroke="black" x1="130.46266637929676" x2="99.70906972011615" y1="61.26959906407836" y2="100.69314903772273" /><line stroke="black" x1="99.70906972011615" x2="60.28551974647178" y1="100.69314903772273" y2="69.93955237854212" /><line stroke="black" x1="60.28551974647178" x2="91.03911640565241" y1="69.93955237854212" y2="30.516002404897762" /><line stroke="black" x1="98.92382640038127" x2="129.7114449485674" y1="36.66672173673389" y2="76.06370822214146" /><line stroke="black" x1="129.7114449485674" x2="90.31445846315982" y1="76.06370822214146" y2="106.85132677032756" /><line stroke="black" x1="90.31445846315982" x2="59.526839914973706" y1="106.85132677032756" y2="67.45434028492" /><line stroke="black" x1="59.526839914973706" x2="98.9238264003813" y1="67.45434028492" y2="36.66672173673391" /><line stroke="black" x1="105.08135011001852" x2="125.39455460009027" y1="44.54611903381543" y2="90.2339043089251" /><line stroke="black" x1="125.39455460009027" x2="79.7067693249806" y1="90.2339043089251" y2="110.54710879899686" /><line stroke="black" x1="79.7067693249806" x2="59.393564834908865" y1="110.54710879899686" y2="64.85932352388717" /><line stroke="black" x1="59.393564834908865" x2="105.08135011001855" y1="64.85932352388717" y2="44.54611903381543" /><line stroke="black" x1="109.1439910080329" x2="117.76977843976996" y1="53.683676088837366" y2="102.93401406922575" /><line stroke="black" x1="117.76977843976996" x2="68.51944045938157" y1="102.93401406922575" y2="111.55980150096282" /><line stroke="black" x1="68.51944045938157" x2="59.89365302764454" y1="111.55980150096282" y2="62.309463520574425" /><line stroke="black" x1="59.89365302764454" x2="109.14399100803294" y1="62.309463520574425" y2="53.683676088837395" /><line stroke="black" x1="110.86914849438035" x2="107.29242997380376" y1="63.53374368491507" y2="113.40565045239855" /><line stroke="black" x1="107.29242997380376" x2="57.42052320632028" y1="113.40565045239855" y2="109.82893193182196" /><line stroke="black" x1="57.42052320632028" x2="60.99724172689689" y1="109.82893193182196" y2="59.95702516433848" /><line stroke="black" x1="60.99724172689689" x2="110.86914849438037" y1="59.95702516433848" y2="63.5337436849151" /><line stroke="black" x1="110.15380479026504" x2="94.58816406279139" y1="73.5081250384118" y2="121.02349969486605" /><line stroke="black" x1="94.58816406279139" x2="47.07278940633715" y1="121.02349969486605" y2="105.45785896739241" /><line stroke="black" x1="47.07278940633715" x2="62.63843013381083" y1="105.45785896739241" y2="57.942484310938184" /><line stroke="black" x1="62.63843013381083" x2="110.15380479026506" y1="57.942484310938184" y2="73.50812503841186" /><line stroke="black" x1="107.04067664477031" x2="80.41561594191634" y1="83.0111999697027" y2="125.33266193132852" /><line stroke="black" x1="80.41561594191634" x2="38.09415398029052" y1="125.33266193132852" y2="98.70760122847454" /><line stroke="black" x1="38.09415398029052" x2="64.7192146831445" y1="98.70760122847454" y2="56.38613926684873" /><line stroke="black" x1="64.7192146831445" x2="107.0406766447703" y1="56.38613926684873" y2="83.01119996970273" /><line stroke="black" x1="101.71566450419951" x2="65.62109931809721" y1="91.4754923620279" y2="126.07581554008812" /><line stroke="black" x1="65.62109931809721" x2="31.020776140037" y1="126.07581554008812" y2="89.9812503539858" /><line stroke="black" x1="31.020776140037" x2="67.11534132613933" y1="89.9812503539858" y2="55.3809271759256" /><line stroke="black" x1="67.11534132613933" x2="101.71566450419954" y1="55.3809271759256" y2="91.47549236202792" /><line stroke="black" x1="94.49675146697908" x2="51.08806874722515" y1="98.39555699763996" y2="123.20858310361375" /><line stroke="black" x1="51.08806874722515" x2="26.275042641251357" y1="123.20858310361375" y2="79.79990038385984" /><line stroke="black" x1="26.275042641251357" x2="69.68372536100527" y1="79.79990038385984" y2="54.98687427788604" /><line stroke="black" x1="69.68372536100527" x2="94.49675146697905" y1="54.98687427788604" y2="98.39555699763997" /><line stroke="black" x1="85.81501492302826" x2="37.68436414561551" y1="103.35816221883472" y2="116.90218140601611" /><line stroke="black" x1="37.68436414561551" x2="24.14034495843409" y1="116.90218140601611" y2="68.77153062860337" /><line stroke="black" x1="24.14034495843409" x2="72.27099573584684" y1="68.77153062860337" y2="55.227511441421996" /><line stroke="black" x1="72.27099573584684" x2="85.81501492302823" y1="55.227511441421996" y2="103.35816221883474" /><line stroke="black" x1="76.18888476754567" x2="26.210387729657484" y1="106.06696605627101" y2="107.53319722283423" /><line stroke="black" x1="26.210387729657484" x2="24.744156563094265" y1="107.53319722283423" y2="57.55470018494604" /><line stroke="black" x1="24.744156563094265" x2="74.72265360098245" y1="57.55470018494604" y2="56.088469018382824" /><line stroke="black" x1="74.72265360098245" x2="76.18888476754564" y1="56.088469018382824" y2="106.06696605627101" /><line stroke="black" x1="66.193185359968" x2="17.35130799769493" y1="106.36021228958366" y2="95.66109944184355" /><line stroke="black" x1="17.35130799769493" x2="28.05042084543506" y1="95.66109944184355" y2="46.81922207957048" /><line stroke="black" x1="28.05042084543506" x2="76.89229820770812" y1="46.81922207957048" y2="57.51833492731061" /><line stroke="black" x1="76.89229820770812" x2="66.19318535996798" y1="57.51833492731061" y2="106.36021228958367" /><line stroke="black" x1="56.42480988751337" x2="11.636144893347002" y1="104.22038972003564" y2="81.99483037858516" /><line stroke="black" x1="11.636144893347002" x2="33.861704234797514" y1="81.99483037858516" y2="37.20616538441882" /><line stroke="black" x1="33.861704234797514" x2="78.65036922896387" y1="37.20616538441882" y2="59.431724725869316" /><line stroke="black" x1="78.65036922896387" x2="56.42480988751337" y1="59.431724725869316" y2="104.22038972003567" /><line stroke="black" x1="47.4670768886801" x2="9.406179379728648" y1="99.77527785174557" y2="67.35047128619928" /><line stroke="black" x1="9.406179379728648" x2="41.830985945274946" y1="67.35047128619928" y2="29.289573777247845" /><line stroke="black" x1="41.830985945274946" x2="79.89188345422637" y1="29.289573777247845" y2="61.71438034279416" /><line stroke="black" x1="79.89188345422637" x2="47.46707688868007" y1="61.71438034279416" y2="99.77527785174559" /><line stroke="black" x1="39.85489738688978" x2="10.794573846837373" y1="93.29031653863632" y2="52.60251006363111" /><line stroke="black" x1="10.794573846837373" x2="51.482380321842605" y1="52.60251006363111" y2="23.542186523578735" /><line stroke="black" x1="51.482380321842605" x2="80.54270386189499" y1="23.542186523578735" y2="64.22999299858397" /><line stroke="black" x1="80.54270386189499" x2="39.85489738688977" y1="64.22999299858397" y2="93.29031653863635" /><line stroke="black" x1="34.04283267887929" x2="15.718420319473399" y1="85.1527552436353" y2="38.631621210999626" /><line stroke="black" x1="15.718420319473399" x2="62.23955435210907" y1="38.631621210999626" y2="20.307208851593728" /><line stroke="black" x1="62.23955435210907" x2="80.56396671151495" y1="20.307208851593728" y2="66.8283428842294" /><line stroke="black" x1="80.56396671151495" x2="34.04283267887928" y1="66.8283428842294" y2="85.15275524363528" /><line stroke="black" x1="30.3779502069981" x2="23.88369130695436" y1="75.84852843710814" y2="26.272076352078876" /><line stroke="black" x1="23.88369130695436" x2="73.46014339198362" y1="26.272076352078876" y2="19.777817452035134" /><line stroke="black" x1="73.46014339198362" x2="79.95440229202738" y1="19.777817452035134" y2="69.3542695370644" /><line stroke="black" x1="79.95440229202738" x2="30.377950206998115" y1="69.3542695370644" y2="75.84852843710816" /><line stroke="black" x1="29.07909842698937" x2="34.80279765463621" y1="65.93323802010231" y2="16.26192570452688" /><line stroke="black" x1="34.80279765463621" x2="84.47410997021163" y1="16.26192570452688" y2="21.985624932173724" /><line stroke="black" x1="84.47410997021163" x2="78.75041074256478" y1="21.985624932173724" y2="71.65693724774916" /><line stroke="black" x1="78.75041074256478" x2="29.079098426989354" y1="71.65693724774916" y2="65.93323802010231" /><line stroke="black" x1="30.223838272518723" x2="47.823704930140885" y1="55.99897555698722" y2="9.198925411352548" /><line stroke="black" x1="47.823704930140885" x2="94.62375507577555" y1="9.198925411352548" y2="26.79879206897473" /><line stroke="black" x1="94.62375507577555" x2="77.02388841815338" y1="26.79879206897473" y2="73.59884221460939" /><line stroke="black" x1="77.02388841815338" x2="30.223838272518712" y1="73.59884221460939" y2="55.998975556987205" /><line stroke="black" x1="33.743811604043145" x2="62.16886965929641" y1="46.63896552786027" y2="5.504842533009857" /><line stroke="black" x1="62.16886965929641" x2="103.30299265414683" y1="5.504842533009857" y2="33.929900588263116" /><line stroke="black" x1="103.30299265414683" x2="74.87793459889357" y1="33.929900588263116" y2="75.06402358311352" /><line stroke="black" x1="74.87793459889357" x2="33.74381160404316" y1="75.06402358311352" y2="46.63896552786026" /><line stroke="black" x1="39.428823215093814" x2="76.98167033447083" y1="38.412140928890175" y2="5.400269227505277" /><line stroke="black" x1="76.98167033447083" x2="109.99354203585573" y1="5.400269227505277" y2="42.95311634688231" /><line stroke="black" x1="109.99354203585573" x2="72.44069491647869" y1="42.95311634688231" y2="75.9649880482672" /><line stroke="black" x1="72.44069491647869" x2="39.4288232150938" y1="75.9649880482672" y2="38.412140928890175" /><line stroke="black" x1="46.9393926389692" x2="91.37756056765167" y1="31.809766588613194" y2="8.891450089746684" /><line stroke="black" x1="91.37756056765167" x2="114.29587706651819" y1="8.891450089746684" y2="53.32961801842915" /><line stroke="black" x1="114.29587706651819" x2="69.85770913783573" y1="53.32961801842915" y2="76.24793451729568" /><line stroke="black" x1="69.85770913783573" x2="46.939392638969224" y1="76.24793451729568" y2="31.809766588613208" /><line stroke="black" x1="55.82702622470572" x2="104.49688977774892" y1="27.226103288839905" y2="15.76990925556003" /><line stroke="black" x1="104.49688977774892" x2="115.95308381102879" y1="15.76990925556003" y2="64.43977280860324" /><line stroke="black" x1="115.95308381102879" x2="67.28322025798559" y1="64.43977280860324" y2="75.89596684188311" /><line stroke="black" x1="67.28322025798559" x2="55.82702622470572" y1="75.89596684188311" y2="27.22610328883991" /><line stroke="black" x1="65.56099893531436" x2="115.5562372247949" y1="24.934864482183933" y2="25.624899537858123" /><line stroke="black" x1="115.5562372247949" x2="114.86620216912071" y1="25.624899537858123" y2="75.62013782733867" /><line stroke="black" x1="114.86620216912071" x2="64.87096387964017" y1="75.62013782733867" y2="74.93010277166448" /><line stroke="black" x1="64.87096387964017" x2="65.56099893531437" y1="74.93010277166448" y2="24.93486448218394" /><line stroke="black" x1="75.56004659321047" x2="123.89519397920382" y1="25.07287149331878" y2="37.86793019479803" /><line stroke="black" x1="123.89519397920382" x2="111.10013527772458" y1="37.86793019479803" y2="86.20307758079139" /><line stroke="black" x1="111.10013527772458" x2="62.764987891731224" y1="86.20307758079139" y2="73.40801887931214" /><line stroke="black" x1="62.764987891731224" x2="75.5600465932105" y1="73.40801887931214" y2="25.072871493318786" /><line stroke="black" x1="85.22707607040917" x2="129.01579924081" y1="27.63188323361464" y2="51.7679086542592" /><line stroke="black" x1="129.01579924081" x2="104.87977382016544" y1="51.7679086542592" y2="95.55663182466004" /><line stroke="black" x1="104.87977382016544" x2="61.0910506497646" y1="95.55663182466004" y2="71.42060640401547" /><line stroke="black" x1="61.0910506497646" x2="85.2270760704092" y1="71.42060640401547" y2="27.63188323361465" /><line stroke="black" x1="93.98482070448937" x2="130.612276067905" y1="32.45908831774357" y2="66.49479770657513" /><line stroke="black" x1="130.612276067905" x2="96.57656667907344" y1="66.49479770657513" y2="103.12225306999075" /><line stroke="black" x1="96.57656667907344" x2="59.94911131565781" y1="103.12225306999075" y2="69.08654368115921" /><line stroke="black" x1="59.94911131565781" x2="93.98482070448937" y1="69.08654368115921" y2="32.4590883177436" /><line stroke="black" x1="101.31031177717249" x2="128.5892908472228" y1="39.26623019550991" y2="81.1691811762673" /><line stroke="black" x1="128.5892908472228" x2="86.6863398664654" y1="81.1691811762673" y2="108.44816024631761" /><line stroke="black" x1="86.6863398664654" x2="59.407360796415084" y1="108.44816024631761" y2="66.54520926556023" /><line stroke="black" x1="59.407360796415084" x2="101.3103117771725" y1="66.54520926556023" y2="39.26623019550995" /><line stroke="black" x1="106.76610759118256" x2="123.06764614062851" y1="47.64682039166143" y2="94.9147782587084" /><line stroke="black" x1="123.06764614062851" x2="75.79968827358154" y1="94.9147782587084" y2="111.21631680815435" /><line stroke="black" x1="75.79968827358154" x2="59.4981497241356" y1="111.21631680815435" y2="63.948358941107365" /><line stroke="black" x1="59.4981497241356" x2="106.76610759118259" y1="63.948358941107365" y2="47.64682039166143" /><line stroke="black" x1="110.02641530107178" x2="114.37706696017146" y1="57.100411965070826" y2="106.91077062811574" /><line stroke="black" x1="114.37706696017146" x2="64.56670829712655" y1="106.91077062811574" y2="111.26142228721542" /><line stroke="black" x1="64.56670829712655" x2="60.216056638026906" y1="111.26142228721542" y2="61.45106362417051" /><line stroke="black" x1="60.216056638026906" x2="110.02641530107182" y1="61.45106362417051" y2="57.10041196507086" /></svg>