<?xml version="1.0" encoding="utf-8" ?>
<svg baseProfile="full" height="100%" preserveAspectRatio="xMinYMin meet" version="1.1" viewBox="0, 0, 150.0, 150.0" width="100%" xmlns="http://www.w3.org/2000/svg" xmlns:ev="http://www.w3.org/2001/xml-events" xmlns:xlink="http://www.w3.org/1999/xlink"><defs /><line stroke="black" stroke-width="0.2857142857142857" x1="5" x2="7.0" y1="55" y2="55.0" /><line stroke="black" stroke-width="0.2857142857142857" x1="7.0" x2="7.618033988749895" y1="55.0" y2="53.09788696740969" /><line stroke="black" stroke-width="0.2857142857142857" x1="7.618033988749895" x2="8.23606797749979" y1="53.09788696740969" y2="55.0" /><line stroke="black" stroke-width="0.2857142857142857" x1="8.23606797749979" x2="10.23606797749979" y1="55.0" y2="55.0" /><line stroke="black" stroke-width="0.2857142857142857" x1="10.23606797749979" x2="10.854101966249685" y1="55.0" y2="53.09788696740969" /><line stroke="black" stroke-width="0.2857142857142857" x1="10.854101966249685" x2="11.47213595499958" y1="53.09788696740969" y2="55.0" /><line stroke="black" stroke-width="0.2857142857142857" x1="11.47213595499958" x2="9.854101966249685" y1="55.0" y2="53.82442949541505" /><line stroke="black" stroke-width="0.2857142857142857" x1="9.854101966249685" x2="8.23606797749979" y1="53.82442949541505" y2="55.0" /><line stroke="black" stroke-width="0.2857142857142857" x1="8.23606797749979" x2="8.854101966249685" y1="55.0" y2="53.09788696740969" /><line stroke="black" stroke-width="0.2857142857142857" x1="8.854101966249685" x2="7.23606797749979" y1="53.09788696740969" y2="51.922316462824746" /><line stroke="black" stroke-width="0.2857142857142857" x1="7.23606797749979" x2="5.618033988749895" y1="51.922316462824746" y2="53.09788696740969" /><line stroke="black" stroke-width="0.2857142857142857" x1="5.618033988749895" x2="6.23606797749979" y1="53.09788696740969" y2="51.195773934819385" /><line stroke="black" stroke-width="0.2857142857142857" x1="6.23606797749979" x2="4.618033988749895" y1="51.195773934819385" y2="50.02020343023444" /><line stroke="black" stroke-width="0.2857142857142857" x1="4.618033988749895" x2="3.0" y1="50.02020343023444" y2="51.195773934819385" /><line stroke="black" stroke-width="0.2857142857142857" x1="3.0" x2="3.6180339887498945" y1="51.195773934819385" y2="49.29366090222908" /><line stroke="black" stroke-width="0.2857142857142857" x1="3.6180339887498945" x2="4.23606797749979" y1="49.29366090222908" y2="51.195773934819385" /><line stroke="black" stroke-width="0.2857142857142857" x1="4.23606797749979" x2="6.23606797749979" y1="51.195773934819385" y2="51.195773934819385" /><line stroke="black" stroke-width="0.2857142857142857" x1="6.23606797749979" x2="4.618033988749895" y1="51.195773934819385" y2="52.37134443940433" /><line stroke="black" stroke-width="0.2857142857142857" x1="4.618033988749895" x2="5.23606797749979" y1="52.37134443940433" y2="50.469231406814025" /><line stroke="black" stroke-width="0.2857142857142857" x1="5.23606797749979" x2="3.618033988749895" y1="50.469231406814025" y2="49.29366090222908" /><line stroke="black" stroke-width="0.2857142857142857" x1="3.618033988749895" x2="5.618033988749895" y1="49.29366090222908" y2="49.29366090222908" /><line stroke="black" stroke-width="0.2857142857142857" x1="5.618033988749895" x2="6.23606797749979" y1="49.29366090222908" y2="47.39154786963877" /><line stroke="black" stroke-width="0.2857142857142857" x1="6.23606797749979" x2="4.618033988749895" y1="47.39154786963877" y2="46.215977365053824" /><line stroke="black" stroke-width="0.2857142857142857" x1="4.618033988749895" x2="6.618033988749895" y1="46.215977365053824" y2="46.215977365053824" /><line stroke="black" stroke-width="0.2857142857142857" x1="6.618033988749895" x2="5.0" y1="46.215977365053824" y2="47.39154786963877" /><line stroke="black" stroke-width="0.2857142857142857" x1="5.0" x2="5.618033988749895" y1="47.39154786963877" y2="49.29366090222908" /><line stroke="black" stroke-width="0.2857142857142857" x1="5.618033988749895" x2="4.0" y1="49.29366090222908" y2="48.11809039764413" /><line stroke="black" stroke-width="0.2857142857142857" x1="4.0" x2="6.0" y1="48.11809039764413" y2="48.11809039764413" /><line stroke="black" stroke-width="0.2857142857142857" x1="6.0" x2="6.618033988749895" y1="48.11809039764413" y2="46.215977365053824" /><line stroke="black" stroke-width="0.2857142857142857" x1="6.618033988749895" x2="7.23606797749979" y1="46.215977365053824" y2="48.11809039764413" /><line stroke="black" stroke-width="0.2857142857142857" x1="7.23606797749979" x2="9.23606797749979" y1="48.11809039764413" y2="48.11809039764413" /><line stroke="black" stroke-width="0.2857142857142857" x1="9.23606797749979" x2="9.854101966249685" y1="48.11809039764413" y2="46.215977365053824" /><line stroke="black" stroke-width="0.2857142857142857" x1="9.854101966249685" x2="10.47213595499958" y1="46.215977365053824" y2="48.11809039764413" /><line stroke="black" stroke-width="0.2857142857142857" x1="10.47213595499958" x2="8.854101966249685" y1="48.11809039764413" y2="46.942519893059185" /><line stroke="black" stroke-width="0.2857142857142857" x1="8.854101966249685" x2="7.23606797749979" y1="46.942519893059185" y2="48.11809039764413" /><line stroke="black" stroke-width="0.2857142857142857" x1="7.23606797749979" x2="7.854101966249685" y1="48.11809039764413" y2="46.215977365053824" /><line stroke="black" stroke-width="0.2857142857142857" x1="7.854101966249685" x2="6.23606797749979" y1="46.215977365053824" y2="45.04040686046888" /><line stroke="black" stroke-width="0.2857142857142857" x1="6.23606797749979" x2="4.618033988749895" y1="45.04040686046888" y2="46.215977365053824" /><line stroke="black" stroke-width="0.2857142857142857" x1="4.618033988749895" x2="5.23606797749979" y1="46.215977365053824" y2="44.31386433246352" /><line stroke="black" stroke-width="0.2857142857142857" x1="5.23606797749979" x2="3.618033988749895" y1="44.31386433246352" y2="43.13829382787857" /><line stroke="black" stroke-width="0.2857142857142857" x1="3.618033988749895" x2="2.0" y1="43.13829382787857" y2="44.31386433246352" /><line stroke="black" stroke-width="0.2857142857142857" x1="2.0" x2="2.6180339887498945" y1="44.31386433246352" y2="42.41175129987321" /><line stroke="black" stroke-width="0.2857142857142857" x1="2.6180339887498945" x2="3.2360679774997894" y1="42.41175129987321" y2="44.31386433246352" /><line stroke="black" stroke-width="0.2857142857142857" x1="3.2360679774997894" x2="5.23606797749979" y1="44.31386433246352" y2="44.31386433246352" /><line stroke="black" stroke-width="0.2857142857142857" x1="5.23606797749979" x2="3.618033988749895" y1="44.31386433246352" y2="45.489434837048464" /><line stroke="black" stroke-width="0.2857142857142857" x1="3.618033988749895" x2="4.23606797749979" y1="45.489434837048464" y2="43.587321804458156" /><line stroke="black" stroke-width="0.2857142857142857" x1="4.23606797749979" x2="2.618033988749895" y1="43.587321804458156" y2="42.41175129987321" /><line stroke="black" stroke-width="0.2857142857142857" x1="2.618033988749895" x2="4.618033988749895" y1="42.41175129987321" y2="42.41175129987321" /><line stroke="black" stroke-width="0.2857142857142857" x1="4.618033988749895" x2="5.23606797749979" y1="42.41175129987321" y2="40.5096382672829" /><line stroke="black" stroke-width="0.2857142857142857" x1="5.23606797749979" x2="3.618033988749895" y1="40.5096382672829" y2="39.334067762697956" /><line stroke="black" stroke-width="0.2857142857142857" x1="3.618033988749895" x2="5.618033988749895" y1="39.334067762697956" y2="39.334067762697956" /><line stroke="black" stroke-width="0.2857142857142857" x1="5.618033988749895" x2="4.0" y1="39.334067762697956" y2="40.5096382672829" /><line stroke="black" stroke-width="0.2857142857142857" x1="4.0" x2="4.618033988749895" y1="40.5096382672829" y2="42.41175129987321" /><line stroke="black" stroke-width="0.2857142857142857" x1="4.618033988749895" x2="3.0" y1="42.41175129987321" y2="41.23618079528826" /><line stroke="black" stroke-width="0.2857142857142857" x1="3.0" x2="5.0" y1="41.23618079528826" y2="41.23618079528826" /><line stroke="black" stroke-width="0.2857142857142857" x1="5.0" x2="5.618033988749895" y1="41.23618079528826" y2="39.334067762697956" /><line stroke="black" stroke-width="0.2857142857142857" x1="5.618033988749895" x2="6.23606797749979" y1="39.334067762697956" y2="41.23618079528826" /><line stroke="black" stroke-width="0.2857142857142857" x1="6.23606797749979" x2="8.23606797749979" y1="41.23618079528826" y2="41.23618079528826" /><line stroke="black" stroke-width="0.2857142857142857" x1="8.23606797749979" x2="8.854101966249685" y1="41.23618079528826" y2="39.334067762697956" /><line stroke="black" stroke-width="0.2857142857142857" x1="8.854101966249685" x2="9.47213595499958" y1="39.334067762697956" y2="41.23618079528826" /><line stroke="black" stroke-width="0.2857142857142857" x1="9.47213595499958" x2="7.854101966249685" y1="41.23618079528826" y2="40.060610290703316" /><line stroke="black" stroke-width="0.2857142857142857" x1="7.854101966249685" x2="6.23606797749979" y1="40.060610290703316" y2="41.23618079528826" /><line stroke="black" stroke-width="0.2857142857142857" x1="6.23606797749979" x2="6.854101966249685" y1="41.23618079528826" y2="39.334067762697956" /><line stroke="black" stroke-width="0.2857142857142857" x1="6.854101966249685" x2="5.23606797749979" y1="39.334067762697956" y2="38.15849725811301" /><line stroke="black" stroke-width="0.2857142857142857" x1="5.23606797749979" x2="3.618033988749895" y1="38.15849725811301" y2="39.334067762697956" /><line stroke="black" stroke-width="0.2857142857142857" x1="3.618033988749895" x2="4.23606797749979" y1="39.334067762697956" y2="37.43195473010765" /><line stroke="black" stroke-width="0.2857142857142857" x1="4.23606797749979" x2="2.618033988749895" y1="37.43195473010765" y2="36.2563842255227" /><line stroke="black" stroke-width="0.2857142857142857" x1="2.618033988749895" x2="1.0000000000000002" y1="36.2563842255227" y2="37.43195473010765" /><line stroke="black" stroke-width="0.2857142857142857" x1="1.0000000000000002" x2="1.6180339887498947" y1="37.43195473010765" y2="35.52984169751734" /><line stroke="black" stroke-width="0.2857142857142857" x1="1.6180339887498947" x2="2.23606797749979" y1="35.52984169751734" y2="37.43195473010765" /><line stroke="black" stroke-width="0.2857142857142857" x1="2.23606797749979" x2="4.23606797749979" y1="37.43195473010765" y2="37.43195473010765" /><line stroke="black" stroke-width="0.2857142857142857" x1="4.23606797749979" x2="2.618033988749895" y1="37.43195473010765" y2="38.607525234692595" /><line stroke="black" stroke-width="0.2857142857142857" x1="2.618033988749895" x2="3.2360679774997894" y1="38.607525234692595" y2="36.70541220210229" /><line stroke="black" stroke-width="0.2857142857142857" x1="3.2360679774997894" x2="1.6180339887498942" y1="36.70541220210229" y2="35.52984169751734" /><line stroke="black" stroke-width="0.2857142857142857" x1="1.6180339887498942" x2="3.618033988749894" y1="35.52984169751734" y2="35.52984169751734" /><line stroke="black" stroke-width="0.2857142857142857" x1="3.618033988749894" x2="4.236067977499788" y1="35.52984169751734" y2="33.627728664927034" /><line stroke="black" stroke-width="0.2857142857142857" x1="4.236067977499788" x2="2.618033988749893" y1="33.627728664927034" y2="32.45215816034209" /><line stroke="black" stroke-width="0.2857142857142857" x1="2.618033988749893" x2="4.618033988749893" y1="32.45215816034209" y2="32.45215816034209" /><line stroke="black" stroke-width="0.2857142857142857" x1="4.618033988749893" x2="2.9999999999999982" y1="32.45215816034209" y2="33.627728664927034" /><line stroke="black" stroke-width="0.2857142857142857" x1="2.9999999999999982" x2="3.618033988749893" y1="33.627728664927034" y2="35.52984169751734" /><line stroke="black" stroke-width="0.2857142857142857" x1="3.618033988749893" x2="1.999999999999998" y1="35.52984169751734" y2="34.354271192932394" /><line stroke="black" stroke-width="0.2857142857142857" x1="1.999999999999998" x2="3.9999999999999982" y1="34.354271192932394" y2="34.354271192932394" /><line stroke="black" stroke-width="0.2857142857142857" x1="3.9999999999999982" x2="4.618033988749893" y1="34.354271192932394" y2="32.45215816034209" /><line stroke="black" stroke-width="0.2857142857142857" x1="4.618033988749893" x2="5.236067977499788" y1="32.45215816034209" y2="34.354271192932394" /><line stroke="black" stroke-width="0.2857142857142857" x1="5.236067977499788" x2="7.236067977499788" y1="34.354271192932394" y2="34.354271192932394" /><line stroke="black" stroke-width="0.2857142857142857" x1="7.236067977499788" x2="7.854101966249683" y1="34.354271192932394" y2="32.45215816034209" /><line stroke="black" stroke-width="0.2857142857142857" x1="7.854101966249683" x2="8.472135954999578" y1="32.45215816034209" y2="34.354271192932394" /><line stroke="black" stroke-width="0.2857142857142857" x1="8.472135954999578" x2="6.854101966249683" y1="34.354271192932394" y2="33.17870068834745" /><line stroke="black" stroke-width="0.2857142857142857" x1="6.854101966249683" x2="5.236067977499788" y1="33.17870068834745" y2="34.354271192932394" /><line stroke="black" stroke-width="0.2857142857142857" x1="5.236067977499788" x2="5.854101966249683" y1="34.354271192932394" y2="32.45215816034209" /><line stroke="black" stroke-width="0.2857142857142857" x1="5.854101966249683" x2="4.236067977499788" y1="32.45215816034209" y2="31.27658765575714" /><line stroke="black" stroke-width="0.2857142857142857" x1="4.236067977499788" x2="2.618033988749893" y1="31.27658765575714" y2="32.45215816034209" /><line stroke="black" stroke-width="0.2857142857142857" x1="2.618033988749893" x2="3.2360679774997876" y1="32.45215816034209" y2="30.55004512775178" /><line stroke="black" stroke-width="0.2857142857142857" x1="3.2360679774997876" x2="1.6180339887498925" y1="30.55004512775178" y2="29.374474623166833" /><line stroke="black" stroke-width="0.2857142857142857" x1="1.6180339887498925" x2="-2.220446049250313e-15" y1="29.374474623166833" y2="30.55004512775178" /><line stroke="black" stroke-width="0.2857142857142857" x1="-2.220446049250313e-15" x2="0.6180339887498922" y1="30.55004512775178" y2="28.647932095161472" /><line stroke="black" stroke-width="0.2857142857142857" x1="0.6180339887498922" x2="1.2360679774997871" y1="28.647932095161472" y2="30.55004512775178" /><line stroke="black" stroke-width="0.2857142857142857" x1="1.2360679774997871" x2="3.236067977499787" y1="30.55004512775178" y2="30.55004512775178" /><line stroke="black" stroke-width="0.2857142857142857" x1="3.236067977499787" x2="1.6180339887498925" y1="30.55004512775178" y2="31.725615632336726" /><line stroke="black" stroke-width="0.2857142857142857" x1="1.6180339887498925" x2="2.236067977499787" y1="31.725615632336726" y2="29.82350259974642" /><line stroke="black" stroke-width="0.2857142857142857" x1="2.236067977499787" x2="0.618033988749892" y1="29.82350259974642" y2="28.647932095161472" /><line stroke="black" stroke-width="0.2857142857142857" x1="0.618033988749892" x2="2.6180339887498922" y1="28.647932095161472" y2="28.647932095161472" /><line stroke="black" stroke-width="0.2857142857142857" x1="2.6180339887498922" x2="3.2360679774997867" y1="28.647932095161472" y2="26.745819062571165" /><line stroke="black" stroke-width="0.2857142857142857" x1="3.2360679774997867" x2="1.6180339887498916" y1="26.745819062571165" y2="25.57024855798622" /><line stroke="black" stroke-width="0.2857142857142857" x1="1.6180339887498916" x2="3.6180339887498913" y1="25.57024855798622" y2="25.57024855798622" /><line stroke="black" stroke-width="0.2857142857142857" x1="3.6180339887498913" x2="1.9999999999999967" y1="25.57024855798622" y2="26.745819062571165" /><line stroke="black" stroke-width="0.2857142857142857" x1="1.9999999999999967" x2="2.6180339887498913" y1="26.745819062571165" y2="28.647932095161472" /><line stroke="black" stroke-width="0.2857142857142857" x1="2.6180339887498913" x2="0.9999999999999962" y1="28.647932095161472" y2="27.472361590576526" /><line stroke="black" stroke-width="0.2857142857142857" x1="0.9999999999999962" x2="2.9999999999999964" y1="27.472361590576526" y2="27.472361590576526" /><line stroke="black" stroke-width="0.2857142857142857" x1="2.9999999999999964" x2="3.618033988749891" y1="27.472361590576526" y2="25.57024855798622" /><line stroke="black" stroke-width="0.2857142857142857" x1="3.618033988749891" x2="4.236067977499786" y1="25.57024855798622" y2="27.472361590576526" /><line stroke="black" stroke-width="0.2857142857142857" x1="4.236067977499786" x2="6.236067977499786" y1="27.472361590576526" y2="27.472361590576526" /><line stroke="black" stroke-width="0.2857142857142857" x1="6.236067977499786" x2="6.854101966249681" y1="27.472361590576526" y2="25.57024855798622" /><line stroke="black" stroke-width="0.2857142857142857" x1="6.854101966249681" x2="7.472135954999576" y1="25.57024855798622" y2="27.472361590576526" /><line stroke="black" stroke-width="0.2857142857142857" x1="7.472135954999576" x2="5.854101966249681" y1="27.472361590576526" y2="26.29679108599158" /><line stroke="black" stroke-width="0.2857142857142857" x1="5.854101966249681" x2="4.236067977499786" y1="26.29679108599158" y2="27.472361590576526" /><line stroke="black" stroke-width="0.2857142857142857" x1="4.236067977499786" x2="4.854101966249681" y1="27.472361590576526" y2="25.57024855798622" /><line stroke="black" stroke-width="0.2857142857142857" x1="4.854101966249681" x2="3.2360679774997863" y1="25.57024855798622" y2="24.39467805340127" /><line stroke="black" stroke-width="0.2857142857142857" x1="3.2360679774997863" x2="1.6180339887498916" y1="24.39467805340127" y2="25.57024855798622" /><line stroke="black" stroke-width="0.2857142857142857" x1="1.6180339887498916" x2="2.2360679774997863" y1="25.57024855798622" y2="23.66813552539591" /><line stroke="black" stroke-width="0.2857142857142857" x1="2.2360679774997863" x2="0.6180339887498911" y1="23.66813552539591" y2="22.492565020810964" /><line stroke="black" stroke-width="0.2857142857142857" x1="0.6180339887498911" x2="-1.0000000000000036" y1="22.492565020810964" y2="23.66813552539591" /><line stroke="black" stroke-width="0.2857142857142857" x1="-1.0000000000000036" x2="-0.3819660112501091" y1="23.66813552539591" y2="21.766022492805604" /><line stroke="black" stroke-width="0.2857142857142857" x1="-0.3819660112501091" x2="0.2360679774997858" y1="21.766022492805604" y2="23.66813552539591" /><line stroke="black" stroke-width="0.2857142857142857" x1="0.2360679774997858" x2="2.236067977499786" y1="23.66813552539591" y2="23.66813552539591" /><line stroke="black" stroke-width="0.2857142857142857" x1="2.236067977499786" x2="0.6180339887498911" y1="23.66813552539591" y2="24.843706029980858" /><line stroke="black" stroke-width="0.2857142857142857" x1="0.6180339887498911" x2="1.2360679774997856" y1="24.843706029980858" y2="22.94159299739055" /><line stroke="black" stroke-width="0.2857142857142857" x1="1.2360679774997856" x2="-0.38196601125010954" y1="22.94159299739055" y2="21.766022492805604" /><line stroke="black" stroke-width="0.2857142857142857" x1="-0.38196601125010954" x2="1.6180339887498905" y1="21.766022492805604" y2="21.766022492805604" /><line stroke="black" stroke-width="0.2857142857142857" x1="1.6180339887498905" x2="2.236067977499785" y1="21.766022492805604" y2="19.863909460215297" /><line stroke="black" stroke-width="0.2857142857142857" x1="2.236067977499785" x2="0.6180339887498898" y1="19.863909460215297" y2="18.68833895563035" /><line stroke="black" stroke-width="0.2857142857142857" x1="0.6180339887498898" x2="2.6180339887498896" y1="18.68833895563035" y2="18.68833895563035" /><line stroke="black" stroke-width="0.2857142857142857" x1="2.6180339887498896" x2="0.9999999999999949" y1="18.68833895563035" y2="19.863909460215297" /><line stroke="black" stroke-width="0.2857142857142857" x1="0.9999999999999949" x2="1.6180339887498898" y1="19.863909460215297" y2="21.766022492805604" /><line stroke="black" stroke-width="0.2857142857142857" x1="1.6180339887498898" x2="-5.329070518200751e-15" y1="21.766022492805604" y2="20.590451988220657" /></svg>