<?xml version="1.0" encoding="utf-8" ?>
<svg baseProfile="full" height="100%" preserveAspectRatio="xMinYMin meet" version="1.1" viewBox="0, 0, 150.0, 150.0" width="100%" xmlns="http://www.w3.org/2000/svg" xmlns:ev="http://www.w3.org/2001/xml-events" xmlns:xlink="http://www.w3.org/1999/xlink"><defs /><line stroke="black" stroke-width="0.2857142857142857" x1="5" x2="7.0" y1="45" y2="45.0" /><line stroke="black" stroke-width="0.2857142857142857" x1="7.0" x2="9.0" y1="45.0" y2="45.0" /><line stroke="black" stroke-width="0.2857142857142857" x1="9.0" x2="11.0" y1="45.0" y2="45.0" /><line stroke="black" stroke-width="0.2857142857142857" x1="11.0" x2="13.0" y1="45.0" y2="45.0" /><line stroke="black" stroke-width="0.2857142857142857" x1="13.0" x2="15.0" y1="45.0" y2="45.0" /><line stroke="black" stroke-width="0.2857142857142857" x1="15.0" x2="17.0" y1="45.0" y2="45.0" /><line stroke="black" stroke-width="0.2857142857142857" x1="17.0" x2="19.0" y1="45.0" y2="45.0" /><line stroke="black" stroke-width="0.2857142857142857" x1="19.0" x2="21.0" y1="45.0" y2="45.0" /><line stroke="black" stroke-width="0.2857142857142857" x1="21.0" x2="23.0" y1="45.0" y2="45.0" /><line stroke="black" stroke-width="0.2857142857142857" x1="23.0" x2="25.0" y1="45.0" y2="45.0" /><line stroke="black" stroke-width="0.2857142857142857" x1="25.0" x2="27.0" y1="45.0" y2="45.0" /><line stroke="black" stroke-width="0.2857142857142857" x1="27.0" x2="29.0" y1="45.0" y2="45.0" /><line stroke="black" stroke-width="0.2857142857142857" x1="29.0" x2="31.0" y1="45.0" y2="45.0" /><line stroke="black" stroke-width="0.2857142857142857" x1="31.0" x2="33.0" y1="45.0" y2="45.0" /><line stroke="black" stroke-width="0.2857142857142857" x1="33.0" x2="35.0" y1="45.0" y2="45.0" /><line stroke="black" stroke-width="0.2857142857142857" x1="35.0" x2="37.0" y1="45.0" y2="45.0" /><line stroke="black" stroke-width="0.2857142857142857" x1="37.0" x2="39.0" y1="45.0" y2="45.0" /><line stroke="black" stroke-width="0.2857142857142857" x1="39.0" x2="41.0" y1="45.0" y2="45.0" /><line stroke="black" stroke-width="0.2857142857142857" x1="41.0" x2="43.0" y1="45.0" y2="45.0" /><line stroke="black" stroke-width="0.2857142857142857" x1="43.0" x2="45.0" y1="45.0" y2="45.0" /><line stroke="black" stroke-width="0.2857142857142857" x1="45.0" x2="47.0" y1="45.0" y2="45.0" /><line stroke="black" stroke-width="0.2857142857142857" x1="47.0" x2="49.0" y1="45.0" y2="45.0" /><line stroke="black" stroke-width="0.2857142857142857" x1="49.0" x2="51.0" y1="45.0" y2="45.0" /><line stroke="black" stroke-width="0.2857142857142857" x1="51.0" x2="53.0" y1="45.0" y2="45.0" /><line stroke="black" stroke-width="0.2857142857142857" x1="53.0" x2="55.0" y1="45.0" y2="45.0" /><line stroke="black" stroke-width="0.2857142857142857" x1="55.0" x2="57.0" y1="45.0" y2="45.0" /><line stroke="black" stroke-width="0.2857142857142857" x1="57.0" x2="59.0" y1="45.0" y2="45.0" /><line stroke="black" stroke-width="0.2857142857142857" x1="59.0" x2="61.0" y1="45.0" y2="45.0" /><line stroke="black" stroke-width="0.2857142857142857" x1="61.0" x2="63.0" y1="45.0" y2="45.0" /><line stroke="black" stroke-width="0.2857142857142857" x1="63.0" x2="65.0" y1="45.0" y2="45.0" /><line stroke="black" stroke-width="0.2857142857142857" x1="65.0" x2="67.0" y1="45.0" y2="45.0" /><line stroke="black" stroke-width="0.2857142857142857" x1="67.0" x2="69.0" y1="45.0" y2="45.0" /><line stroke="black" stroke-width="0.2857142857142857" x1="69.0" x2="70.8126155740733" y1="45.0" y2="45.8452365234814" /><line stroke="black" stroke-width="0.2857142857142857" x1="70.8126155740733" x2="72.62523114814661" y1="45.8452365234814" y2="46.69047304696279" /><line stroke="black" stroke-width="0.2857142857142857" x1="72.62523114814661" x2="74.43784672221992" y1="46.69047304696279" y2="47.53570957044419" /><line stroke="black" stroke-width="0.2857142857142857" x1="74.43784672221992" x2="76.25046229629322" y1="47.53570957044419" y2="48.38094609392559" /><line stroke="black" stroke-width="0.2857142857142857" x1="76.25046229629322" x2="78.06307787036653" y1="48.38094609392559" y2="49.226182617406984" /><line stroke="black" stroke-width="0.2857142857142857" x1="78.06307787036653" x2="79.87569344443983" y1="49.226182617406984" y2="50.07141914088838" /><line stroke="black" stroke-width="0.2857142857142857" x1="79.87569344443983" x2="81.68830901851314" y1="50.07141914088838" y2="50.91665566436978" /><line stroke="black" stroke-width="0.2857142857142857" x1="81.68830901851314" x2="83.50092459258644" y1="50.91665566436978" y2="51.761892187851174" /><line stroke="black" stroke-width="0.2857142857142857" x1="83.50092459258644" x2="85.31354016665975" y1="51.761892187851174" y2="52.60712871133257" /><line stroke="black" stroke-width="0.2857142857142857" x1="85.31354016665975" x2="87.12615574073305" y1="52.60712871133257" y2="53.45236523481397" /><line stroke="black" stroke-width="0.2857142857142857" x1="87.12615574073305" x2="88.93877131480636" y1="53.45236523481397" y2="54.297601758295365" /><line stroke="black" stroke-width="0.2857142857142857" x1="88.93877131480636" x2="90.75138688887967" y1="54.297601758295365" y2="55.14283828177676" /><line stroke="black" stroke-width="0.2857142857142857" x1="90.75138688887967" x2="92.56400246295297" y1="55.14283828177676" y2="55.98807480525816" /><line stroke="black" stroke-width="0.2857142857142857" x1="92.56400246295297" x2="94.37661803702628" y1="55.98807480525816" y2="56.833311328739555" /><line stroke="black" stroke-width="0.2857142857142857" x1="94.37661803702628" x2="96.18923361109958" y1="56.833311328739555" y2="57.67854785222095" /><line stroke="black" stroke-width="0.2857142857142857" x1="96.18923361109958" x2="98.00184918517289" y1="57.67854785222095" y2="58.52378437570235" /><line stroke="black" stroke-width="0.2857142857142857" x1="98.00184918517289" x2="99.28742440454596" y1="58.52378437570235" y2="60.055873261940306" /><line stroke="black" stroke-width="0.2857142857142857" x1="99.28742440454596" x2="100.57299962391903" y1="60.055873261940306" y2="61.58796214817826" /><line stroke="black" stroke-width="0.2857142857142857" x1="100.57299962391903" x2="101.8585748432921" y1="61.58796214817826" y2="63.12005103441622" /><line stroke="black" stroke-width="0.2857142857142857" x1="101.8585748432921" x2="103.14415006266518" y1="63.12005103441622" y2="64.65213992065418" /><line stroke="black" stroke-width="0.2857142857142857" x1="103.14415006266518" x2="104.42972528203825" y1="64.65213992065418" y2="66.18422880689214" /><line stroke="black" stroke-width="0.2857142857142857" x1="104.42972528203825" x2="105.71530050141132" y1="66.18422880689214" y2="67.7163176931301" /><line stroke="black" stroke-width="0.2857142857142857" x1="105.71530050141132" x2="107.00087572078439" y1="67.7163176931301" y2="69.24840657936805" /><line stroke="black" stroke-width="0.2857142857142857" x1="107.00087572078439" x2="108.28645094015747" y1="69.24840657936805" y2="70.78049546560601" /><line stroke="black" stroke-width="0.2857142857142857" x1="108.28645094015747" x2="108.8040890303625" y1="70.78049546560601" y2="72.71234711818414" /><line stroke="black" stroke-width="0.2857142857142857" x1="108.8040890303625" x2="109.32172712056754" y1="72.71234711818414" y2="74.64419877076227" /><line stroke="black" stroke-width="0.2857142857142857" x1="109.32172712056754" x2="109.83936521077258" y1="74.64419877076227" y2="76.5760504233404" /><line stroke="black" stroke-width="0.2857142857142857" x1="109.83936521077258" x2="110.35700330097762" y1="76.5760504233404" y2="78.50790207591854" /><line stroke="black" stroke-width="0.2857142857142857" x1="110.35700330097762" x2="110.00970694564376" y1="78.50790207591854" y2="80.47751758194295" /><line stroke="black" stroke-width="0.2857142857142857" x1="110.00970694564376" x2="109.66241059030989" y1="80.47751758194295" y2="82.44713308796736" /><line stroke="black" stroke-width="0.2857142857142857" x1="109.66241059030989" x2="108.5152577176078" y1="82.44713308796736" y2="84.08543717654534" /><line stroke="black" stroke-width="0.2857142857142857" x1="109.66241059030989" x2="110.18004868051493" y1="82.44713308796736" y2="84.37898474054549" /><line stroke="black" stroke-width="0.2857142857142857" x1="110.35700330097762" x2="111.6425785203507" y1="78.50790207591854" y2="80.0399909621565" /><line stroke="black" stroke-width="0.2857142857142857" x1="111.6425785203507" x2="112.92815373972377" y1="80.0399909621565" y2="81.57207984839445" /><line stroke="black" stroke-width="0.2857142857142857" x1="112.92815373972377" x2="113.44579182992881" y1="81.57207984839445" y2="83.50393150097258" /><line stroke="black" stroke-width="0.2857142857142857" x1="112.92815373972377" x2="114.74076931379707" y1="81.57207984839445" y2="82.41731637187586" /><line stroke="black" stroke-width="0.2857142857142857" x1="108.28645094015747" x2="110.09906651423077" y1="70.78049546560601" y2="71.62573198908741" /><line stroke="black" stroke-width="0.2857142857142857" x1="110.09906651423077" x2="111.91168208830408" y1="71.62573198908741" y2="72.47096851256882" /><line stroke="black" stroke-width="0.2857142857142857" x1="111.91168208830408" x2="113.72429766237738" y1="72.47096851256882" y2="73.31620503605022" /><line stroke="black" stroke-width="0.2857142857142857" x1="113.72429766237738" x2="115.53691323645069" y1="73.31620503605022" y2="74.16144155953162" /><line stroke="black" stroke-width="0.2857142857142857" x1="115.53691323645069" x2="116.82248845582376" y1="74.16144155953162" y2="75.69353044576958" /><line stroke="black" stroke-width="0.2857142857142857" x1="116.82248845582376" x2="118.10806367519683" y1="75.69353044576958" y2="77.22561933200754" /><line stroke="black" stroke-width="0.2857142857142857" x1="118.10806367519683" x2="118.62570176540187" y1="77.22561933200754" y2="79.15747098458567" /><line stroke="black" stroke-width="0.2857142857142857" x1="118.10806367519683" x2="119.92067924927014" y1="77.22561933200754" y2="78.07085585548894" /><line stroke="black" stroke-width="0.2857142857142857" x1="115.53691323645069" x2="117.53691323645069" y1="74.16144155953162" y2="74.16144155953162" /><line stroke="black" stroke-width="0.2857142857142857" x1="117.53691323645069" x2="119.53691323645069" y1="74.16144155953162" y2="74.16144155953162" /><line stroke="black" stroke-width="0.2857142857142857" x1="119.53691323645069" x2="121.34952881052399" y1="74.16144155953162" y2="75.00667808301303" /><line stroke="black" stroke-width="0.2857142857142857" x1="119.53691323645069" x2="121.34952881052399" y1="74.16144155953162" y2="73.31620503605022" /><line stroke="black" stroke-width="0.2857142857142857" x1="98.00184918517289" x2="100.00184918517289" y1="58.52378437570235" y2="58.52378437570235" /><line stroke="black" stroke-width="0.2857142857142857" x1="100.00184918517289" x2="102.00184918517289" y1="58.52378437570235" y2="58.52378437570235" /><line stroke="black" stroke-width="0.2857142857142857" x1="102.00184918517289" x2="104.00184918517289" y1="58.52378437570235" y2="58.52378437570235" /><line stroke="black" stroke-width="0.2857142857142857" x1="104.00184918517289" x2="106.00184918517289" y1="58.52378437570235" y2="58.52378437570235" /><line stroke="black" stroke-width="0.2857142857142857" x1="106.00184918517289" x2="108.00184918517289" y1="58.52378437570235" y2="58.52378437570235" /><line stroke="black" stroke-width="0.2857142857142857" x1="108.00184918517289" x2="110.00184918517289" y1="58.52378437570235" y2="58.52378437570235" /><line stroke="black" stroke-width="0.2857142857142857" x1="110.00184918517289" x2="112.00184918517289" y1="58.52378437570235" y2="58.52378437570235" /><line stroke="black" stroke-width="0.2857142857142857" x1="112.00184918517289" x2="114.00184918517289" y1="58.52378437570235" y2="58.52378437570235" /><line stroke="black" stroke-width="0.2857142857142857" x1="114.00184918517289" x2="115.81446475924619" y1="58.52378437570235" y2="59.369020899183745" /><line stroke="black" stroke-width="0.2857142857142857" x1="115.81446475924619" x2="117.6270803333195" y1="59.369020899183745" y2="60.21425742266514" /><line stroke="black" stroke-width="0.2857142857142857" x1="117.6270803333195" x2="119.4396959073928" y1="60.21425742266514" y2="61.05949394614654" /><line stroke="black" stroke-width="0.2857142857142857" x1="119.4396959073928" x2="121.25231148146611" y1="61.05949394614654" y2="61.904730469627935" /><line stroke="black" stroke-width="0.2857142857142857" x1="121.25231148146611" x2="122.53788670083918" y1="61.904730469627935" y2="63.43681935586589" /><line stroke="black" stroke-width="0.2857142857142857" x1="122.53788670083918" x2="123.82346192021225" y1="63.43681935586589" y2="64.96890824210385" /><line stroke="black" stroke-width="0.2857142857142857" x1="123.82346192021225" x2="124.34110001041729" y1="64.96890824210385" y2="66.90075989468198" /><line stroke="black" stroke-width="0.2857142857142857" x1="123.82346192021225" x2="125.63607749428556" y1="64.96890824210385" y2="65.81414476558525" /><line stroke="black" stroke-width="0.2857142857142857" x1="121.25231148146611" x2="123.25231148146611" y1="61.904730469627935" y2="61.904730469627935" /><line stroke="black" stroke-width="0.2857142857142857" x1="123.25231148146611" x2="125.25231148146611" y1="61.904730469627935" y2="61.904730469627935" /><line stroke="black" stroke-width="0.2857142857142857" x1="125.25231148146611" x2="127.06492705553941" y1="61.904730469627935" y2="62.74996699310933" /><line stroke="black" stroke-width="0.2857142857142857" x1="125.25231148146611" x2="127.06492705553941" y1="61.904730469627935" y2="61.05949394614654" /><line stroke="black" stroke-width="0.2857142857142857" x1="114.00184918517289" x2="115.81446475924619" y1="58.52378437570235" y2="57.67854785222095" /><line stroke="black" stroke-width="0.2857142857142857" x1="115.81446475924619" x2="117.6270803333195" y1="57.67854785222095" y2="56.833311328739555" /><line stroke="black" stroke-width="0.2857142857142857" x1="117.6270803333195" x2="119.4396959073928" y1="56.833311328739555" y2="55.98807480525816" /><line stroke="black" stroke-width="0.2857142857142857" x1="119.4396959073928" x2="121.25231148146611" y1="55.98807480525816" y2="55.14283828177676" /><line stroke="black" stroke-width="0.2857142857142857" x1="121.25231148146611" x2="123.25231148146611" y1="55.14283828177676" y2="55.14283828177676" /><line stroke="black" stroke-width="0.2857142857142857" x1="123.25231148146611" x2="125.25231148146611" y1="55.14283828177676" y2="55.14283828177676" /><line stroke="black" stroke-width="0.2857142857142857" x1="125.25231148146611" x2="127.06492705553941" y1="55.14283828177676" y2="55.98807480525816" /><line stroke="black" stroke-width="0.2857142857142857" x1="125.25231148146611" x2="127.06492705553941" y1="55.14283828177676" y2="54.297601758295365" /><line stroke="black" stroke-width="0.2857142857142857" x1="121.25231148146611" x2="122.53788670083918" y1="55.14283828177676" y2="53.610749395538804" /><line stroke="black" stroke-width="0.2857142857142857" x1="122.53788670083918" x2="123.82346192021225" y1="53.610749395538804" y2="52.078660509300846" /><line stroke="black" stroke-width="0.2857142857142857" x1="123.82346192021225" x2="125.63607749428556" y1="52.078660509300846" y2="51.23342398581945" /><line stroke="black" stroke-width="0.2857142857142857" x1="123.82346192021225" x2="124.34110001041729" y1="52.078660509300846" y2="50.14680885672271" /><line stroke="black" stroke-width="0.2857142857142857" x1="69.0" x2="70.8126155740733" y1="45.0" y2="44.1547634765186" /><line stroke="black" stroke-width="0.2857142857142857" x1="70.8126155740733" x2="72.62523114814661" y1="44.1547634765186" y2="43.30952695303721" /><line stroke="black" stroke-width="0.2857142857142857" x1="72.62523114814661" x2="74.43784672221992" y1="43.30952695303721" y2="42.46429042955581" /><line stroke="black" stroke-width="0.2857142857142857" x1="74.43784672221992" x2="76.25046229629322" y1="42.46429042955581" y2="41.61905390607441" /><line stroke="black" stroke-width="0.2857142857142857" x1="76.25046229629322" x2="78.06307787036653" y1="41.61905390607441" y2="40.773817382593016" /><line stroke="black" stroke-width="0.2857142857142857" x1="78.06307787036653" x2="79.87569344443983" y1="40.773817382593016" y2="39.92858085911162" /><line stroke="black" stroke-width="0.2857142857142857" x1="79.87569344443983" x2="81.68830901851314" y1="39.92858085911162" y2="39.08334433563022" /><line stroke="black" stroke-width="0.2857142857142857" x1="81.68830901851314" x2="83.50092459258644" y1="39.08334433563022" y2="38.238107812148826" /><line stroke="black" stroke-width="0.2857142857142857" x1="83.50092459258644" x2="85.31354016665975" y1="38.238107812148826" y2="37.39287128866743" /><line stroke="black" stroke-width="0.2857142857142857" x1="85.31354016665975" x2="87.12615574073305" y1="37.39287128866743" y2="36.54763476518603" /><line stroke="black" stroke-width="0.2857142857142857" x1="87.12615574073305" x2="88.93877131480636" y1="36.54763476518603" y2="35.702398241704635" /><line stroke="black" stroke-width="0.2857142857142857" x1="88.93877131480636" x2="90.75138688887967" y1="35.702398241704635" y2="34.85716171822324" /><line stroke="black" stroke-width="0.2857142857142857" x1="90.75138688887967" x2="92.56400246295297" y1="34.85716171822324" y2="34.01192519474184" /><line stroke="black" stroke-width="0.2857142857142857" x1="92.56400246295297" x2="94.37661803702628" y1="34.01192519474184" y2="33.166688671260445" /><line stroke="black" stroke-width="0.2857142857142857" x1="94.37661803702628" x2="96.18923361109958" y1="33.166688671260445" y2="32.32145214777905" /><line stroke="black" stroke-width="0.2857142857142857" x1="96.18923361109958" x2="98.00184918517289" y1="32.32145214777905" y2="31.47621562429765" /><line stroke="black" stroke-width="0.2857142857142857" x1="98.00184918517289" x2="100.00184918517289" y1="31.47621562429765" y2="31.47621562429765" /><line stroke="black" stroke-width="0.2857142857142857" x1="100.00184918517289" x2="102.00184918517289" y1="31.47621562429765" y2="31.47621562429765" /><line stroke="black" stroke-width="0.2857142857142857" x1="102.00184918517289" x2="104.00184918517289" y1="31.47621562429765" y2="31.47621562429765" /><line stroke="black" stroke-width="0.2857142857142857" x1="104.00184918517289" x2="106.00184918517289" y1="31.47621562429765" y2="31.47621562429765" /><line stroke="black" stroke-width="0.2857142857142857" x1="106.00184918517289" x2="108.00184918517289" y1="31.47621562429765" y2="31.47621562429765" /><line stroke="black" stroke-width="0.2857142857142857" x1="108.00184918517289" x2="110.00184918517289" y1="31.47621562429765" y2="31.47621562429765" /><line stroke="black" stroke-width="0.2857142857142857" x1="110.00184918517289" x2="112.00184918517289" y1="31.47621562429765" y2="31.47621562429765" /><line stroke="black" stroke-width="0.2857142857142857" x1="112.00184918517289" x2="114.00184918517289" y1="31.47621562429765" y2="31.47621562429765" /><line stroke="black" stroke-width="0.2857142857142857" x1="114.00184918517289" x2="115.81446475924619" y1="31.47621562429765" y2="32.32145214777905" /><line stroke="black" stroke-width="0.2857142857142857" x1="115.81446475924619" x2="117.6270803333195" y1="32.32145214777905" y2="33.166688671260445" /><line stroke="black" stroke-width="0.2857142857142857" x1="117.6270803333195" x2="119.4396959073928" y1="33.166688671260445" y2="34.01192519474184" /><line stroke="black" stroke-width="0.2857142857142857" x1="119.4396959073928" x2="121.25231148146611" y1="34.01192519474184" y2="34.85716171822324" /><line stroke="black" stroke-width="0.2857142857142857" x1="121.25231148146611" x2="122.53788670083918" y1="34.85716171822324" y2="36.389250604461196" /><line stroke="black" stroke-width="0.2857142857142857" x1="122.53788670083918" x2="123.82346192021225" y1="36.389250604461196" y2="37.921339490699154" /><line stroke="black" stroke-width="0.2857142857142857" x1="123.82346192021225" x2="124.34110001041729" y1="37.921339490699154" y2="39.85319114327729" /><line stroke="black" stroke-width="0.2857142857142857" x1="123.82346192021225" x2="125.63607749428556" y1="37.921339490699154" y2="38.76657601418055" /><line stroke="black" stroke-width="0.2857142857142857" x1="121.25231148146611" x2="123.25231148146611" y1="34.85716171822324" y2="34.85716171822324" /><line stroke="black" stroke-width="0.2857142857142857" x1="123.25231148146611" x2="125.25231148146611" y1="34.85716171822324" y2="34.85716171822324" /><line stroke="black" stroke-width="0.2857142857142857" x1="125.25231148146611" x2="127.06492705553941" y1="34.85716171822324" y2="35.702398241704635" /><line stroke="black" stroke-width="0.2857142857142857" x1="125.25231148146611" x2="127.06492705553941" y1="34.85716171822324" y2="34.01192519474184" /><line stroke="black" stroke-width="0.2857142857142857" x1="114.00184918517289" x2="115.81446475924619" y1="31.47621562429765" y2="30.630979100816255" /><line stroke="black" stroke-width="0.2857142857142857" x1="115.81446475924619" x2="117.6270803333195" y1="30.630979100816255" y2="29.785742577334858" /><line stroke="black" stroke-width="0.2857142857142857" x1="117.6270803333195" x2="119.4396959073928" y1="29.785742577334858" y2="28.94050605385346" /><line stroke="black" stroke-width="0.2857142857142857" x1="119.4396959073928" x2="121.25231148146611" y1="28.94050605385346" y2="28.095269530372065" /><line stroke="black" stroke-width="0.2857142857142857" x1="121.25231148146611" x2="123.25231148146611" y1="28.095269530372065" y2="28.095269530372065" /><line stroke="black" stroke-width="0.2857142857142857" x1="123.25231148146611" x2="125.25231148146611" y1="28.095269530372065" y2="28.095269530372065" /><line stroke="black" stroke-width="0.2857142857142857" x1="125.25231148146611" x2="127.06492705553941" y1="28.095269530372065" y2="28.940506053853465" /><line stroke="black" stroke-width="0.2857142857142857" x1="125.25231148146611" x2="127.06492705553941" y1="28.095269530372065" y2="27.250033006890668" /><line stroke="black" stroke-width="0.2857142857142857" x1="121.25231148146611" x2="122.53788670083918" y1="28.095269530372065" y2="26.563180644134107" /><line stroke="black" stroke-width="0.2857142857142857" x1="122.53788670083918" x2="123.82346192021225" y1="26.563180644134107" y2="25.03109175789615" /><line stroke="black" stroke-width="0.2857142857142857" x1="123.82346192021225" x2="125.63607749428556" y1="25.03109175789615" y2="24.185855234414753" /><line stroke="black" stroke-width="0.2857142857142857" x1="123.82346192021225" x2="124.34110001041729" y1="25.03109175789615" y2="23.099240105318014" /><line stroke="black" stroke-width="0.2857142857142857" x1="98.00184918517289" x2="99.28742440454596" y1="31.47621562429765" y2="29.944126738059694" /><line stroke="black" stroke-width="0.2857142857142857" x1="99.28742440454596" x2="100.57299962391903" y1="29.944126738059694" y2="28.412037851821736" /><line stroke="black" stroke-width="0.2857142857142857" x1="100.57299962391903" x2="101.8585748432921" y1="28.412037851821736" y2="26.87994896558378" /><line stroke="black" stroke-width="0.2857142857142857" x1="101.8585748432921" x2="103.14415006266518" y1="26.87994896558378" y2="25.34786007934582" /><line stroke="black" stroke-width="0.2857142857142857" x1="103.14415006266518" x2="104.42972528203825" y1="25.34786007934582" y2="23.815771193107864" /><line stroke="black" stroke-width="0.2857142857142857" x1="104.42972528203825" x2="105.71530050141132" y1="23.815771193107864" y2="22.283682306869906" /><line stroke="black" stroke-width="0.2857142857142857" x1="105.71530050141132" x2="107.00087572078439" y1="22.283682306869906" y2="20.75159342063195" /><line stroke="black" stroke-width="0.2857142857142857" x1="107.00087572078439" x2="108.28645094015747" y1="20.75159342063195" y2="19.21950453439399" /><line stroke="black" stroke-width="0.2857142857142857" x1="108.28645094015747" x2="110.09906651423077" y1="19.21950453439399" y2="18.374268010912594" /><line stroke="black" stroke-width="0.2857142857142857" x1="110.09906651423077" x2="111.91168208830408" y1="18.374268010912594" y2="17.529031487431197" /><line stroke="black" stroke-width="0.2857142857142857" x1="111.91168208830408" x2="113.72429766237738" y1="17.529031487431197" y2="16.6837949639498" /><line stroke="black" stroke-width="0.2857142857142857" x1="113.72429766237738" x2="115.53691323645069" y1="16.6837949639498" y2="15.838558440468402" /><line stroke="black" stroke-width="0.2857142857142857" x1="115.53691323645069" x2="117.53691323645069" y1="15.838558440468402" y2="15.838558440468402" /><line stroke="black" stroke-width="0.2857142857142857" x1="117.53691323645069" x2="119.53691323645069" y1="15.838558440468402" y2="15.838558440468402" /><line stroke="black" stroke-width="0.2857142857142857" x1="119.53691323645069" x2="121.34952881052399" y1="15.838558440468402" y2="16.6837949639498" /><line stroke="black" stroke-width="0.2857142857142857" x1="119.53691323645069" x2="121.34952881052399" y1="15.838558440468402" y2="14.993321916987004" /><line stroke="black" stroke-width="0.2857142857142857" x1="115.53691323645069" x2="116.82248845582376" y1="15.838558440468402" y2="14.306469554230446" /><line stroke="black" stroke-width="0.2857142857142857" x1="116.82248845582376" x2="118.10806367519683" y1="14.306469554230446" y2="12.77438066799249" /><line stroke="black" stroke-width="0.2857142857142857" x1="118.10806367519683" x2="119.92067924927014" y1="12.77438066799249" y2="11.929144144511092" /><line stroke="black" stroke-width="0.2857142857142857" x1="118.10806367519683" x2="118.62570176540187" y1="12.77438066799249" y2="10.842529015414353" /><line stroke="black" stroke-width="0.2857142857142857" x1="108.28645094015747" x2="108.8040890303625" y1="19.21950453439399" y2="17.287652881815855" /><line stroke="black" stroke-width="0.2857142857142857" x1="108.8040890303625" x2="109.32172712056754" y1="17.287652881815855" y2="15.355801229237718" /><line stroke="black" stroke-width="0.2857142857142857" x1="109.32172712056754" x2="109.83936521077258" y1="15.355801229237718" y2="13.42394957665958" /><line stroke="black" stroke-width="0.2857142857142857" x1="109.83936521077258" x2="110.35700330097762" y1="13.42394957665958" y2="11.492097924081444" /><line stroke="black" stroke-width="0.2857142857142857" x1="110.35700330097762" x2="111.6425785203507" y1="11.492097924081444" y2="9.960009037843488" /><line stroke="black" stroke-width="0.2857142857142857" x1="111.6425785203507" x2="112.92815373972377" y1="9.960009037843488" y2="8.427920151605532" /><line stroke="black" stroke-width="0.2857142857142857" x1="112.92815373972377" x2="114.74076931379707" y1="8.427920151605532" y2="7.582683628124133" /><line stroke="black" stroke-width="0.2857142857142857" x1="112.92815373972377" x2="113.44579182992881" y1="8.427920151605532" y2="6.496068499027395" /><line stroke="black" stroke-width="0.2857142857142857" x1="110.35700330097762" x2="110.00970694564376" y1="11.492097924081444" y2="9.522482418057027" /><line stroke="black" stroke-width="0.2857142857142857" x1="110.00970694564376" x2="109.66241059030989" y1="9.522482418057027" y2="7.552866912032611" /><line stroke="black" stroke-width="0.2857142857142857" x1="109.66241059030989" x2="110.18004868051493" y1="7.552866912032611" y2="5.621015259454474" /><line stroke="black" stroke-width="0.2857142857142857" x1="109.66241059030989" x2="108.5152577176078" y1="7.552866912032611" y2="5.914562823454628" /></svg>